<svg width="40" height="40" viewBox="0 0 40 40" fill="none" xmlns="http://www.w3.org/2000/svg">
<path d="M32.8569 14.2856C32.8569 21.3999 19.9997 38.5713 19.9997 38.5713C19.9997 38.5713 7.14258 21.3999 7.14258 14.2856C7.14258 10.8757 8.49717 7.60542 10.9083 5.19424C13.3195 2.78305 16.5898 1.42847 19.9997 1.42847C23.4096 1.42847 26.6799 2.78305 29.0911 5.19424C31.5023 7.60542 32.8569 10.8757 32.8569 14.2856V14.2856Z" stroke="#5A4A66" stroke-width="1.5" stroke-linecap="round" stroke-linejoin="round"/>
<path d="M20.0006 18.5714C22.3675 18.5714 24.2863 16.6526 24.2863 14.2857C24.2863 11.9188 22.3675 10 20.0006 10C17.6336 10 15.7148 11.9188 15.7148 14.2857C15.7148 16.6526 17.6336 18.5714 20.0006 18.5714Z" stroke="#5A4A66" stroke-width="1.5" stroke-linecap="round" stroke-linejoin="round"/>
</svg>
