<svg width="40" height="40" viewBox="0 0 40 40" fill="none" xmlns="http://www.w3.org/2000/svg">
<g clip-path="url(#clip0_282_245)">
<path d="M21.3411 19.7143C20.9173 19.8983 20.4603 19.9933 19.9983 19.9933C19.5363 19.9933 19.0792 19.8983 18.6554 19.7143L2.36969 12.1714C2.10524 12.038 1.883 11.8339 1.72772 11.5816C1.57245 11.3294 1.49023 11.039 1.49023 10.7428C1.49023 10.4467 1.57245 10.1563 1.72772 9.90406C1.883 9.65184 2.10524 9.44766 2.36969 9.31428L18.6554 1.71428C19.0792 1.53026 19.5363 1.4353 19.9983 1.4353C20.4603 1.4353 20.9173 1.53026 21.3411 1.71428L37.6268 9.25713C37.8913 9.39052 38.1135 9.59469 38.2688 9.84692C38.4241 10.0991 38.5063 10.3895 38.5063 10.6857C38.5063 10.9819 38.4241 11.2723 38.2688 11.5245C38.1135 11.7767 37.8913 11.9809 37.6268 12.1143L21.3411 19.7143Z" stroke="#5A4A66" stroke-width="1.5" stroke-linecap="round" stroke-linejoin="round"/>
<path d="M38.5706 21L21.142 29.0286C20.7698 29.1984 20.3654 29.2862 19.9563 29.2862C19.5472 29.2862 19.1428 29.1984 18.7706 29.0286L1.42773 21" stroke="#5A4A66" stroke-width="1.5" stroke-linecap="round" stroke-linejoin="round"/>
<path d="M38.5706 30.2856L21.142 38.3142C20.7698 38.484 20.3654 38.5719 19.9563 38.5719C19.5472 38.5719 19.1428 38.484 18.7706 38.3142L1.42773 30.2856" stroke="#5A4A66" stroke-width="1.5" stroke-linecap="round" stroke-linejoin="round"/>
</g>
<defs>
<clipPath id="clip0_282_245">
<rect width="40" height="40" fill="white"/>
</clipPath>
</defs>
</svg>
