<svg width="40" height="40" viewBox="0 0 40 40" fill="none" xmlns="http://www.w3.org/2000/svg">
<path d="M12.8563 37.1428C19.1681 37.1428 24.2849 32.026 24.2849 25.7142C24.2849 19.4024 19.1681 14.2856 12.8563 14.2856C6.54448 14.2856 1.42773 19.4024 1.42773 25.7142C1.42773 32.026 6.54448 37.1428 12.8563 37.1428Z" stroke="#5A4A66" stroke-width="1.5" stroke-linecap="round" stroke-linejoin="round"/>
<path d="M27.1434 37.1428C33.4552 37.1428 38.572 32.026 38.572 25.7142C38.572 19.4024 33.4552 14.2856 27.1434 14.2856C20.8316 14.2856 15.7148 19.4024 15.7148 25.7142C15.7148 32.026 20.8316 37.1428 27.1434 37.1428Z" stroke="#5A4A66" stroke-width="1.5" stroke-linecap="round" stroke-linejoin="round"/>
<path d="M19.9989 25.7143C26.3107 25.7143 31.4275 20.5976 31.4275 14.2857C31.4275 7.97392 26.3107 2.85718 19.9989 2.85718C13.6871 2.85718 8.57031 7.97392 8.57031 14.2857C8.57031 20.5976 13.6871 25.7143 19.9989 25.7143Z" stroke="#5A4A66" stroke-width="1.5" stroke-linecap="round" stroke-linejoin="round"/>
</svg>
