<svg width="60" height="60" viewBox="0 0 60 60" fill="none" xmlns="http://www.w3.org/2000/svg">
<g clip-path="url(#clip0_155_445)">
<path d="M58.7524 10C58.7524 9.66848 58.6207 9.35054 58.3862 9.11612C58.1518 8.8817 57.8339 8.75 57.5024 8.75H51.2524V2.5C51.2524 2.16848 51.1207 1.85054 50.8862 1.61612C50.6518 1.3817 50.3339 1.25 50.0024 1.25H45.0024C44.6708 1.25 44.3529 1.3817 44.1185 1.61612C43.8841 1.85054 43.7524 2.16848 43.7524 2.5V8.75H37.5024C37.1708 8.75 36.8529 8.8817 36.6185 9.11612C36.3841 9.35054 36.2524 9.66848 36.2524 10V15C36.2524 15.3315 36.3841 15.6495 36.6185 15.8839C36.8529 16.1183 37.1708 16.25 37.5024 16.25H43.7524V22.5C43.7524 22.8315 43.8841 23.1495 44.1185 23.3839C44.3529 23.6183 44.6708 23.75 45.0024 23.75H50.0024C50.3339 23.75 50.6518 23.6183 50.8862 23.3839C51.1207 23.1495 51.2524 22.8315 51.2524 22.5V16.25H57.5024C57.8339 16.25 58.1518 16.1183 58.3862 15.8839C58.6207 15.6495 58.7524 15.3315 58.7524 15V10Z" stroke="white" stroke-width="1.5" stroke-linecap="round" stroke-linejoin="round"/>
<path d="M18.7324 25.035C19.1969 24.5707 19.5653 24.0194 19.8167 23.4126C20.0681 22.8059 20.1975 22.1555 20.1975 21.4987C20.1975 20.8419 20.0681 20.1916 19.8167 19.5848C19.5653 18.9781 19.1969 18.4268 18.7324 17.9625L13.4249 12.66C12.4872 11.7226 11.2157 11.196 9.88986 11.196C8.56404 11.196 7.2925 11.7226 6.35486 12.66L3.44486 15.57C2.22636 16.7932 1.46718 18.3993 1.29547 20.1173C1.12376 21.8352 1.55005 23.5598 2.50236 25C11.0648 37.8883 22.1141 48.9375 35.0024 57.5C36.4435 58.453 38.1695 58.8792 39.8886 58.7065C41.6077 58.5339 43.2145 57.773 44.4374 56.5525L47.3499 53.6425C48.2872 52.7048 48.8138 51.4333 48.8138 50.1075C48.8138 48.7817 48.2872 47.5101 47.3499 46.5725L42.0424 41.275C41.1047 40.3376 39.8332 39.811 38.5074 39.811C37.1815 39.811 35.91 40.3376 34.9724 41.275L33.2049 43.0425C27.2741 38.1655 21.8318 32.7232 16.9549 26.7925L18.7324 25.035Z" stroke="white" stroke-width="1.5" stroke-linecap="round" stroke-linejoin="round"/>
</g>
<defs>
<clipPath id="clip0_155_445">
<rect width="60" height="60" fill="white" transform="translate(0.00231934)"/>
</clipPath>
</defs>
</svg>
