<svg width="60" height="60" viewBox="0 0 60 60" fill="none" xmlns="http://www.w3.org/2000/svg">
<path d="M15.0003 32.1429C16.1837 32.1429 17.1431 31.1835 17.1431 30C17.1431 28.8166 16.1837 27.8572 15.0003 27.8572C13.8168 27.8572 12.8574 28.8166 12.8574 30C12.8574 31.1835 13.8168 32.1429 15.0003 32.1429Z" stroke="#5A4A66" stroke-width="1.5" stroke-linecap="round" stroke-linejoin="round"/>
<path d="M28.929 32.1429C30.1125 32.1429 31.0718 31.1835 31.0718 30C31.0718 28.8166 30.1125 27.8572 28.929 27.8572C27.7455 27.8572 26.7861 28.8166 26.7861 30C26.7861 31.1835 27.7455 32.1429 28.929 32.1429Z" stroke="#5A4A66" stroke-width="1.5" stroke-linecap="round" stroke-linejoin="round"/>
<path d="M42.8572 32.1429C44.0407 32.1429 45.0001 31.1835 45.0001 30C45.0001 28.8166 44.0407 27.8572 42.8572 27.8572C41.6737 27.8572 40.7144 28.8166 40.7144 30C40.7144 31.1835 41.6737 32.1429 42.8572 32.1429Z" stroke="#5A4A66" stroke-width="1.5" stroke-linecap="round" stroke-linejoin="round"/>
<path d="M30.0002 2.14283C24.9612 2.1444 20.0171 3.51271 15.6942 6.10203C11.3714 8.69134 7.83191 12.4047 5.45264 16.8466C3.07338 21.2885 1.94349 26.2925 2.18331 31.3258C2.42313 36.359 4.02368 41.233 6.81449 45.4285L2.14307 57.8571L17.7859 55.0285C21.5527 56.8692 25.6863 57.836 29.8787 57.8568C34.0711 57.8775 38.2141 56.9518 41.9989 55.1485C45.7837 53.3452 49.1126 50.7108 51.7376 47.4419C54.3626 44.1729 56.2159 40.3536 57.1593 36.2687C58.1027 32.1838 58.112 27.9386 57.1864 23.8497C56.2608 19.7607 54.4242 15.9333 51.8135 12.653C49.2028 9.37259 45.8854 6.72378 42.1085 4.90398C38.3316 3.08419 34.1926 2.14035 30.0002 2.14283V2.14283Z" stroke="#5A4A66" stroke-width="1.5" stroke-linecap="round" stroke-linejoin="round"/>
</svg>
