<svg width="21" height="20" viewBox="0 0 21 20" fill="none" xmlns="http://www.w3.org/2000/svg">
<g clip-path="url(#clip0_155_700)">
<path d="M20.4754 11.1321C20.4754 11.132 20.4754 11.1319 20.4753 11.1318L16.6992 1.6504C16.6191 1.44895 16.3907 1.3506 16.1893 1.43074C16.1891 1.43079 16.189 1.43084 16.1888 1.43094L0.86978 7.53084C0.807306 7.55784 0.753127 7.60092 0.712738 7.65569C0.585337 7.7219 0.504853 7.85293 0.503479 7.99647V18.2042C0.503479 18.421 0.679268 18.5968 0.896084 18.5968H17.3855C17.6023 18.5968 17.7781 18.421 17.7781 18.2042V12.6292L20.2562 11.6422C20.4576 11.5619 20.5557 11.3335 20.4754 11.1321ZM16.9929 17.8116H1.28869V8.38908H16.9929V17.8116ZM7.0541 7.60583L13.6279 4.98637C14.2146 5.60305 15.0275 5.95355 15.8787 5.95689L16.5343 7.60583H7.0541ZM17.7781 11.7859V7.99647C17.7781 7.77966 17.6023 7.60387 17.3855 7.60387H17.3792L16.5473 5.51442C16.5381 5.497 16.5273 5.48041 16.5151 5.46496C16.473 5.27587 16.2979 5.14685 16.1048 5.16265C15.3128 5.23484 14.5381 4.90122 14.0464 4.27615C13.9241 4.12514 13.709 4.0876 13.5427 4.1882C13.524 4.19041 13.5055 4.19385 13.4873 4.19841L5.46169 7.39422C5.36457 7.4323 5.28688 7.50783 5.24615 7.60387H2.80886L16.115 2.30566L19.601 11.0588L17.7781 11.7859Z" fill="#5A4A66"/>
<path d="M2.35423 15.1612C3.11648 15.3865 3.71294 15.9822 3.93918 16.7441C3.9888 16.9105 4.14177 17.0244 4.3153 17.0245C4.33566 17.0232 4.35588 17.0201 4.37576 17.0154C4.39338 17.0204 4.41139 17.0241 4.42955 17.0264H13.8521C13.8683 17.0243 13.8843 17.021 13.9 17.0166C14.0961 17.0643 14.2938 16.944 14.3416 16.7479C14.3417 16.7471 14.3419 16.7464 14.342 16.7457C14.5677 15.983 15.1643 15.3864 15.927 15.1608C16.112 15.1042 16.2269 14.9199 16.1963 14.7289C16.2016 14.7099 16.2053 14.6904 16.2077 14.6708V11.5299C16.2054 11.5103 16.2015 11.4908 16.1959 11.4718C16.2267 11.2808 16.1117 11.0964 15.9266 11.04C15.1639 10.8144 14.5674 10.2176 14.3424 9.45464C14.2856 9.26839 14.0995 9.15316 13.9074 9.18531C13.8893 9.18025 13.8708 9.17657 13.8521 9.17432H4.42955C4.40977 9.17667 4.39019 9.1806 4.37105 9.18609C4.18009 9.15567 3.99586 9.27055 3.93918 9.45542C3.71338 10.218 3.11687 10.8144 2.35423 11.04C2.16927 11.0965 2.05433 11.2808 2.08491 11.4718C2.0798 11.4909 2.07612 11.5103 2.07391 11.5299V14.6708C2.07617 14.6892 2.07985 14.7075 2.08491 14.7254C2.05271 14.9176 2.16789 15.104 2.35423 15.1612ZM2.85912 11.6893C3.64748 11.3727 4.27231 10.7479 4.58894 9.95953H13.6923C14.0091 10.7479 14.634 11.3727 15.4225 11.6893V14.5114C14.6344 14.8284 14.0097 15.4531 13.6927 16.2412H4.58894C4.27196 15.4531 3.64723 14.8284 2.85912 14.5114V11.6893Z" fill="#5A4A66"/>
<path d="M9.14036 15.4559C10.4414 15.4559 11.496 14.4013 11.496 13.1003C11.496 11.7993 10.4414 10.7446 9.14036 10.7446C7.83936 10.7446 6.78473 11.7993 6.78473 13.1003C6.786 14.4007 7.8399 15.4546 9.14036 15.4559ZM9.14036 11.5298C10.0077 11.5298 10.7108 12.2329 10.7108 13.1003C10.7108 13.9676 10.0077 14.6707 9.14036 14.6707C8.27305 14.6707 7.56994 13.9676 7.56994 13.1003C7.56994 12.2329 8.27305 11.5298 9.14036 11.5298Z" fill="#5A4A66"/>
<path d="M4.82188 13.6895C5.1471 13.6895 5.41079 13.4259 5.41079 13.1006C5.41079 12.7754 5.1471 12.5117 4.82188 12.5117C4.49665 12.5117 4.23297 12.7754 4.23297 13.1006C4.23297 13.4259 4.49665 13.6895 4.82188 13.6895ZM4.82188 12.9043C4.93029 12.9043 5.01818 12.9922 5.01818 13.1006C5.01818 13.209 4.93029 13.2969 4.82188 13.2969C4.71347 13.2969 4.62558 13.209 4.62558 13.1006C4.62558 12.9922 4.71347 12.9043 4.82188 12.9043Z" fill="#5A4A66"/>
<path d="M13.4595 13.689C13.7847 13.689 14.0484 13.4254 14.0484 13.1001C14.0484 12.7749 13.7847 12.5112 13.4595 12.5112C13.1342 12.5112 12.8705 12.7749 12.8705 13.1001C12.8705 13.4254 13.1342 13.689 13.4595 13.689ZM13.4595 12.9038C13.5679 12.9038 13.6558 12.9917 13.6558 13.1001C13.6558 13.2085 13.5679 13.2964 13.4595 13.2964C13.351 13.2964 13.2631 13.2085 13.2631 13.1001C13.2631 12.9917 13.351 12.9038 13.4595 12.9038Z" fill="#5A4A66"/>
</g>
<defs>
<clipPath id="clip0_155_700">
<rect width="20" height="20" fill="white" transform="translate(0.503479)"/>
</clipPath>
</defs>
</svg>
