<svg width="40" height="41" viewBox="0 0 40 41" fill="none" xmlns="http://www.w3.org/2000/svg">
<path d="M35 13.2251V23.0001C35 23.8209 34.8383 24.6336 34.5242 25.3919C34.2102 26.1502 33.7498 26.8391 33.1694 27.4195C32.5891 27.9999 31.9001 28.4603 31.1418 28.7743C30.3835 29.0884 29.5708 29.2501 28.75 29.2501H12.5V30.5001C12.503 31.4937 12.899 32.4459 13.6016 33.1485C14.3042 33.8511 15.2564 34.2471 16.25 34.2501H30.6625C30.858 34.2526 31.0504 34.2996 31.225 34.3876L35.6875 36.6126C35.8621 36.7005 36.0545 36.7476 36.25 36.7501C36.4839 36.7499 36.7132 36.685 36.9125 36.5626C37.0926 36.45 37.2411 36.2934 37.3439 36.1075C37.4467 35.9216 37.5004 35.7125 37.5 35.5001V16.7501C37.4978 15.9764 37.2564 15.2223 36.8088 14.5913C36.3613 13.9602 35.7294 13.483 35 13.2251Z" fill="#5A4A66"/>
<path d="M32.5 23V8C32.5 7.00544 32.1049 6.05161 31.4017 5.34835C30.6984 4.64509 29.7446 4.25 28.75 4.25H6.25C5.25544 4.25 4.30161 4.64509 3.59835 5.34835C2.89509 6.05161 2.5 7.00544 2.5 8V30.5C2.49991 30.7355 2.56637 30.9663 2.69173 31.1657C2.81708 31.3651 2.99623 31.5251 3.20852 31.6271C3.42082 31.7291 3.65762 31.7691 3.89164 31.7424C4.12566 31.7157 4.34738 31.6235 4.53125 31.4762L10.0962 27.0238C10.3173 26.8469 10.5919 26.7504 10.875 26.75H28.75C29.7446 26.75 30.6984 26.3549 31.4017 25.6517C32.1049 24.9484 32.5 23.9946 32.5 23ZM18.65 20.975C18.5939 21.1301 18.5043 21.271 18.3876 21.3876C18.271 21.5043 18.1301 21.5939 17.975 21.65C17.8253 21.7159 17.6636 21.7499 17.5 21.7499C17.3364 21.7499 17.1747 21.7159 17.025 21.65C16.8699 21.5939 16.729 21.5043 16.6124 21.3876C16.4957 21.271 16.4061 21.1301 16.35 20.975C16.2859 20.8247 16.252 20.6633 16.25 20.5C16.2549 20.1691 16.3843 19.8522 16.6125 19.6125C16.7341 19.5022 16.8736 19.4134 17.025 19.35C17.1741 19.282 17.3361 19.2468 17.5 19.2468C17.6639 19.2468 17.8259 19.282 17.975 19.35C18.1264 19.4134 18.2659 19.5022 18.3875 19.6125C18.6177 19.8509 18.7475 20.1686 18.75 20.5C18.748 20.6633 18.7141 20.8247 18.65 20.975ZM18.8888 16.6C18.8207 16.6408 18.7651 16.6994 18.7279 16.7694C18.6907 16.8394 18.6733 16.9183 18.6775 16.9975C18.6775 17.329 18.5458 17.647 18.3114 17.8814C18.077 18.1158 17.759 18.2475 17.4275 18.2475C17.096 18.2475 16.778 18.1158 16.5436 17.8814C16.3092 17.647 16.1775 17.329 16.1775 16.9975C16.169 16.4239 16.3307 15.8607 16.6422 15.379C16.9537 14.8973 17.4009 14.5188 17.9275 14.2913C18.1904 14.1822 18.4111 13.9914 18.557 13.747C18.7028 13.5027 18.7661 13.2178 18.7373 12.9347C18.7086 12.6516 18.5893 12.3853 18.3973 12.1753C18.2053 11.9652 17.9507 11.8227 17.6713 11.7688C17.3598 11.712 17.0383 11.7673 16.7637 11.9249C16.4891 12.0826 16.2792 12.3324 16.1713 12.63C16.058 12.9396 15.827 13.1918 15.5286 13.3319C15.2302 13.472 14.8885 13.4885 14.578 13.3779C14.2675 13.2673 14.0132 13.0385 13.8705 12.7414C13.7279 12.4442 13.7084 12.1027 13.8163 11.7913C14.0288 11.1903 14.3883 10.6521 14.8619 10.2255C15.3355 9.79885 15.9083 9.4974 16.5281 9.34854C17.1479 9.19967 17.795 9.20812 18.4107 9.3731C19.0264 9.53808 19.5911 9.85437 20.0535 10.2932C20.5158 10.732 20.8611 11.2795 21.0579 11.8857C21.2548 12.492 21.2969 13.1378 21.1806 13.7646C21.0642 14.3913 20.793 14.979 20.3917 15.4742C19.9903 15.9694 19.4715 16.3564 18.8825 16.6H18.8888Z" fill="#5A4A66"/>
</svg>
