<svg width="20" height="20" viewBox="0 0 20 20" fill="none" xmlns="http://www.w3.org/2000/svg">
<g clip-path="url(#clip0_280_140)">
<path d="M12.5146 18.5715C13.3944 19.139 14.4427 19.3863 15.4834 19.2719C16.5241 19.1574 17.4936 18.6881 18.2289 17.9429L18.8718 17.3143C19.1536 17.026 19.3114 16.6389 19.3114 16.2357C19.3114 15.8326 19.1536 15.4454 18.8718 15.1572L16.1432 12.4572C15.8574 12.1762 15.4726 12.0188 15.0718 12.0188C14.671 12.0188 14.2862 12.1762 14.0004 12.4572V12.4572C13.7121 12.739 13.3249 12.8968 12.9218 12.8968C12.5186 12.8968 12.1315 12.739 11.8432 12.4572L7.5575 8.17145C7.41453 8.03056 7.301 7.86265 7.22351 7.67749C7.14601 7.49233 7.10611 7.29361 7.10611 7.09288C7.10611 6.89216 7.14601 6.69344 7.22351 6.50827C7.301 6.32311 7.41453 6.1552 7.5575 6.01431V6.01431C7.83843 5.72845 7.99585 5.34368 7.99585 4.94288C7.99585 4.54208 7.83843 4.15732 7.5575 3.87145L4.84321 1.15717C4.55494 0.875332 4.1678 0.717529 3.76464 0.717529C3.36149 0.717529 2.97434 0.875332 2.68607 1.15717L2.0575 1.80002C1.31228 2.53537 0.842975 3.50489 0.728502 4.54555C0.614029 5.58621 0.861367 6.63456 1.42893 7.51431C4.38613 11.8725 8.14884 15.6255 12.5146 18.5715V18.5715Z" stroke="#5A4A66" stroke-width="1.5" stroke-linecap="round" stroke-linejoin="round"/>
</g>
<defs>
<clipPath id="clip0_280_140">
<rect width="20" height="20" fill="white"/>
</clipPath>
</defs>
</svg>
