<svg width="61" height="60" viewBox="0 0 61 60" fill="none" xmlns="http://www.w3.org/2000/svg">
<path d="M30.8813 19.374C35.7138 19.374 39.6313 15.4565 39.6313 10.624C39.6313 5.79152 35.7138 1.87402 30.8813 1.87402C26.0488 1.87402 22.1313 5.79152 22.1313 10.624C22.1313 15.4565 26.0488 19.374 30.8813 19.374Z" stroke="white" stroke-width="1.5" stroke-miterlimit="10" stroke-linecap="round" stroke-linejoin="round"/>
<path d="M36.3812 55.1233L30.8812 42.3733L25.3812 55.1233C24.6312 56.8733 22.6312 58.1233 20.8812 58.1233C20.1312 58.1233 19.3812 57.8733 18.8812 57.6233C16.3812 56.3733 15.3812 53.6233 16.3812 51.1233L24.1312 33.1233V29.8733L10.3812 24.3733C7.88124 23.3733 6.63122 20.6233 7.63122 18.1233C8.70084 15.4492 11.3852 14.0249 14.1312 15.1233C16.8773 16.2217 21.3813 18.1233 26.1312 19.8733C27.6712 20.5149 29.2772 20.8272 30.8812 20.8101C32.4855 20.8272 34.0912 20.5149 35.6312 19.8733C40.3812 18.1233 44.8852 16.2217 47.6312 15.1233C50.3772 14.0249 53.0617 15.4492 54.1312 18.1233C55.1312 20.6233 53.8812 23.3733 51.3812 24.3733L37.6312 29.8733V33.1233L45.3812 51.1233C46.3812 53.6233 45.3812 56.3733 42.8812 57.6233C42.3812 57.8733 41.6312 58.1233 40.8812 58.1233C39.1312 58.1233 37.1312 56.8733 36.3812 55.1233Z" stroke="white" stroke-width="1.5" stroke-miterlimit="10" stroke-linecap="round" stroke-linejoin="round"/>
<path d="M51.3814 24.3196C54.6314 24.8196 56.6313 28.0695 55.6313 30.8195C54.6313 33.3195 51.8813 34.8195 49.3813 33.8195" stroke="white" stroke-width="1.5" stroke-miterlimit="10" stroke-linecap="round" stroke-linejoin="round"/>
<path d="M52.6312 51.1245C54.1312 48.8745 53.3812 45.6245 51.1312 44.3745L39.1312 36.6245" stroke="white" stroke-width="1.5" stroke-miterlimit="10" stroke-linecap="round" stroke-linejoin="round"/>
<path d="M10.3814 24.3196C7.13138 24.8196 5.13138 28.0695 6.13138 30.8195C7.13138 33.3195 9.88138 34.8195 12.3814 33.8195" stroke="white" stroke-width="1.5" stroke-miterlimit="10" stroke-linecap="round" stroke-linejoin="round"/>
<path d="M9.13129 51.1245C7.63129 48.8745 8.38126 45.6245 10.6313 44.3745L22.6313 36.6245" stroke="white" stroke-width="1.5" stroke-miterlimit="10" stroke-linecap="round" stroke-linejoin="round"/>
</svg>
