<svg width="55" height="56" viewBox="0 0 55 56" fill="none" xmlns="http://www.w3.org/2000/svg">
<path d="M8.83203 11.48C8.83203 13.8099 9.75756 16.0443 11.405 17.6918C13.0525 19.3392 15.2869 20.2648 17.6168 20.2648C19.9466 20.2648 22.181 19.3392 23.8285 17.6918C25.4759 16.0443 26.4015 13.8099 26.4015 11.48C26.4015 9.15018 25.4759 6.91575 23.8285 5.2683C22.181 3.62084 19.9466 2.69531 17.6168 2.69531C15.2869 2.69531 13.0525 3.62084 11.405 5.2683C9.75756 6.91575 8.83203 9.15018 8.83203 11.48Z" stroke="#5A4A66" stroke-width="1.5" stroke-linecap="round" stroke-linejoin="round"/>
<path d="M8.83203 31.2461H26.4015" stroke="#5A4A66" stroke-width="1.5" stroke-linecap="round" stroke-linejoin="round"/>
<path d="M8.83203 24.6602H26.4015" stroke="#5A4A66" stroke-width="1.5" stroke-linecap="round" stroke-linejoin="round"/>
<path d="M8.83203 37.8359H17.6168" stroke="#5A4A66" stroke-width="1.5" stroke-linecap="round" stroke-linejoin="round"/>
<path d="M8.83203 44.4258H17.6168" stroke="#5A4A66" stroke-width="1.5" stroke-linecap="round" stroke-linejoin="round"/>
<path d="M17.6172 7.08984V15.8746" stroke="#5A4A66" stroke-width="1.5" stroke-linecap="round" stroke-linejoin="round"/>
<path d="M22.0093 11.4805H13.2246" stroke="#5A4A66" stroke-width="1.5" stroke-linecap="round" stroke-linejoin="round"/>
<path d="M22.0098 52.112C22.0098 52.4032 22.1255 52.6825 22.3314 52.8884C22.5373 53.0944 22.8166 53.2101 23.1079 53.2101H51.6582C51.9494 53.2101 52.2287 53.0944 52.4347 52.8884C52.6406 52.6825 52.7563 52.4032 52.7563 52.112V37.8368C52.7563 37.2543 52.5249 36.6957 52.113 36.2839C51.7012 35.872 51.1426 35.6406 50.5601 35.6406H24.2059C23.6235 35.6406 23.0649 35.872 22.653 36.2839C22.2411 36.6957 22.0098 37.2543 22.0098 37.8368V52.112Z" stroke="#5A4A66" stroke-width="1.5" stroke-linecap="round" stroke-linejoin="round"/>
<path d="M4.44032 14.7773C3.85786 14.7773 3.29925 15.0087 2.88739 15.4206C2.47552 15.8325 2.24414 16.3911 2.24414 16.9735V52.1124C2.24414 52.2566 2.27254 52.3994 2.32773 52.5326C2.38291 52.6659 2.4638 52.7869 2.56576 52.8889C2.66773 52.9909 2.78878 53.0717 2.92201 53.1269C3.05524 53.1821 3.19803 53.2105 3.34223 53.2105H17.6174" stroke="#5A4A66" stroke-width="1.5" stroke-linecap="round" stroke-linejoin="round"/>
<path d="M32.9911 31.2487V16.9735C32.9911 16.3911 32.7597 15.8325 32.3479 15.4206C31.936 15.0087 31.3774 14.7773 30.7949 14.7773" stroke="#5A4A66" stroke-width="1.5" stroke-linecap="round" stroke-linejoin="round"/>
<path d="M35.1875 48.8164H39.5799V53.2088H35.1875V48.8164Z" stroke="#5A4A66" stroke-width="1.5" stroke-linecap="round" stroke-linejoin="round"/>
<path d="M26.4023 44.4258H28.5985" stroke="#5A4A66" stroke-width="1.5" stroke-linecap="round" stroke-linejoin="round"/>
<path d="M28.5985 40.0312H26.4023" stroke="#5A4A66" stroke-width="1.5" stroke-linecap="round" stroke-linejoin="round"/>
<path d="M32.9902 44.4258H35.1864" stroke="#5A4A66" stroke-width="1.5" stroke-linecap="round" stroke-linejoin="round"/>
<path d="M35.1864 40.0312H32.9902" stroke="#5A4A66" stroke-width="1.5" stroke-linecap="round" stroke-linejoin="round"/>
<path d="M39.5781 44.4258H41.7743" stroke="#5A4A66" stroke-width="1.5" stroke-linecap="round" stroke-linejoin="round"/>
<path d="M41.7743 40.0312H39.5781" stroke="#5A4A66" stroke-width="1.5" stroke-linecap="round" stroke-linejoin="round"/>
<path d="M46.168 44.4258H48.3641" stroke="#5A4A66" stroke-width="1.5" stroke-linecap="round" stroke-linejoin="round"/>
<path d="M48.3641 40.0312H46.168" stroke="#5A4A66" stroke-width="1.5" stroke-linecap="round" stroke-linejoin="round"/>
</svg>
