<svg width="61" height="60" viewBox="0 0 61 60" fill="none" xmlns="http://www.w3.org/2000/svg">
<g clip-path="url(#clip0_155_306)">
<path d="M43.7615 11.2536C43.7615 10.5906 43.4981 9.95468 43.0293 9.48583C42.5605 9.01699 41.9246 8.7536 41.2615 8.7536H36.2615V3.7536C36.2615 3.09056 35.9981 2.45468 35.5293 1.98583C35.0605 1.51699 34.4246 1.2536 33.7615 1.2536H31.2615C30.5985 1.2536 29.9626 1.51699 29.4938 1.98583C29.0249 2.45468 28.7615 3.09056 28.7615 3.7536V8.7536H23.7615C23.0985 8.7536 22.4626 9.01699 21.9938 9.48583C21.5249 9.95468 21.2615 10.5906 21.2615 11.2536V13.7536C21.2615 14.4166 21.5249 15.0525 21.9938 15.5214C22.4626 15.9902 23.0985 16.2536 23.7615 16.2536H28.7615V21.2536C28.7615 21.9166 29.0249 22.5525 29.4938 23.0214C29.9626 23.4902 30.5985 23.7536 31.2615 23.7536H33.7615C34.4246 23.7536 35.0605 23.4902 35.5293 23.0214C35.9981 22.5525 36.2615 21.9166 36.2615 21.2536V16.2536H41.2615C41.9246 16.2536 42.5605 15.9902 43.0293 15.5214C43.4981 15.0525 43.7615 14.4166 43.7615 13.7536V11.2536Z" stroke="#5A4A66" stroke-width="1.5" stroke-linecap="round" stroke-linejoin="round"/>
<path d="M6.2616 40.0046C6.2616 41.6622 6.92008 43.2519 8.09218 44.424C9.26428 45.5961 10.854 46.2546 12.5116 46.2546C14.1692 46.2546 15.7589 45.5961 16.931 44.424C18.1031 43.2519 18.7616 41.6622 18.7616 40.0046C18.7616 38.347 18.1031 36.7573 16.931 35.5852C15.7589 34.4131 14.1692 33.7546 12.5116 33.7546C10.854 33.7546 9.26428 34.4131 8.09218 35.5852C6.92008 36.7573 6.2616 38.347 6.2616 40.0046Z" stroke="#5A4A66" stroke-width="1.5" stroke-linecap="round" stroke-linejoin="round"/>
<path d="M1.26154 33.7546V58.7546" stroke="#5A4A66" stroke-width="1.5" stroke-linecap="round" stroke-linejoin="round"/>
<path d="M58.7615 40.0037V58.7537" stroke="#5A4A66" stroke-width="1.5" stroke-linecap="round" stroke-linejoin="round"/>
<path d="M1.26154 46.254H58.7615V53.754H1.26154V46.254Z" stroke="#5A4A66" stroke-width="1.5" stroke-linecap="round" stroke-linejoin="round"/>
<path d="M23.7616 46.2546H53.7616V38.7546C53.7616 37.4285 53.2348 36.1567 52.2971 35.219C51.3594 34.2814 50.0876 33.7546 48.7616 33.7546H25.0116C24.68 33.7546 24.3621 33.8863 24.1277 34.1207C23.8933 34.3551 23.7616 34.6731 23.7616 35.0046V46.2546Z" stroke="#5A4A66" stroke-width="1.5" stroke-linecap="round" stroke-linejoin="round"/>
</g>
<defs>
<clipPath id="clip0_155_306">
<rect width="60" height="60" fill="white" transform="translate(0.0115967 0.00488281)"/>
</clipPath>
</defs>
</svg>
