<svg width="50" height="50" viewBox="0 0 50 50" fill="none" xmlns="http://www.w3.org/2000/svg">
<path d="M25.9982 9.02782C25.9982 10.3516 26.524 11.6212 27.4601 12.5572C28.3961 13.4933 29.6657 14.0191 30.9895 14.0191C32.3133 14.0191 33.5828 13.4933 34.5189 12.5572C35.4549 11.6212 35.9808 10.3516 35.9808 9.02782C35.9808 7.70404 35.4549 6.43448 34.5189 5.49842C33.5828 4.56237 32.3133 4.0365 30.9895 4.0365C29.6657 4.0365 28.3961 4.56237 27.4601 5.49842C26.524 6.43448 25.9982 7.70404 25.9982 9.02782Z" stroke="#5A4A66" stroke-width="1.5" stroke-linecap="round" stroke-linejoin="round"/>
<path d="M37.9773 36.9791C37.9773 37.6346 38.1064 38.2836 38.3573 38.8892C38.6081 39.4948 38.9758 40.045 39.4392 40.5085C39.9027 40.972 40.453 41.3397 41.0586 41.5905C41.6641 41.8413 42.3132 41.9704 42.9686 41.9704C43.6241 41.9704 44.2732 41.8413 44.8787 41.5905C45.4843 41.3397 46.0346 40.972 46.498 40.5085C46.9615 40.045 47.3292 39.4948 47.58 38.8892C47.8309 38.2836 47.96 37.6346 47.96 36.9791C47.96 36.3236 47.8309 35.6746 47.58 35.069C47.3292 34.4634 46.9615 33.9132 46.498 33.4497C46.0346 32.9862 45.4843 32.6186 44.8787 32.3677C44.2732 32.1169 43.6241 31.9878 42.9686 31.9878C42.3132 31.9878 41.6641 32.1169 41.0586 32.3677C40.453 32.6186 39.9027 32.9862 39.4392 33.4497C38.9758 33.9132 38.6081 34.4634 38.3573 35.069C38.1064 35.6746 37.9773 36.3236 37.9773 36.9791Z" stroke="#5A4A66" stroke-width="1.5" stroke-linecap="round" stroke-linejoin="round"/>
<path d="M47.96 45.9635H2.03983" stroke="#5A4A66" stroke-width="1.5" stroke-linecap="round" stroke-linejoin="round"/>
<path d="M31.9877 25.9983L27.9408 27.4498C27.2259 27.6881 26.635 28.2006 26.2981 28.8745C25.9611 29.5485 25.9056 30.3287 26.1439 31.0435C26.3822 31.7584 26.8947 32.3493 27.5686 32.6863C28.2426 33.0233 29.0228 33.0787 29.7377 32.8404L33.8825 31.357C35.0749 30.9594 36.1121 30.1966 36.847 29.1768C37.5819 28.1571 37.9774 26.9319 37.9773 25.6749V24.0018C37.9773 22.4133 37.3463 20.8898 36.223 19.7665C35.0998 18.6433 33.5763 18.0122 31.9877 18.0122H24.9999C23.7601 18.0122 22.5373 18.3009 21.4284 18.8553C20.3195 19.4098 19.3549 20.2148 18.611 21.2067L18.0121 22.0053" stroke="#5A4A66" stroke-width="1.5" stroke-linecap="round" stroke-linejoin="round"/>
<path d="M12.0225 35.981H5.03462C4.24035 35.981 3.47861 36.2965 2.91698 36.8581C2.35535 37.4197 2.03983 38.1815 2.03983 38.9757C2.03983 39.77 2.35535 40.5318 2.91698 41.0934C3.47861 41.655 4.24035 41.9705 5.03462 41.9705H22.0051" stroke="#5A4A66" stroke-width="1.5" stroke-linecap="round" stroke-linejoin="round"/>
<path d="M31.9877 41.9705H22.0051C21.4488 41.9706 20.9035 41.8159 20.4303 41.5235C19.9571 41.2312 19.5746 40.8128 19.3258 40.3153L15.9896 33.6429C15.7424 33.1441 15.3603 32.7246 14.8867 32.432C14.4131 32.1395 13.8669 31.9856 13.3102 31.9878H5.03462C4.24035 31.9878 3.47861 31.6723 2.91698 31.1107C2.35535 30.549 2.03983 29.7873 2.03983 28.993C2.03983 28.1988 2.35535 27.437 2.91698 26.8754C3.47861 26.3138 4.24035 25.9982 5.03462 25.9982H13.3122C14.9822 25.9918 16.6205 26.4539 18.0411 27.332C19.4616 28.2101 20.6074 29.4689 21.3482 30.9656L23.8559 35.9809H31.9877C32.782 35.9809 33.5437 36.2964 34.1054 36.858C34.667 37.4197 34.9825 38.1814 34.9825 38.9757C34.9825 39.7699 34.667 40.5317 34.1054 41.0933C33.5437 41.6549 32.782 41.9705 31.9877 41.9705Z" stroke="#5A4A66" stroke-width="1.5" stroke-linecap="round" stroke-linejoin="round"/>
</svg>
