<svg width="60" height="61" viewBox="0 0 60 61" fill="none" xmlns="http://www.w3.org/2000/svg">
<path d="M32.0146 29.6431C31.3789 29.9191 30.6933 30.0615 30.0003 30.0615C29.3073 30.0615 28.6217 29.9191 27.986 29.6431L3.55747 18.3288C3.16078 18.1287 2.82743 17.8224 2.59452 17.4441C2.3616 17.0658 2.23828 16.6302 2.23828 16.1859C2.23828 15.7416 2.3616 15.3061 2.59452 14.9277C2.82743 14.5494 3.16078 14.2431 3.55747 14.0431L27.986 2.64307C28.6217 2.36704 29.3073 2.22461 30.0003 2.22461C30.6933 2.22461 31.3789 2.36704 32.0146 2.64307L56.4432 13.9574C56.8399 14.1574 57.1732 14.4637 57.4061 14.842C57.639 15.2204 57.7624 15.6559 57.7624 16.1002C57.7624 16.5445 57.639 16.9801 57.4061 17.3584C57.1732 17.7367 56.8399 18.043 56.4432 18.2431L32.0146 29.6431Z" stroke="#5A4A66" stroke-width="1.5" stroke-linecap="round" stroke-linejoin="round"/>
<path d="M57.8569 31.5715L31.714 43.6144C31.1557 43.8691 30.5491 44.0009 29.9354 44.0009C29.3217 44.0009 28.7152 43.8691 28.1569 43.6144L2.14258 31.5715" stroke="#5A4A66" stroke-width="1.5" stroke-linecap="round" stroke-linejoin="round"/>
<path d="M57.8569 45.5002L31.714 57.5431C31.1557 57.7978 30.5491 57.9296 29.9354 57.9296C29.3217 57.9296 28.7152 57.7978 28.1569 57.5431L2.14258 45.5002" stroke="#5A4A66" stroke-width="1.5" stroke-linecap="round" stroke-linejoin="round"/>
</svg>
