<svg width="60" height="60" viewBox="0 0 60 60" fill="none" xmlns="http://www.w3.org/2000/svg">
<path d="M2.14307 6.42861L2.14307 53.5715C2.14307 55.9384 4.06185 57.8572 6.42878 57.8572L53.5716 57.8572C55.9386 57.8572 57.8573 55.9384 57.8573 53.5715V6.42861C57.8573 4.06167 55.9386 2.14289 53.5716 2.14289L6.42878 2.14289C4.06185 2.14289 2.14307 4.06167 2.14307 6.42861Z" stroke="#5A4A66" stroke-width="1.5" stroke-linecap="round" stroke-linejoin="round"/>
<path d="M19.2861 47.1429V25.7144" stroke="#5A4A66" stroke-width="1.5" stroke-linecap="round" stroke-linejoin="round"/>
<path d="M19.286 25.7143C22.8364 25.7143 25.7146 22.8362 25.7146 19.2857C25.7146 15.7353 22.8364 12.8572 19.286 12.8572C15.7356 12.8572 12.8574 15.7353 12.8574 19.2857C12.8574 22.8362 15.7356 25.7143 19.286 25.7143Z" stroke="#5A4A66" stroke-width="1.5" stroke-linecap="round" stroke-linejoin="round"/>
<path d="M40.7144 12.8572V25.7143" stroke="#5A4A66" stroke-width="1.5" stroke-linecap="round" stroke-linejoin="round"/>
<path d="M40.7144 38.5713V47.1427" stroke="#5A4A66" stroke-width="1.5" stroke-linecap="round" stroke-linejoin="round"/>
<path d="M40.7147 38.5715C44.2651 38.5715 47.1433 35.6933 47.1433 32.1429C47.1433 28.5925 44.2651 25.7144 40.7147 25.7144C37.1643 25.7144 34.2861 28.5925 34.2861 32.1429C34.2861 35.6933 37.1643 38.5715 40.7147 38.5715Z" stroke="#5A4A66" stroke-width="1.5" stroke-linecap="round" stroke-linejoin="round"/>
</svg>
