<svg width="60" height="61" viewBox="0 0 60 61" fill="none" xmlns="http://www.w3.org/2000/svg">
<path d="M13.9283 25.7858C20.4374 25.7858 25.714 20.5091 25.714 14.0001C25.714 7.491 20.4374 2.21436 13.9283 2.21436C7.41922 2.21436 2.14258 7.491 2.14258 14.0001C2.14258 20.5091 7.41922 25.7858 13.9283 25.7858Z" stroke="#5A4A66" stroke-width="1.5" stroke-linecap="round" stroke-linejoin="round"/>
<path d="M46.0709 25.7858C52.5799 25.7858 57.8566 20.5091 57.8566 14.0001C57.8566 7.491 52.5799 2.21436 46.0709 2.21436C39.5618 2.21436 34.2852 7.491 34.2852 14.0001C34.2852 20.5091 39.5618 25.7858 46.0709 25.7858Z" stroke="#5A4A66" stroke-width="1.5" stroke-linecap="round" stroke-linejoin="round"/>
<path d="M13.9283 57.9286C20.4374 57.9286 25.714 52.652 25.714 46.1429C25.714 39.6338 20.4374 34.3572 13.9283 34.3572C7.41922 34.3572 2.14258 39.6338 2.14258 46.1429C2.14258 52.652 7.41922 57.9286 13.9283 57.9286Z" stroke="#5A4A66" stroke-width="1.5" stroke-linecap="round" stroke-linejoin="round"/>
<path d="M46.0709 57.9286C52.5799 57.9286 57.8566 52.652 57.8566 46.1429C57.8566 39.6338 52.5799 34.3572 46.0709 34.3572C39.5618 34.3572 34.2852 39.6338 34.2852 46.1429C34.2852 52.652 39.5618 57.9286 46.0709 57.9286Z" stroke="#5A4A66" stroke-width="1.5" stroke-linecap="round" stroke-linejoin="round"/>
</svg>
