<svg width="60" height="60" viewBox="0 0 60 60" fill="none" xmlns="http://www.w3.org/2000/svg">
<path d="M49.2425 32.4652H40.1575V40.1812H32.4417V49.2662H40.1575V56.9818H49.2425V49.2662H56.9582V40.1812H49.2425V32.4652Z" stroke="white" stroke-width="1.5" stroke-linecap="round" stroke-linejoin="round"/>
<path d="M10.7423 17.8903H35.8986" stroke="white" stroke-width="1.5" stroke-linecap="round" stroke-linejoin="round"/>
<path d="M10.7423 28.6715H28.7111" stroke="white" stroke-width="1.5" stroke-linecap="round" stroke-linejoin="round"/>
<path d="M10.7423 39.4528H19.7267" stroke="white" stroke-width="1.5" stroke-linecap="round" stroke-linejoin="round"/>
<path d="M26.2132 50.234H7.14858C6.19547 50.234 5.28139 49.8554 4.60742 49.1815C3.93347 48.5076 3.55484 47.5933 3.55484 46.6402V7.10902C3.55484 6.15588 3.93347 5.2418 4.60742 4.56785C5.28139 3.89388 6.19547 3.51526 7.14858 3.51526H32.6139C33.5663 3.51546 34.4798 3.89376 35.1535 4.56704L42.0344 11.4479C42.7076 12.1216 43.0859 13.035 43.0861 13.9875V26.3085" stroke="white" stroke-width="1.5" stroke-linecap="round" stroke-linejoin="round"/>
</svg>
