<svg width="61" height="60" viewBox="0 0 61 60" fill="none" xmlns="http://www.w3.org/2000/svg">
<path d="M9.65173 12.0361C9.65173 14.5777 10.6614 17.0153 12.4586 18.8125C14.2558 20.6098 16.6934 21.6194 19.2351 21.6194C21.7767 21.6194 24.2143 20.6098 26.0115 18.8125C27.8087 17.0153 28.8184 14.5777 28.8184 12.0361C28.8184 9.49443 27.8087 7.05688 26.0115 5.25965C24.2143 3.46243 21.7767 2.45276 19.2351 2.45276C16.6934 2.45276 14.2558 3.46243 12.4586 5.25965C10.6614 7.05688 9.65173 9.49443 9.65173 12.0361Z" stroke="white" stroke-width="1.5" stroke-linecap="round" stroke-linejoin="round"/>
<path d="M9.65173 33.5986H28.8184" stroke="white" stroke-width="1.5" stroke-linecap="round" stroke-linejoin="round"/>
<path d="M9.65173 26.4111H28.8184" stroke="white" stroke-width="1.5" stroke-linecap="round" stroke-linejoin="round"/>
<path d="M9.65173 40.7861H19.2351" stroke="white" stroke-width="1.5" stroke-linecap="round" stroke-linejoin="round"/>
<path d="M9.65173 47.9736H19.2351" stroke="white" stroke-width="1.5" stroke-linecap="round" stroke-linejoin="round"/>
<path d="M19.235 7.24451V16.8278" stroke="white" stroke-width="1.5" stroke-linecap="round" stroke-linejoin="round"/>
<path d="M24.0267 12.0361H14.4434" stroke="white" stroke-width="1.5" stroke-linecap="round" stroke-linejoin="round"/>
<path d="M24.0267 56.359C24.0267 56.6767 24.1529 56.9814 24.3776 57.2061C24.6022 57.4307 24.9069 57.5569 25.2246 57.5569H56.3705C56.6882 57.5569 56.9929 57.4307 57.2175 57.2061C57.4422 56.9814 57.5684 56.6767 57.5684 56.359V40.7861C57.5684 40.1507 57.316 39.5413 56.8667 39.092C56.4174 38.6427 55.808 38.3903 55.1726 38.3903H26.4226C25.7872 38.3903 25.1778 38.6427 24.7285 39.092C24.2792 39.5413 24.0267 40.1507 24.0267 40.7861V56.359Z" stroke="white" stroke-width="1.5" stroke-linecap="round" stroke-linejoin="round"/>
<path d="M4.86007 15.6299C4.22465 15.6299 3.61526 15.8823 3.16596 16.3316C2.71665 16.7809 2.46423 17.3903 2.46423 18.0257V56.359C2.46423 56.5164 2.49522 56.6721 2.55542 56.8175C2.61562 56.9628 2.70386 57.0949 2.8151 57.2061C2.92633 57.3173 3.05839 57.4056 3.20373 57.4658C3.34907 57.526 3.50484 57.557 3.66215 57.557H19.2351" stroke="white" stroke-width="1.5" stroke-linecap="round" stroke-linejoin="round"/>
<path d="M36.0059 33.5986V18.0257C36.0059 17.3903 35.7535 16.7809 35.3042 16.3316C34.8548 15.8823 34.2455 15.6299 33.61 15.6299" stroke="white" stroke-width="1.5" stroke-linecap="round" stroke-linejoin="round"/>
<path d="M38.4017 52.7653H43.1934V57.5569H38.4017V52.7653Z" stroke="white" stroke-width="1.5" stroke-linecap="round" stroke-linejoin="round"/>
<path d="M28.8184 47.9736H31.2142" stroke="white" stroke-width="1.5" stroke-linecap="round" stroke-linejoin="round"/>
<path d="M31.2142 43.182H28.8184" stroke="white" stroke-width="1.5" stroke-linecap="round" stroke-linejoin="round"/>
<path d="M36.0059 47.9736H38.4017" stroke="white" stroke-width="1.5" stroke-linecap="round" stroke-linejoin="round"/>
<path d="M38.4017 43.182H36.0059" stroke="white" stroke-width="1.5" stroke-linecap="round" stroke-linejoin="round"/>
<path d="M43.1934 47.9736H45.5892" stroke="white" stroke-width="1.5" stroke-linecap="round" stroke-linejoin="round"/>
<path d="M45.5892 43.182H43.1934" stroke="white" stroke-width="1.5" stroke-linecap="round" stroke-linejoin="round"/>
<path d="M50.3809 47.9736H52.7767" stroke="white" stroke-width="1.5" stroke-linecap="round" stroke-linejoin="round"/>
<path d="M52.7767 43.182H50.3809" stroke="white" stroke-width="1.5" stroke-linecap="round" stroke-linejoin="round"/>
</svg>
