<svg width="60" height="61" viewBox="0 0 60 61" fill="none" xmlns="http://www.w3.org/2000/svg">
<path d="M31.2049 10.8451C31.2049 12.4336 31.8359 13.9571 32.9592 15.0803C34.0825 16.2036 35.6059 16.8346 37.1945 16.8346C38.783 16.8346 40.3065 16.2036 41.4298 15.0803C42.553 13.9571 43.1841 12.4336 43.1841 10.8451C43.1841 9.25652 42.553 7.73304 41.4298 6.60978C40.3065 5.48651 38.783 4.85547 37.1945 4.85547C35.6059 4.85547 34.0825 5.48651 32.9592 6.60978C31.8359 7.73304 31.2049 9.25652 31.2049 10.8451Z" stroke="#5A4A66" stroke-width="1.5" stroke-linecap="round" stroke-linejoin="round"/>
<path d="M45.5799 44.3867C45.5799 45.1733 45.7348 45.9522 46.0358 46.6789C46.3368 47.4055 46.778 48.0658 47.3342 48.622C47.8904 49.1782 48.5507 49.6194 49.2774 49.9204C50.0041 50.2214 50.7829 50.3763 51.5695 50.3763C52.356 50.3763 53.1349 50.2214 53.8616 49.9204C54.5883 49.6194 55.2486 49.1782 55.8048 48.622C56.3609 48.0658 56.8021 47.4055 57.1031 46.6789C57.4041 45.9522 57.5591 45.1733 57.5591 44.3867C57.5591 43.6002 57.4041 42.8213 57.1031 42.0946C56.8021 41.3679 56.3609 40.7076 55.8048 40.1515C55.2486 39.5953 54.5883 39.1541 53.8616 38.8531C53.1349 38.5521 52.356 38.3972 51.5695 38.3972C50.7829 38.3972 50.0041 38.5521 49.2774 38.8531C48.5507 39.1541 47.8904 39.5953 47.3342 40.1515C46.778 40.7076 46.3368 41.3679 46.0358 42.0946C45.7348 42.8213 45.5799 43.6002 45.5799 44.3867Z" stroke="#5A4A66" stroke-width="1.5" stroke-linecap="round" stroke-linejoin="round"/>
<path d="M57.5591 55.168H2.4549" stroke="#5A4A66" stroke-width="1.5" stroke-linecap="round" stroke-linejoin="round"/>
<path d="M38.3924 31.2096L33.536 32.9514C32.6782 33.2373 31.9691 33.8523 31.5647 34.6611C31.1604 35.4698 31.0938 36.4061 31.3798 37.2639C31.6657 38.1217 32.2807 38.8308 33.0894 39.2352C33.8982 39.6395 34.8344 39.7061 35.6923 39.4201L40.666 37.64C42.097 37.1629 43.3415 36.2476 44.2234 35.0239C45.1053 33.8001 45.5799 32.3299 45.5799 30.8215V28.8138C45.5799 26.9075 44.8226 25.0794 43.4747 23.7315C42.1268 22.3835 40.2986 21.6263 38.3924 21.6263H30.0069C28.5192 21.6263 27.0518 21.9727 25.7211 22.638C24.3904 23.3034 23.2329 24.2694 22.3403 25.4596L21.6215 26.4179" stroke="#5A4A66" stroke-width="1.5" stroke-linecap="round" stroke-linejoin="round"/>
<path d="M14.4341 43.1888H6.04865C5.09552 43.1888 4.18144 43.5674 3.50748 44.2414C2.83352 44.9153 2.4549 45.8294 2.4549 46.7825C2.4549 47.7357 2.83352 48.6497 3.50748 49.3237C4.18144 49.9977 5.09552 50.3763 6.04865 50.3763H26.4132" stroke="#5A4A66" stroke-width="1.5" stroke-linecap="round" stroke-linejoin="round"/>
<path d="M38.3924 50.3763H26.4132C25.7457 50.3765 25.0914 50.1908 24.5235 49.84C23.9556 49.4892 23.4966 48.9871 23.198 48.3901L19.1946 40.3833C18.898 39.7847 18.4395 39.2813 17.8711 38.9302C17.3028 38.5791 16.6474 38.3944 15.9794 38.3971H6.04865C5.09552 38.3971 4.18144 38.0185 3.50748 37.3445C2.83352 36.6706 2.4549 35.7565 2.4549 34.8034C2.4549 33.8502 2.83352 32.9362 3.50748 32.2622C4.18144 31.5882 5.09552 31.2096 6.04865 31.2096H15.9818C17.9858 31.2019 19.9517 31.7564 21.6564 32.8101C23.361 33.8638 24.7359 35.3744 25.625 37.1704L28.6342 43.1888H38.3924C39.3455 43.1888 40.2596 43.5674 40.9336 44.2414C41.6075 44.9153 41.9861 45.8294 41.9861 46.7825C41.9861 47.7357 41.6075 48.6497 40.9336 49.3237C40.2596 49.9977 39.3455 50.3763 38.3924 50.3763Z" stroke="#5A4A66" stroke-width="1.5" stroke-linecap="round" stroke-linejoin="round"/>
</svg>
