<svg width="60" height="60" viewBox="0 0 60 60" fill="none" xmlns="http://www.w3.org/2000/svg">
<path d="M13.9288 25.7143C20.4379 25.7143 25.7145 20.4376 25.7145 13.9285C25.7145 7.41947 20.4379 2.14282 13.9288 2.14282C7.41971 2.14282 2.14307 7.41947 2.14307 13.9285C2.14307 20.4376 7.41971 25.7143 13.9288 25.7143Z" stroke="#5A4A66" stroke-width="1.5" stroke-linecap="round" stroke-linejoin="round"/>
<path d="M46.0718 25.7143C52.5809 25.7143 57.8576 20.4376 57.8576 13.9285C57.8576 7.41947 52.5809 2.14282 46.0718 2.14282C39.5628 2.14282 34.2861 7.41947 34.2861 13.9285C34.2861 20.4376 39.5628 25.7143 46.0718 25.7143Z" stroke="#5A4A66" stroke-width="1.5" stroke-linecap="round" stroke-linejoin="round"/>
<path d="M13.9288 57.8571C20.4379 57.8571 25.7145 52.5804 25.7145 46.0714C25.7145 39.5623 20.4379 34.2856 13.9288 34.2856C7.41971 34.2856 2.14307 39.5623 2.14307 46.0714C2.14307 52.5804 7.41971 57.8571 13.9288 57.8571Z" stroke="#5A4A66" stroke-width="1.5" stroke-linecap="round" stroke-linejoin="round"/>
<path d="M46.0718 57.8571C52.5809 57.8571 57.8576 52.5804 57.8576 46.0714C57.8576 39.5623 52.5809 34.2856 46.0718 34.2856C39.5628 34.2856 34.2861 39.5623 34.2861 46.0714C34.2861 52.5804 39.5628 57.8571 46.0718 57.8571Z" stroke="#5A4A66" stroke-width="1.5" stroke-linecap="round" stroke-linejoin="round"/>
</svg>
