<svg width="21" height="21" viewBox="0 0 21 21" fill="none" xmlns="http://www.w3.org/2000/svg">
<path d="M13.1866 10.3071L9.64502 13.8487L7.82037 12.024C7.57623 11.7799 7.18073 11.7799 6.93658 12.024C6.69244 12.2682 6.69244 12.6637 6.93658 12.9078L9.20312 15.1744C9.3252 15.2964 9.48511 15.3575 9.64502 15.3575C9.80493 15.3575 9.96484 15.2964 10.0869 15.1744L14.0704 11.1909C14.3145 10.9468 14.3145 10.5513 14.0704 10.3071C13.8262 10.063 13.4307 10.063 13.1866 10.3071Z" fill="#5A4A66"/>
<path d="M16.1285 2.72498H15.191V2.125C15.191 1.77985 14.9111 1.5 14.566 1.5C14.2208 1.5 13.941 1.77985 13.941 2.125V2.72498H7.06598V2.125C7.06598 1.77985 6.78613 1.5 6.44098 1.5C6.09583 1.5 5.81598 1.77985 5.81598 2.125V2.72498H4.87848C3.15546 2.72498 1.75348 4.12695 1.75348 5.84998V15.875C1.75348 17.598 3.15546 19 4.87848 19H16.1285C17.8515 19 19.2535 17.598 19.2535 15.875V5.84998C19.2535 4.12695 17.8515 2.72498 16.1285 2.72498ZM3.00348 5.84998C3.00348 4.81604 3.84454 3.97498 4.87848 3.97498H5.81598V4.57465C5.81598 4.9198 6.09583 5.19965 6.44098 5.19965C6.78613 5.19965 7.06598 4.9198 7.06598 4.57465V3.97498H13.941V4.57465C13.941 4.9198 14.2208 5.19965 14.566 5.19965C14.9111 5.19965 15.191 4.9198 15.191 4.57465V3.97498H16.1285C17.1624 3.97498 18.0035 4.81604 18.0035 5.84998V6.48108H3.00348V5.84998ZM16.1285 17.75H4.87848C3.84454 17.75 3.00348 16.9089 3.00348 15.875V7.73108H18.0035V15.875C18.0035 16.9089 17.1624 17.75 16.1285 17.75Z" fill="#5A4A66"/>
</svg>
