<svg width="60" height="60" viewBox="0 0 60 60" fill="none" xmlns="http://www.w3.org/2000/svg">
<path d="M49.2858 21.4285C49.2858 32.1 30.0001 57.8571 30.0001 57.8571C30.0001 57.8571 10.7144 32.1 10.7144 21.4285C10.7144 16.3136 12.7462 11.4082 16.363 7.79148C19.9798 4.1747 24.8852 2.14282 30.0001 2.14282C35.115 2.14282 40.0204 4.1747 43.6371 7.79148C47.2539 11.4082 49.2858 16.3136 49.2858 21.4285V21.4285Z" stroke="#5A4A66" stroke-width="1.5" stroke-linecap="round" stroke-linejoin="round"/>
<path d="M29.9999 27.8571C33.5503 27.8571 36.4284 24.979 36.4284 21.4286C36.4284 17.8782 33.5503 15 29.9999 15C26.4495 15 23.5713 17.8782 23.5713 21.4286C23.5713 24.979 26.4495 27.8571 29.9999 27.8571Z" stroke="#5A4A66" stroke-width="1.5" stroke-linecap="round" stroke-linejoin="round"/>
</svg>
