<svg width="60" height="60" viewBox="0 0 60 60" fill="none" xmlns="http://www.w3.org/2000/svg">
<path d="M40.4396 7.04016H46.7016C47.8089 7.04016 48.8706 7.48001 49.6536 8.26291C50.4366 9.04584 50.8764 10.1077 50.8764 11.2149V52.9623C50.8764 54.0695 50.4366 55.1313 49.6536 55.9143C48.8706 56.6973 47.8089 57.137 46.7016 57.137H13.3037C12.1965 57.137 11.1346 56.6973 10.3517 55.9143C9.56879 55.1313 9.12894 54.0695 9.12894 52.9623V11.2149C9.12894 10.1077 9.56879 9.04584 10.3517 8.26291C11.1346 7.48001 12.1965 7.04016 13.3037 7.04016H19.5658" stroke="#5A4A66" stroke-width="1.5" stroke-linecap="round" stroke-linejoin="round"/>
<path d="M36.2645 2.8656H23.7403C21.4346 2.8656 19.5655 4.7347 19.5655 7.04035V9.12773C19.5655 11.4334 21.4346 13.3025 23.7403 13.3025H36.2645C38.5702 13.3025 40.4392 11.4334 40.4392 9.12773V7.04035C40.4392 4.7347 38.5702 2.8656 36.2645 2.8656Z" stroke="#5A4A66" stroke-width="1.5" stroke-linecap="round" stroke-linejoin="round"/>
<path d="M34.2376 23.6911H25.7676V30.8845H18.5742V39.3545H25.7676V46.5477H34.2376V39.3545H41.4309V30.8845H34.2376V23.6911Z" stroke="#5A4A66" stroke-width="1.5" stroke-linecap="round" stroke-linejoin="round"/>
</svg>
