<svg width="120" height="121" viewBox="0 0 120 121" fill="none" xmlns="http://www.w3.org/2000/svg">
<path d="M61.1896 9.3373L61.916 0L63.8019 0.146722L63.2109 7.74317L67.9455 8.11151L67.8101 9.85237L61.1896 9.3373Z" fill="#5A4A66"/>
<path d="M69.003 10.1137L71.209 1.01172L77.7655 2.60074L77.3511 4.31058L72.633 3.16711L72.1345 5.22406L76.1841 6.20552L75.7853 7.85108L71.7357 6.86963L71.2527 8.8623L75.9709 10.0058L75.5596 11.7028L69.003 10.1137Z" fill="#5A4A66"/>
<path d="M76.2179 11.8505L83.3449 4.76181L85.2805 5.61784L84.7953 15.6438L82.9322 14.8198L83.0473 13.1206L79.2607 11.446L78.081 12.6744L76.2179 11.8505ZM80.5074 10.1314L83.1931 11.3192L83.4995 7.02871L80.5074 10.1314Z" fill="#5A4A66"/>
<path d="M85.7662 16.3545L91.0547 8.625L94.1661 10.7539C94.5519 11.0178 94.892 11.3093 95.1866 11.6284C95.4934 11.9452 95.7265 12.2916 95.8859 12.6678C96.0452 13.044 96.0929 13.4506 96.029 13.8877C95.9773 14.3225 95.7796 14.7909 95.436 15.2931C95.182 15.6643 94.8911 15.9568 94.5632 16.1705C94.2353 16.3843 93.879 16.5145 93.4945 16.5613C93.1099 16.608 92.7103 16.5751 92.2959 16.4624L91.9781 20.6047L90.2204 19.4021L90.5738 15.6529L89.1873 14.7042L87.3273 17.4226L85.7662 16.3545ZM90.1359 13.3177L91.577 14.3037C91.8026 14.4581 92.0189 14.5793 92.2257 14.6674C92.4449 14.7532 92.6498 14.7973 92.8406 14.7996C93.0386 14.8068 93.2238 14.7626 93.3962 14.6668C93.5758 14.5761 93.7379 14.4251 93.8823 14.2141C94.0738 13.9497 94.1575 13.7025 94.1334 13.4723C94.1215 13.2397 94.0263 13.0197 93.8478 12.812C93.6816 12.6021 93.4529 12.3976 93.1617 12.1984L91.6224 11.1452L90.1359 13.3177Z" fill="#5A4A66"/>
<path d="M93.0967 21.5718L99.7578 14.9883L101.115 16.3619L99.6495 23.8925L104.156 19.4384L105.486 20.7838L98.8247 27.3673L97.5043 26.0313L98.886 18.5096L94.4264 22.9172L93.0967 21.5718Z" fill="#5A4A66"/>
<path d="M102.64 32.4073L110.967 28.1211L112.117 30.3558L109.239 34.6492L114.393 34.7781L115.501 36.9305L107.174 41.2167L106.308 39.5348L112.389 36.4049L106.95 36.2142L106.599 35.532L109.586 30.9593L103.505 34.0892L102.64 32.4073Z" fill="#5A4A66"/>
<path d="M108.9 47.7241C108.667 46.7914 108.663 45.938 108.888 45.1638C109.115 44.3982 109.53 43.7492 110.134 43.2169C110.748 42.691 111.508 42.3149 112.415 42.0885C113.339 41.8579 114.197 41.8347 114.988 42.019C115.782 42.2118 116.455 42.5981 117.009 43.178C117.571 43.7557 117.969 44.5109 118.202 45.4435C118.432 46.3676 118.438 47.2114 118.22 47.9749C118.001 48.7384 117.591 49.3863 116.987 49.9186C116.386 50.4595 115.623 50.8452 114.699 51.0759C113.792 51.3022 112.938 51.3201 112.136 51.1294C111.344 50.9451 110.663 50.5652 110.093 49.9896C109.532 49.4204 109.135 48.6653 108.9 47.7241ZM110.626 47.3205C110.78 47.9366 111.046 48.4019 111.424 48.7164C111.803 49.031 112.236 49.2183 112.724 49.2784C113.213 49.3471 113.702 49.3205 114.19 49.1988C114.549 49.1091 114.891 48.9692 115.217 48.7789C115.544 48.5973 115.823 48.3685 116.054 48.0927C116.285 47.8169 116.441 47.4918 116.52 47.1176C116.608 46.7412 116.593 46.3177 116.475 45.8471C116.324 45.2396 116.059 44.7785 115.68 44.464C115.31 44.1473 114.88 43.9503 114.388 43.8731C113.898 43.8045 113.401 43.8332 112.896 43.9591C112.391 44.0851 111.939 44.2935 111.538 44.5842C111.14 44.8835 110.848 45.2609 110.662 45.7164C110.487 46.1783 110.475 46.713 110.626 47.3205Z" fill="#5A4A66"/>
<path d="M110.262 54.0456L119.615 53.5664L119.808 57.3315C119.832 57.7983 119.806 58.2455 119.731 58.6732C119.665 59.1093 119.531 59.5047 119.328 59.8595C119.126 60.2142 118.831 60.4986 118.445 60.7127C118.068 60.9351 117.575 61.0619 116.968 61.093C116.518 61.1161 116.11 61.0619 115.741 60.9307C115.372 60.7995 115.052 60.5951 114.782 60.3176C114.512 60.04 114.296 59.7023 114.134 59.3044L110.647 61.5626L110.538 59.4356L113.734 57.444L113.648 55.7662L110.359 55.9348L110.262 54.0456ZM115.326 55.6803L115.415 57.4241C115.429 57.6971 115.464 57.9426 115.519 58.1605C115.584 58.3868 115.673 58.5765 115.787 58.7296C115.901 58.8915 116.049 59.012 116.229 59.0911C116.41 59.1789 116.629 59.2163 116.884 59.2032C117.21 59.1953 117.458 59.112 117.626 58.9533C117.804 58.8029 117.921 58.5938 117.978 58.3259C118.044 58.0665 118.068 57.7606 118.05 57.4083L117.955 55.5456L115.326 55.6803Z" fill="#5A4A66"/>
<path d="M110.489 63.0661L119.787 64.1836L118.982 70.8817L117.235 70.6718L117.815 65.8518L115.713 65.5992L115.216 69.7363L113.535 69.5343L114.032 65.3972L111.996 65.1525L111.417 69.9726L109.684 69.7642L110.489 63.0661Z" fill="#5A4A66"/>
<path d="M112.663 78.3208L113.98 77.4829L114.556 78.6703L115.271 77.5567L116.48 78.5354L115.528 79.4576L116.807 79.782L116.239 81.2502L115.075 80.6296L115.163 81.9404L113.605 81.8623L113.826 80.5578L112.605 81.036L112.195 79.5299L113.498 79.3529L112.663 78.3208Z" fill="#5A4A66"/>
<path d="M102.894 86.746L110.553 92.1367L109.464 93.6836L103.233 89.2979L100.5 93.1812L99.072 92.1761L102.894 86.746Z" fill="#5A4A66"/>
<path d="M98.2214 93.0855L104.926 99.625L100.215 104.454L98.9557 103.226L102.346 99.7507L100.83 98.2728L97.9209 101.256L96.7088 100.073L99.6183 97.0905L98.1506 95.6589L94.7608 99.1342L93.5108 97.9149L98.2214 93.0855Z" fill="#5A4A66"/>
<path d="M93.0445 98.4081L95.5274 108.149L93.8064 109.381L85.4184 103.867L87.0749 102.682L88.4798 103.644L91.8465 101.234L91.3881 99.5939L93.0445 98.4081ZM92.345 102.976L89.9572 104.685L93.4965 107.13L92.345 102.976Z" fill="#5A4A66"/>
<path d="M84.32 104.346L88.291 112.828L84.8767 114.427C84.4534 114.625 84.0295 114.77 83.605 114.861C83.1762 114.965 82.7594 114.989 82.3544 114.936C81.9494 114.882 81.575 114.716 81.231 114.439C80.8828 114.174 80.5797 113.765 80.3217 113.214C80.131 112.807 80.0268 112.408 80.0093 112.017C79.9918 111.626 80.0606 111.253 80.2157 110.898C80.3708 110.543 80.6022 110.215 80.9097 109.916L77.5033 107.538L79.4321 106.635L82.4819 108.844L84.0034 108.131L82.6068 105.148L84.32 104.346ZM84.7157 109.653L83.1343 110.393C82.8868 110.509 82.6725 110.634 82.4915 110.767C82.3063 110.912 82.1642 111.066 82.0653 111.23C81.9585 111.396 81.9025 111.578 81.8974 111.776C81.8843 111.976 81.932 112.193 82.0404 112.424C82.1708 112.724 82.3413 112.921 82.5518 113.017C82.7581 113.125 82.996 113.155 83.2656 113.107C83.5308 113.07 83.8232 112.977 84.1427 112.828L85.8319 112.037L84.7157 109.653Z" fill="#5A4A66"/>
<path d="M76.1039 108.007L78.3711 117.094L76.4972 117.561L70.7664 112.461L72.3003 118.608L70.4649 119.066L68.1977 109.979L70.0203 109.525L75.7864 114.548L74.2685 108.465L76.1039 108.007Z" fill="#5A4A66"/>
<path d="M61.8418 110.679L61.2773 120.027L58.7686 119.876L56.5457 115.209L53.8038 119.576L51.3875 119.43L51.9519 110.082L53.8401 110.196L53.4279 117.022L56.3682 112.442L57.134 112.488L59.5414 117.391L59.9536 110.565L61.8418 110.679Z" fill="#5A4A66"/>
<path d="M45.482 108.257C46.4031 108.531 47.1395 108.963 47.6911 109.551C48.2343 110.136 48.5813 110.824 48.732 111.614C48.8717 112.411 48.808 113.257 48.5407 114.153C48.2685 115.065 47.8515 115.815 47.2898 116.402C46.7197 116.987 46.0441 117.369 45.2631 117.551C44.4795 117.74 43.6271 117.698 42.706 117.423C41.7933 117.15 41.0641 116.726 40.5184 116.149C39.9727 115.572 39.6245 114.888 39.4738 114.098C39.3146 113.305 39.3712 112.452 39.6435 111.54C39.9107 110.644 40.3307 109.899 40.9033 109.306C41.465 108.719 42.1388 108.327 42.9249 108.129C43.7001 107.937 44.5524 107.979 45.482 108.257ZM44.9499 109.948C44.3414 109.766 43.8055 109.758 43.342 109.924C42.8785 110.089 42.4967 110.366 42.1966 110.755C41.888 111.142 41.6619 111.576 41.5182 112.057C41.4123 112.412 41.3584 112.778 41.3564 113.155C41.346 113.529 41.4006 113.886 41.5202 114.225C41.6399 114.565 41.8405 114.864 42.1222 115.123C42.4013 115.39 42.7733 115.593 43.2381 115.732C43.8381 115.911 44.3698 115.918 44.8333 115.752C45.2943 115.595 45.6833 115.325 46.0003 114.941C46.3088 114.554 46.5375 114.112 46.6863 113.613C46.835 113.114 46.8862 112.619 46.8398 112.127C46.785 111.632 46.6091 111.188 46.312 110.796C46.0039 110.409 45.5499 110.127 44.9499 109.948Z" fill="#5A4A66"/>
<path d="M39.337 106.205L34.9746 114.492L31.6385 112.736C31.225 112.518 30.8535 112.268 30.5241 111.985C30.1828 111.706 29.9113 111.388 29.7096 111.033C29.508 110.678 29.4137 110.279 29.4269 109.838C29.4282 109.4 29.5705 108.912 29.8539 108.373C30.0634 107.975 30.3187 107.651 30.6198 107.401C30.9209 107.151 31.2597 106.981 31.6364 106.89C32.013 106.799 32.4137 106.786 32.8384 106.85L32.6766 102.699L34.5612 103.691L34.6423 107.456L36.1289 108.238L37.6631 105.324L39.337 106.205ZM35.3464 109.725L33.8012 108.912C33.5593 108.784 33.3306 108.689 33.1149 108.625C32.8874 108.565 32.6787 108.545 32.489 108.565C32.2914 108.58 32.1125 108.645 31.9523 108.76C31.7844 108.871 31.6408 109.04 31.5217 109.266C31.3619 109.551 31.3072 109.806 31.3577 110.032C31.3963 110.262 31.5163 110.469 31.7175 110.655C31.9069 110.844 32.1576 111.021 32.4697 111.185L34.1202 112.054L35.3464 109.725Z" fill="#5A4A66"/>
<path d="M31.5477 101.844L25.8398 109.27L20.4912 105.158L21.5634 103.763L25.4124 106.722L26.7023 105.044L23.3987 102.504L24.4306 101.162L27.7342 103.701L28.9838 102.076L25.1348 99.1171L26.199 97.7328L31.5477 101.844Z" fill="#5A4A66"/>
<path d="M17.3092 95.9301L17.3611 97.4902L16.0458 97.3826L16.6414 98.564L15.1835 99.1082L14.8736 97.8192L13.9441 98.7552L12.9687 97.5197L14.095 96.8328L12.9212 96.2426L13.7808 94.9405L14.7917 95.794L15.0005 94.5L16.5059 94.9126L15.9961 96.1241L17.3092 95.9301Z" fill="#5A4A66"/>
<path d="M16.955 86.6399L8.74609 91.1484L7.83548 89.4904L14.5139 85.8225L12.2278 81.6601L13.7583 80.8195L16.955 86.6399Z" fill="#5A4A66"/>
<path d="M13.318 79.6558L4.49219 82.7891L2.23517 76.4315L3.89313 75.8429L5.5173 80.4178L7.51184 79.7098L6.1178 75.783L7.71343 75.2165L9.10747 79.1433L11.0397 78.4573L9.41552 73.8824L11.061 73.2982L13.318 79.6558Z" fill="#5A4A66"/>
<path d="M10.8222 72.6605L0.98938 70.5729L0.646947 68.4843L9.30479 63.4053L9.63439 65.4156L8.14904 66.249L8.81893 70.3348L10.4926 70.6502L10.8222 72.6605ZM7.03653 70.0104L6.5614 67.1125L2.80235 69.2033L7.03653 70.0104Z" fill="#5A4A66"/>
<path d="M9.36359 62.1547L0 61.9648L0.0764169 58.1956C0.0858908 57.7283 0.143411 57.284 0.248977 56.8628C0.345905 56.4325 0.508067 56.0477 0.735462 55.7083C0.962857 55.3689 1.2769 55.1063 1.6776 54.9203C2.06965 54.7254 2.56987 54.6341 3.17824 54.6465C3.6279 54.6556 4.03196 54.7387 4.39042 54.896C4.74887 55.0532 5.053 55.2799 5.30279 55.576C5.55258 55.8721 5.7439 56.2244 5.87675 56.6329L9.51616 54.6294L9.47299 56.7587L6.14286 58.5171L6.10881 60.1967L9.40194 60.2634L9.36359 62.1547ZM4.42918 60.1626L4.46457 58.4169C4.47011 58.1435 4.45308 57.8962 4.41346 57.6749C4.36521 57.4446 4.28979 57.249 4.1872 57.0882C4.08479 56.9185 3.94632 56.7878 3.77176 56.696C3.59739 56.5955 3.38236 56.5426 3.12667 56.5374C2.80062 56.522 2.54791 56.5874 2.36853 56.7338C2.18051 56.8711 2.04856 57.0713 1.97266 57.3343C1.88812 57.5884 1.84228 57.8918 1.83513 58.2445L1.79732 60.1093L4.42918 60.1626Z" fill="#5A4A66"/>
<path d="M9.70738 53.1742L0.550781 51.207L0.956436 49.3188L8.05992 46.4206L1.86499 45.0897L2.26231 43.2403L11.4189 45.2074L11.0244 47.0439L3.97443 50.0078L10.1047 51.3248L9.70738 53.1742Z" fill="#5A4A66"/>
<path d="M13.5723 39.2342L5.43945 34.5898L6.68582 32.4073L11.8542 32.4797L9.15232 28.0882L10.3528 25.986L18.4856 30.6304L17.5475 32.2731L11.6087 28.8816L14.4141 33.5455L14.0336 34.2117L8.57153 34.2001L14.5103 37.5916L13.5723 39.2342Z" fill="#5A4A66"/>
<path d="M22.9831 25.6386C22.3298 26.3437 21.6176 26.8139 20.8465 27.0492C20.0814 27.2781 19.311 27.2856 18.5353 27.0718C17.7591 26.8455 17.0282 26.4147 16.3425 25.7793C15.6439 25.132 15.1552 24.4267 14.8765 23.6635C14.6039 22.8939 14.5587 22.1187 14.7411 21.3379C14.9171 20.5512 15.3318 19.8053 15.9851 19.1002C16.6324 18.4015 17.3354 17.9348 18.094 17.7C18.8526 17.4652 19.6198 17.4547 20.3955 17.6685C21.1772 17.8758 21.9174 18.3032 22.616 18.9505C23.3017 19.5859 23.7841 20.2914 24.0632 21.067C24.3419 21.8302 24.3965 22.6082 24.227 23.4009C24.0571 24.1812 23.6424 24.9271 22.9831 25.6386ZM21.7009 24.4145C22.1324 23.9487 22.3763 23.4714 22.4326 22.9825C22.4889 22.4936 22.4087 22.0287 22.1922 21.5876C21.9818 21.1401 21.6921 20.7455 21.3234 20.4038C21.0517 20.1521 20.7473 19.9422 20.4102 19.774C20.079 19.5994 19.7348 19.4909 19.3775 19.4483C19.0202 19.4058 18.6632 19.4537 18.3065 19.5921C17.9434 19.7245 17.597 19.9686 17.2673 20.3243C16.8417 20.7836 16.6008 21.2577 16.5446 21.7466C16.4818 22.2295 16.5527 22.6979 16.7572 23.1519C16.9677 23.5994 17.2638 24 17.6455 24.3537C18.0271 24.7073 18.4491 24.972 18.9113 25.1479C19.3795 25.3173 19.8553 25.3553 20.3384 25.262C20.8212 25.1563 21.2753 24.8737 21.7009 24.4145Z" fill="#5A4A66"/>
<path d="M27.5367 21.0271L22.0117 13.4648L25.0558 11.2408C25.4332 10.9651 25.8214 10.7415 26.2205 10.5701C26.6214 10.3864 27.0258 10.2821 27.4335 10.2572C27.8413 10.2323 28.2406 10.3229 28.6313 10.5289C29.024 10.7225 29.3998 11.065 29.7588 11.5564C30.0241 11.9195 30.2029 12.2913 30.2952 12.6717C30.3874 13.0521 30.3915 13.4314 30.3074 13.8095C30.2233 14.1877 30.0591 14.5534 29.8147 14.9067L33.6143 16.5868L31.8946 17.8432L28.4775 16.2605L27.121 17.2515L29.0641 19.9111L27.5367 21.0271ZM26.1299 15.895L27.5398 14.865C27.7606 14.7037 27.947 14.5402 28.099 14.3745C28.2529 14.1966 28.3627 14.018 28.4285 13.8389C28.5013 13.6546 28.5213 13.4653 28.4885 13.2708C28.4628 13.0712 28.3745 12.8681 28.2236 12.6616C28.0382 12.3929 27.833 12.2316 27.6079 12.1776C27.3847 12.1113 27.1455 12.1278 26.8903 12.2269C26.6369 12.3136 26.3679 12.4611 26.083 12.6692L24.577 13.7695L26.1299 15.895Z" fill="#5A4A66"/>
<path d="M34.88 15.9469L30.7227 7.55469L36.7679 4.55997L37.5489 6.13647L33.1987 8.29149L34.1382 10.188L37.872 8.33836L38.6236 9.8556L34.8898 11.7053L35.8 13.5426L40.1502 11.3875L40.9253 12.9522L34.88 15.9469Z" fill="#5A4A66"/>
<path d="M49.7047 5.54513L48.2704 4.92923L48.9267 3.7843L47.6041 3.8215L47.7309 2.27047L49.0295 2.53772L48.5771 1.29856L50.11 0.940549L50.2532 2.25192L51.2862 1.44013L52.0998 2.77155L50.8976 3.32401L51.9802 4.06279L50.9671 5.2503L50.087 4.27401L49.7047 5.54513Z" fill="#5A4A66"/>
<circle cx="60.0013" cy="60.015" r="30.0072" fill="#F8E6D8"/>
<path d="M59.8395 82.7845C72.5451 82.7845 82.845 72.4846 82.845 59.779C82.845 47.0734 72.5451 36.7734 59.8395 36.7734C47.1339 36.7734 36.834 47.0734 36.834 59.779C36.834 72.4846 47.1339 82.7845 59.8395 82.7845Z" fill="white"/>
<path d="M82.8467 59.7762C82.8467 69.3457 77.0024 77.5508 68.693 81.0148C67.4556 77.3939 66.7832 73.5119 66.7832 69.4731C66.7832 59.7336 70.6848 50.9086 77.0187 44.4766C80.6429 48.5415 82.8467 53.899 82.8467 59.7762Z" fill="#5A4A66"/>
<path d="M52.8964 69.4731C52.8964 73.5119 52.2237 77.3939 50.9863 81.0148C42.6769 77.5474 36.8359 69.3457 36.8359 59.7762C36.8359 53.8994 39.0364 48.5415 42.664 44.4766C48.9948 50.9086 52.8964 59.7336 52.8964 69.4731Z" fill="#5A4A66"/>
<path d="M64.2031 45.8423C64.5959 43.4315 62.96 41.1588 60.5492 40.766C58.1384 40.3733 55.8656 42.0092 55.4729 44.42C55.0801 46.8308 56.7161 49.1036 59.1269 49.4963C61.5377 49.8891 63.8104 48.2531 64.2031 45.8423Z" fill="#5A4A66"/>
<path d="M59.8398 60.7968C61.8289 60.7968 63.4413 59.1843 63.4413 57.1953C63.4413 55.2062 61.8289 53.5938 59.8398 53.5938C57.8507 53.5938 56.2383 55.2062 56.2383 57.1953C56.2383 59.1843 57.8507 60.7968 59.8398 60.7968Z" fill="#5A4A66"/>
<path d="M61.7768 69.6116C62.8807 68.5441 62.9102 66.7838 61.8427 65.6798C60.7752 64.5759 59.0149 64.5464 57.9109 65.6139C56.807 66.6815 56.7775 68.4418 57.845 69.5457C58.9126 70.6496 60.6729 70.6791 61.7768 69.6116Z" fill="#5A4A66"/>
<path d="M59.8374 78.3506C60.919 78.3506 61.7959 77.4737 61.7959 76.3921C61.7959 75.3104 60.919 74.4336 59.8374 74.4336C58.7558 74.4336 57.8789 75.3104 57.8789 76.3921C57.8789 77.4737 58.7558 78.3506 59.8374 78.3506Z" fill="#5A4A66"/>
</svg>
