<svg width="142" height="46" viewBox="0 0 142 46" fill="none" xmlns="http://www.w3.org/2000/svg">
<path d="M23.1006 46C35.8031 46 46.1006 35.7026 46.1006 23C46.1006 10.2975 35.8031 0 23.1006 0C10.398 0 0.100586 10.2975 0.100586 23C0.100586 35.7026 10.398 46 23.1006 46Z" fill="white"/>
<path d="M46.0975 22.9994C46.1919 32.6444 39.9961 41.0157 31.9141 44.2461C30.6769 40.6261 30.0378 36.7318 30.0378 32.6939C30.0378 22.9567 33.9385 14.1339 40.2708 7.70337C43.8282 11.6195 46.1995 16.9757 46.0975 22.9994Z" fill="#5A4A66"/>
<path d="M0.0410252 22.9994C-0.0533943 32.6444 6.16011 40.9962 14.2422 44.2266C15.4793 40.6066 16.1007 36.7318 16.1007 32.6939C16.1007 22.9567 12.2386 14.1532 5.90625 7.72266C2.34885 11.6388 -0.0609131 16.9757 0.0410252 22.9994Z" fill="#5A4A66"/>
<path d="M27.4602 9.06546C27.8528 6.65524 26.2173 4.38305 23.8071 3.99038C21.3968 3.59771 19.1247 5.23326 18.732 7.64348C18.3393 10.0537 19.9749 12.3259 22.3851 12.7186C24.7953 13.1112 27.0675 11.4757 27.4602 9.06546Z" fill="#5A4A66"/>
<path d="M23.0972 24.015C25.0858 24.015 26.6979 22.403 26.6979 20.4144C26.6979 18.4258 25.0858 16.8137 23.0972 16.8137C21.1087 16.8137 19.4966 18.4258 19.4966 20.4144C19.4966 22.403 21.1087 24.015 23.0972 24.015Z" fill="#5A4A66"/>
<path d="M25.034 32.8289C26.1376 31.7616 26.1671 30.0017 25.0998 28.8981C24.0326 27.7944 22.2727 27.7649 21.169 28.8322C20.0653 29.8994 20.0359 31.6593 21.1031 32.763C22.1704 33.8667 23.9303 33.8962 25.034 32.8289Z" fill="#5A4A66"/>
<path d="M23.0973 41.563C24.1789 41.563 25.0558 40.6861 25.0558 39.6045C25.0558 38.5228 24.1789 37.646 23.0973 37.646C22.0156 37.646 21.1388 38.5228 21.1388 39.6045C21.1388 40.6861 22.0156 41.563 23.0973 41.563Z" fill="#5A4A66"/>
<path d="M60.0955 32.9414C60.1541 32.7363 60.2078 32.4824 60.2566 32.1797C60.3152 31.877 60.364 31.501 60.4031 31.0518C60.4421 30.6025 60.4714 30.0703 60.491 29.4551C60.5105 28.8301 60.5203 28.1025 60.5203 27.2725V17.7363C60.5203 16.9062 60.5105 16.1836 60.491 15.5684C60.4714 14.9434 60.4421 14.4063 60.4031 13.957C60.364 13.498 60.3152 13.1172 60.2566 12.8145C60.2078 12.5117 60.1541 12.2578 60.0955 12.0527V11.9941H63.6111V12.0527C63.5525 12.2578 63.4939 12.5117 63.4353 12.8145C63.3865 13.1172 63.3425 13.498 63.3035 13.957C63.2742 14.4063 63.2449 14.9434 63.2156 15.5684C63.196 16.1836 63.1863 16.9062 63.1863 17.7363V21.0029L71.741 14.0156C72.698 13.2344 73.1765 12.5605 73.1765 11.9941H77.2927V12.0527C76.7166 12.1895 76.1306 12.4531 75.5349 12.8438C74.949 13.2246 74.324 13.6934 73.6599 14.25L66.1013 20.5781L75.198 30.5684C75.5789 30.959 75.9011 31.2861 76.1648 31.5498C76.4382 31.8037 76.6775 32.0186 76.8826 32.1943C77.0876 32.3604 77.2732 32.502 77.4392 32.6191C77.615 32.7266 77.7957 32.834 77.9812 32.9414V33H73.6892C73.6501 32.9121 73.5818 32.7998 73.4841 32.6631C73.3962 32.5264 73.2888 32.3848 73.1619 32.2383C73.0447 32.0918 72.9128 31.9404 72.7664 31.7842C72.6296 31.6279 72.4978 31.4814 72.3708 31.3447L63.1863 21.2666V27.2725C63.1863 28.1025 63.196 28.8301 63.2156 29.4551C63.2449 30.0703 63.2742 30.6025 63.3035 31.0518C63.3425 31.501 63.3865 31.877 63.4353 32.1797C63.4939 32.4824 63.5525 32.7363 63.6111 32.9414V33H60.0955V32.9414ZM79.739 23.7275C79.739 22.8975 79.7244 22.1748 79.6951 21.5596C79.6755 20.9346 79.6462 20.3975 79.6072 19.9482C79.5779 19.499 79.5339 19.123 79.4753 18.8203C79.4265 18.5176 79.3728 18.2637 79.3142 18.0586V18H82.698V18.0586C82.6394 18.2637 82.5857 18.5176 82.5369 18.8203C82.488 19.123 82.4441 19.499 82.405 19.9482C82.366 20.3975 82.3367 20.9346 82.3171 21.5596C82.2976 22.1748 82.2878 22.8975 82.2878 23.7275V27.2725C82.2878 28.1025 82.2976 28.8301 82.3171 29.4551C82.3367 30.0703 82.366 30.6025 82.405 31.0518C82.4441 31.501 82.488 31.877 82.5369 32.1797C82.5857 32.4824 82.6394 32.7363 82.698 32.9414V33H79.3142V32.9414C79.3728 32.7363 79.4265 32.4824 79.4753 32.1797C79.5339 31.877 79.5779 31.501 79.6072 31.0518C79.6462 30.6025 79.6755 30.0703 79.6951 29.4551C79.7244 28.8301 79.739 28.1025 79.739 27.2725V23.7275ZM79.4314 13.5615C79.4314 13.3467 79.4705 13.1465 79.5486 12.9609C79.6365 12.7656 79.7488 12.5996 79.8855 12.4629C80.0222 12.3164 80.1833 12.2041 80.3689 12.126C80.5642 12.0381 80.7742 11.9941 80.9988 11.9941C81.2234 11.9941 81.4285 12.0381 81.614 12.126C81.8093 12.2041 81.9753 12.3164 82.1121 12.4629C82.2585 12.5996 82.3708 12.7656 82.449 12.9609C82.5369 13.1465 82.5808 13.3467 82.5808 13.5615C82.5808 14.0107 82.4294 14.3867 82.1267 14.6895C81.824 14.9922 81.448 15.1436 80.9988 15.1436C80.7742 15.1436 80.5642 15.1045 80.3689 15.0264C80.1833 14.9385 80.0222 14.8262 79.8855 14.6895C79.7488 14.543 79.6365 14.377 79.5486 14.1914C79.4705 13.9961 79.4314 13.7861 79.4314 13.5615ZM96.9656 23.127C96.9656 21.8379 96.7068 20.8906 96.1892 20.2852C95.6716 19.6797 94.9783 19.377 94.1091 19.377C93.7966 19.377 93.4451 19.4453 93.0544 19.582C92.6638 19.709 92.2634 19.8848 91.8533 20.1094C91.4431 20.3242 91.033 20.5781 90.6228 20.8711C90.2126 21.1641 89.8269 21.4766 89.4656 21.8086L89.4363 23.7275V27.2725C89.4363 28.1025 89.446 28.8301 89.4656 29.4551C89.4851 30.0703 89.5144 30.6025 89.5535 31.0518C89.5925 31.501 89.6365 31.877 89.6853 32.1797C89.7341 32.4824 89.7878 32.7363 89.8464 32.9414V33H86.4626V32.9414C86.5212 32.7363 86.575 32.4824 86.6238 32.1797C86.6824 31.877 86.7263 31.501 86.7556 31.0518C86.7947 30.6025 86.824 30.0703 86.8435 29.4551C86.8728 28.8301 86.8875 28.1025 86.8875 27.2725V23.7275C86.8875 22.8975 86.8728 22.1748 86.8435 21.5596C86.824 20.9346 86.7947 20.3975 86.7556 19.9482C86.7263 19.499 86.6824 19.123 86.6238 18.8203C86.575 18.5176 86.5212 18.2637 86.4626 18.0586V18H89.8464V18.0586C89.7683 18.3027 89.7048 18.6152 89.656 18.9961C89.6169 19.3672 89.573 19.8555 89.5242 20.4609C89.9246 20.1289 90.3542 19.7969 90.8132 19.4648C91.282 19.1328 91.7654 18.8398 92.2634 18.5859C92.7615 18.3223 93.2693 18.1123 93.7869 17.9561C94.3044 17.79 94.8123 17.707 95.3103 17.707C96.072 17.707 96.7166 17.8389 97.2439 18.1025C97.781 18.3662 98.2156 18.7129 98.5476 19.1426C98.8894 19.5723 99.1335 20.0654 99.28 20.6221C99.4363 21.1689 99.5144 21.7256 99.5144 22.292V27.2725C99.5144 28.1025 99.5242 28.8301 99.5437 29.4551C99.5632 30.0703 99.5925 30.6025 99.6316 31.0518C99.6707 31.501 99.7146 31.877 99.7634 32.1797C99.8123 32.4824 99.866 32.7363 99.9246 32.9414V33H96.5408V32.9414C96.5994 32.7363 96.6531 32.4824 96.7019 32.1797C96.7605 31.877 96.8044 31.501 96.8337 31.0518C96.8728 30.6025 96.9021 30.0703 96.9216 29.4551C96.9509 28.8301 96.9656 28.1025 96.9656 27.2725V23.127ZM110.501 33.2637C109.417 33.2637 108.401 33.0928 107.454 32.751C106.507 32.4092 105.681 31.9111 104.978 31.2568C104.275 30.5928 103.719 29.7773 103.308 28.8105C102.908 27.834 102.708 26.7207 102.708 25.4707C102.708 24.3672 102.893 23.3467 103.264 22.4092C103.635 21.4619 104.148 20.6416 104.802 19.9482C105.457 19.2549 106.219 18.7129 107.088 18.3223C107.967 17.9316 108.914 17.7363 109.929 17.7363C110.935 17.7363 111.868 17.9121 112.727 18.2637C113.587 18.6055 114.329 19.1084 114.954 19.7725C115.589 20.4268 116.087 21.2422 116.448 22.2188C116.819 23.1855 117.019 24.2891 117.049 25.5293C115.945 25.5098 114.842 25.4951 113.738 25.4854C112.635 25.4756 111.487 25.4707 110.296 25.4707C109.446 25.4707 108.616 25.4756 107.805 25.4854C107.005 25.4951 106.282 25.5098 105.637 25.5293C105.696 26.5449 105.852 27.4629 106.106 28.2832C106.37 29.1035 106.726 29.8066 107.176 30.3926C107.635 30.9688 108.186 31.4131 108.831 31.7256C109.485 32.0381 110.222 32.1943 111.043 32.1943C111.609 32.1943 112.141 32.1309 112.639 32.0039C113.147 31.8672 113.606 31.6816 114.016 31.4473C114.427 31.2129 114.793 30.9395 115.115 30.627C115.437 30.3047 115.711 29.958 115.935 29.5869L116.111 29.6748L115.027 32.2822C114.5 32.5557 113.87 32.79 113.137 32.9854C112.405 33.1709 111.526 33.2637 110.501 33.2637ZM108.552 24.3281C109.529 24.3281 110.506 24.3281 111.482 24.3281C112.469 24.3184 113.362 24.2988 114.163 24.2695C114.075 23.4199 113.909 22.6582 113.665 21.9844C113.421 21.3105 113.108 20.7393 112.727 20.2705C112.346 19.8018 111.897 19.4404 111.38 19.1865C110.862 18.9326 110.291 18.8057 109.666 18.8057C109.099 18.8057 108.577 18.9326 108.098 19.1865C107.63 19.4307 107.219 19.7871 106.868 20.2559C106.516 20.7246 106.233 21.3008 106.018 21.9844C105.803 22.6582 105.677 23.4297 105.637 24.2988C106.077 24.3184 106.541 24.3281 107.029 24.3281C107.517 24.3281 108.025 24.3281 108.552 24.3281ZM126.819 20.9443L126.614 20.9736C126.546 20.749 126.433 20.5098 126.277 20.2559C126.131 20.002 125.935 19.7676 125.691 19.5527C125.457 19.3379 125.169 19.1621 124.827 19.0254C124.495 18.8789 124.109 18.8057 123.67 18.8057C123.367 18.8057 123.079 18.8496 122.805 18.9375C122.542 19.0254 122.307 19.1572 122.102 19.333C121.907 19.499 121.751 19.709 121.634 19.9629C121.516 20.2168 121.458 20.5146 121.458 20.8564C121.458 21.335 121.604 21.7939 121.897 22.2334C122.2 22.6631 122.576 23.0928 123.025 23.5225C123.474 23.9424 123.958 24.3672 124.475 24.7969C125.003 25.2266 125.491 25.6758 125.94 26.1445C126.389 26.6133 126.76 27.1162 127.053 27.6533C127.356 28.1807 127.508 28.752 127.508 29.3672C127.508 29.8652 127.42 30.3535 127.244 30.832C127.068 31.3008 126.795 31.7207 126.424 32.0918C126.062 32.4629 125.594 32.7656 125.017 33C124.451 33.2246 123.772 33.3369 122.981 33.3369C122.512 33.3369 122.073 33.293 121.663 33.2051C121.262 33.1172 120.891 33.0098 120.55 32.8828C120.218 32.7461 119.915 32.5996 119.641 32.4434C119.378 32.2773 119.143 32.1211 118.938 31.9746L119.085 29.1914H119.319C119.417 29.6504 119.563 30.0703 119.759 30.4512C119.954 30.832 120.193 31.1592 120.476 31.4326C120.769 31.6963 121.101 31.9062 121.472 32.0625C121.844 32.209 122.249 32.2822 122.688 32.2822C123.411 32.2822 123.982 32.082 124.402 31.6816C124.832 31.2812 125.047 30.7588 125.047 30.1143C125.047 29.5967 124.9 29.123 124.607 28.6934C124.324 28.2539 123.963 27.834 123.523 27.4336C123.084 27.0332 122.61 26.6328 122.102 26.2324C121.604 25.832 121.135 25.4072 120.696 24.958C120.257 24.499 119.89 24.001 119.597 23.4639C119.314 22.917 119.173 22.2969 119.173 21.6035C119.173 21.0371 119.275 20.5195 119.48 20.0508C119.695 19.5723 119.988 19.167 120.359 18.835C120.74 18.4932 121.189 18.2295 121.707 18.0439C122.224 17.8584 122.791 17.7656 123.406 17.7656C124.217 17.7656 124.89 17.8535 125.427 18.0293C125.974 18.1953 126.389 18.3564 126.673 18.5127L126.819 20.9443ZM130.921 23.7275C130.921 22.8975 130.906 22.1748 130.877 21.5596C130.857 20.9346 130.828 20.3975 130.789 19.9482C130.76 19.499 130.716 19.123 130.657 18.8203C130.608 18.5176 130.554 18.2637 130.496 18.0586V18H133.88V18.0586C133.821 18.2637 133.767 18.5176 133.719 18.8203C133.67 19.123 133.626 19.499 133.587 19.9482C133.548 20.3975 133.518 20.9346 133.499 21.5596C133.479 22.1748 133.469 22.8975 133.469 23.7275V27.2725C133.469 28.1025 133.479 28.8301 133.499 29.4551C133.518 30.0703 133.548 30.6025 133.587 31.0518C133.626 31.501 133.67 31.877 133.719 32.1797C133.767 32.4824 133.821 32.7363 133.88 32.9414V33H130.496V32.9414C130.554 32.7363 130.608 32.4824 130.657 32.1797C130.716 31.877 130.76 31.501 130.789 31.0518C130.828 30.6025 130.857 30.0703 130.877 29.4551C130.906 28.8301 130.921 28.1025 130.921 27.2725V23.7275ZM130.613 13.5615C130.613 13.3467 130.652 13.1465 130.73 12.9609C130.818 12.7656 130.93 12.5996 131.067 12.4629C131.204 12.3164 131.365 12.2041 131.551 12.126C131.746 12.0381 131.956 11.9941 132.18 11.9941C132.405 11.9941 132.61 12.0381 132.796 12.126C132.991 12.2041 133.157 12.3164 133.294 12.4629C133.44 12.5996 133.552 12.7656 133.631 12.9609C133.719 13.1465 133.762 13.3467 133.762 13.5615C133.762 14.0107 133.611 14.3867 133.308 14.6895C133.006 14.9922 132.63 15.1436 132.18 15.1436C131.956 15.1436 131.746 15.1045 131.551 15.0264C131.365 14.9385 131.204 14.8262 131.067 14.6895C130.93 14.543 130.818 14.377 130.73 14.1914C130.652 13.9961 130.613 13.7861 130.613 13.5615Z" fill="#2E303F"/>
<path d="M137.307 31.7109C137.307 31.4961 137.346 31.2959 137.425 31.1104C137.512 30.915 137.625 30.749 137.761 30.6123C137.908 30.4658 138.074 30.3535 138.26 30.2754C138.455 30.1875 138.66 30.1436 138.875 30.1436C139.099 30.1436 139.304 30.1875 139.49 30.2754C139.685 30.3535 139.851 30.4658 139.988 30.6123C140.135 30.749 140.247 30.915 140.325 31.1104C140.413 31.2959 140.457 31.4961 140.457 31.7109C140.457 32.1602 140.305 32.5361 140.003 32.8389C139.7 33.1416 139.324 33.293 138.875 33.293C138.66 33.293 138.455 33.249 138.26 33.1611C138.074 33.083 137.908 32.9756 137.761 32.8389C137.625 32.6924 137.512 32.5264 137.425 32.3408C137.346 32.1455 137.307 31.9355 137.307 31.7109Z" fill="#5A4A66"/>
</svg>
