<svg width="142" height="47" viewBox="0 0 142 47" fill="none" xmlns="http://www.w3.org/2000/svg">
<path d="M22.9993 46.9307C35.7018 46.9307 45.9993 36.6332 45.9993 23.9307C45.9993 11.2281 35.7018 0.930664 22.9993 0.930664C10.2967 0.930664 -0.000732422 11.2281 -0.000732422 23.9307C-0.000732422 36.6332 10.2967 46.9307 22.9993 46.9307Z" fill="#2E303F"/>
<path d="M45.9999 23.9298C45.9999 33.497 40.157 41.7001 31.8496 45.1632C30.6125 41.5433 29.9403 37.6622 29.9403 33.6243C29.9403 23.8871 33.841 15.0643 40.1733 8.63379C43.7966 12.6977 45.9999 18.054 45.9999 23.9298Z" fill="#F8E6D8"/>
<path d="M16.0579 33.6243C16.0579 37.6622 15.3853 41.5433 14.1481 45.1632C5.84077 41.6967 0.0012207 33.497 0.0012207 23.9298C0.0012207 18.0543 2.20117 12.6977 5.8279 8.63379C12.1572 15.0643 16.0579 23.8871 16.0579 33.6243Z" fill="#F8E6D8"/>
<path d="M27.3628 9.99636C27.7554 7.58614 26.1199 5.31395 23.7097 4.92129C21.2994 4.52862 19.0272 6.16417 18.6346 8.57439C18.2419 10.9846 19.8775 13.2568 22.2877 13.6495C24.6979 14.0421 26.9701 12.4066 27.3628 9.99636Z" fill="#F8E6D8"/>
<path d="M22.9998 24.9454C24.9884 24.9454 26.6005 23.3334 26.6005 21.3448C26.6005 19.3562 24.9884 17.7441 22.9998 17.7441C21.0112 17.7441 19.3992 19.3562 19.3992 21.3448C19.3992 23.3334 21.0112 24.9454 22.9998 24.9454Z" fill="#F8E6D8"/>
<path d="M24.9365 33.7595C26.0402 32.6923 26.0697 30.9324 25.0024 29.8287C23.9351 28.7251 22.1753 28.6956 21.0716 29.7628C19.9679 30.8301 19.9384 32.59 21.0057 33.6937C22.073 34.7973 23.8329 34.8268 24.9365 33.7595Z" fill="#F8E6D8"/>
<path d="M22.9997 42.4931C24.0814 42.4931 24.9582 41.6163 24.9582 40.5347C24.9582 39.453 24.0814 38.5762 22.9997 38.5762C21.9181 38.5762 21.0413 39.453 21.0413 40.5347C21.0413 41.6163 21.9181 42.4931 22.9997 42.4931Z" fill="#F8E6D8"/>
<path d="M60.0947 33.8721C60.1533 33.667 60.207 33.4131 60.2559 33.1104C60.3145 32.8076 60.3633 32.4316 60.4023 31.9824C60.4414 31.5332 60.4707 31.001 60.4902 30.3857C60.5098 29.7607 60.5195 29.0332 60.5195 28.2031V18.667C60.5195 17.8369 60.5098 17.1143 60.4902 16.499C60.4707 15.874 60.4414 15.3369 60.4023 14.8877C60.3633 14.4287 60.3145 14.0479 60.2559 13.7451C60.207 13.4424 60.1533 13.1885 60.0947 12.9834V12.9248H63.6104V12.9834C63.5518 13.1885 63.4932 13.4424 63.4346 13.7451C63.3857 14.0479 63.3418 14.4287 63.3027 14.8877C63.2734 15.3369 63.2441 15.874 63.2148 16.499C63.1953 17.1143 63.1855 17.8369 63.1855 18.667V21.9336L71.7402 14.9463C72.6973 14.165 73.1758 13.4912 73.1758 12.9248H77.292V12.9834C76.7158 13.1201 76.1299 13.3838 75.5342 13.7744C74.9482 14.1553 74.3232 14.624 73.6592 15.1807L66.1006 21.5088L75.1973 31.499C75.5781 31.8896 75.9004 32.2168 76.1641 32.4805C76.4375 32.7344 76.6768 32.9492 76.8818 33.125C77.0869 33.291 77.2725 33.4326 77.4385 33.5498C77.6143 33.6572 77.7949 33.7646 77.9805 33.8721V33.9307H73.6885C73.6494 33.8428 73.5811 33.7305 73.4834 33.5938C73.3955 33.457 73.2881 33.3154 73.1611 33.1689C73.0439 33.0225 72.9121 32.8711 72.7656 32.7148C72.6289 32.5586 72.4971 32.4121 72.3701 32.2754L63.1855 22.1973V28.2031C63.1855 29.0332 63.1953 29.7607 63.2148 30.3857C63.2441 31.001 63.2734 31.5332 63.3027 31.9824C63.3418 32.4316 63.3857 32.8076 63.4346 33.1104C63.4932 33.4131 63.5518 33.667 63.6104 33.8721V33.9307H60.0947V33.8721ZM79.7383 24.6582C79.7383 23.8281 79.7236 23.1055 79.6943 22.4902C79.6748 21.8652 79.6455 21.3281 79.6064 20.8789C79.5771 20.4297 79.5332 20.0537 79.4746 19.751C79.4258 19.4482 79.3721 19.1943 79.3135 18.9893V18.9307H82.6973V18.9893C82.6387 19.1943 82.585 19.4482 82.5361 19.751C82.4873 20.0537 82.4434 20.4297 82.4043 20.8789C82.3652 21.3281 82.3359 21.8652 82.3164 22.4902C82.2969 23.1055 82.2871 23.8281 82.2871 24.6582V28.2031C82.2871 29.0332 82.2969 29.7607 82.3164 30.3857C82.3359 31.001 82.3652 31.5332 82.4043 31.9824C82.4434 32.4316 82.4873 32.8076 82.5361 33.1104C82.585 33.4131 82.6387 33.667 82.6973 33.8721V33.9307H79.3135V33.8721C79.3721 33.667 79.4258 33.4131 79.4746 33.1104C79.5332 32.8076 79.5771 32.4316 79.6064 31.9824C79.6455 31.5332 79.6748 31.001 79.6943 30.3857C79.7236 29.7607 79.7383 29.0332 79.7383 28.2031V24.6582ZM79.4307 14.4922C79.4307 14.2773 79.4697 14.0771 79.5479 13.8916C79.6357 13.6963 79.748 13.5303 79.8848 13.3936C80.0215 13.2471 80.1826 13.1348 80.3682 13.0566C80.5635 12.9688 80.7734 12.9248 80.998 12.9248C81.2227 12.9248 81.4277 12.9688 81.6133 13.0566C81.8086 13.1348 81.9746 13.2471 82.1113 13.3936C82.2578 13.5303 82.3701 13.6963 82.4482 13.8916C82.5361 14.0771 82.5801 14.2773 82.5801 14.4922C82.5801 14.9414 82.4287 15.3174 82.126 15.6201C81.8232 15.9229 81.4473 16.0742 80.998 16.0742C80.7734 16.0742 80.5635 16.0352 80.3682 15.957C80.1826 15.8691 80.0215 15.7568 79.8848 15.6201C79.748 15.4736 79.6357 15.3076 79.5479 15.1221C79.4697 14.9268 79.4307 14.7168 79.4307 14.4922ZM96.9648 24.0576C96.9648 22.7686 96.7061 21.8213 96.1885 21.2158C95.6709 20.6104 94.9775 20.3076 94.1084 20.3076C93.7959 20.3076 93.4443 20.376 93.0537 20.5127C92.6631 20.6396 92.2627 20.8154 91.8525 21.04C91.4424 21.2549 91.0322 21.5088 90.6221 21.8018C90.2119 22.0947 89.8262 22.4072 89.4648 22.7393L89.4355 24.6582V28.2031C89.4355 29.0332 89.4453 29.7607 89.4648 30.3857C89.4844 31.001 89.5137 31.5332 89.5527 31.9824C89.5918 32.4316 89.6357 32.8076 89.6846 33.1104C89.7334 33.4131 89.7871 33.667 89.8457 33.8721V33.9307H86.4619V33.8721C86.5205 33.667 86.5742 33.4131 86.623 33.1104C86.6816 32.8076 86.7256 32.4316 86.7549 31.9824C86.7939 31.5332 86.8232 31.001 86.8428 30.3857C86.8721 29.7607 86.8867 29.0332 86.8867 28.2031V24.6582C86.8867 23.8281 86.8721 23.1055 86.8428 22.4902C86.8232 21.8652 86.7939 21.3281 86.7549 20.8789C86.7256 20.4297 86.6816 20.0537 86.623 19.751C86.5742 19.4482 86.5205 19.1943 86.4619 18.9893V18.9307H89.8457V18.9893C89.7676 19.2334 89.7041 19.5459 89.6553 19.9268C89.6162 20.2979 89.5723 20.7861 89.5234 21.3916C89.9238 21.0596 90.3535 20.7275 90.8125 20.3955C91.2812 20.0635 91.7646 19.7705 92.2627 19.5166C92.7607 19.2529 93.2686 19.043 93.7861 18.8867C94.3037 18.7207 94.8115 18.6377 95.3096 18.6377C96.0713 18.6377 96.7158 18.7695 97.2432 19.0332C97.7803 19.2969 98.2148 19.6436 98.5469 20.0732C98.8887 20.5029 99.1328 20.9961 99.2793 21.5527C99.4355 22.0996 99.5137 22.6562 99.5137 23.2227V28.2031C99.5137 29.0332 99.5234 29.7607 99.543 30.3857C99.5625 31.001 99.5918 31.5332 99.6309 31.9824C99.6699 32.4316 99.7139 32.8076 99.7627 33.1104C99.8115 33.4131 99.8652 33.667 99.9238 33.8721V33.9307H96.54V33.8721C96.5986 33.667 96.6523 33.4131 96.7012 33.1104C96.7598 32.8076 96.8037 32.4316 96.833 31.9824C96.8721 31.5332 96.9014 31.001 96.9209 30.3857C96.9502 29.7607 96.9648 29.0332 96.9648 28.2031V24.0576ZM110.5 34.1943C109.416 34.1943 108.4 34.0234 107.453 33.6816C106.506 33.3398 105.681 32.8418 104.978 32.1875C104.274 31.5234 103.718 30.708 103.308 29.7412C102.907 28.7646 102.707 27.6514 102.707 26.4014C102.707 25.2979 102.893 24.2773 103.264 23.3398C103.635 22.3926 104.147 21.5723 104.802 20.8789C105.456 20.1855 106.218 19.6436 107.087 19.2529C107.966 18.8623 108.913 18.667 109.929 18.667C110.935 18.667 111.867 18.8428 112.727 19.1943C113.586 19.5361 114.328 20.0391 114.953 20.7031C115.588 21.3574 116.086 22.1729 116.447 23.1494C116.818 24.1162 117.019 25.2197 117.048 26.46C115.944 26.4404 114.841 26.4258 113.737 26.416C112.634 26.4062 111.486 26.4014 110.295 26.4014C109.445 26.4014 108.615 26.4062 107.805 26.416C107.004 26.4258 106.281 26.4404 105.637 26.46C105.695 27.4756 105.852 28.3936 106.105 29.2139C106.369 30.0342 106.726 30.7373 107.175 31.3232C107.634 31.8994 108.186 32.3438 108.83 32.6562C109.484 32.9688 110.222 33.125 111.042 33.125C111.608 33.125 112.141 33.0615 112.639 32.9346C113.146 32.7979 113.605 32.6123 114.016 32.3779C114.426 32.1436 114.792 31.8701 115.114 31.5576C115.437 31.2354 115.71 30.8887 115.935 30.5176L116.11 30.6055L115.026 33.2129C114.499 33.4863 113.869 33.7207 113.137 33.916C112.404 34.1016 111.525 34.1943 110.5 34.1943ZM108.552 25.2588C109.528 25.2588 110.505 25.2588 111.481 25.2588C112.468 25.249 113.361 25.2295 114.162 25.2002C114.074 24.3506 113.908 23.5889 113.664 22.915C113.42 22.2412 113.107 21.6699 112.727 21.2012C112.346 20.7324 111.896 20.3711 111.379 20.1172C110.861 19.8633 110.29 19.7363 109.665 19.7363C109.099 19.7363 108.576 19.8633 108.098 20.1172C107.629 20.3613 107.219 20.7178 106.867 21.1865C106.516 21.6553 106.232 22.2314 106.018 22.915C105.803 23.5889 105.676 24.3604 105.637 25.2295C106.076 25.249 106.54 25.2588 107.028 25.2588C107.517 25.2588 108.024 25.2588 108.552 25.2588ZM126.818 21.875L126.613 21.9043C126.545 21.6797 126.433 21.4404 126.276 21.1865C126.13 20.9326 125.935 20.6982 125.69 20.4834C125.456 20.2686 125.168 20.0928 124.826 19.9561C124.494 19.8096 124.108 19.7363 123.669 19.7363C123.366 19.7363 123.078 19.7803 122.805 19.8682C122.541 19.9561 122.307 20.0879 122.102 20.2637C121.906 20.4297 121.75 20.6396 121.633 20.8936C121.516 21.1475 121.457 21.4453 121.457 21.7871C121.457 22.2656 121.604 22.7246 121.896 23.1641C122.199 23.5938 122.575 24.0234 123.024 24.4531C123.474 24.873 123.957 25.2979 124.475 25.7275C125.002 26.1572 125.49 26.6064 125.939 27.0752C126.389 27.5439 126.76 28.0469 127.053 28.584C127.355 29.1113 127.507 29.6826 127.507 30.2979C127.507 30.7959 127.419 31.2842 127.243 31.7627C127.067 32.2314 126.794 32.6514 126.423 33.0225C126.062 33.3936 125.593 33.6963 125.017 33.9307C124.45 34.1553 123.771 34.2676 122.98 34.2676C122.512 34.2676 122.072 34.2236 121.662 34.1357C121.262 34.0479 120.891 33.9404 120.549 33.8135C120.217 33.6768 119.914 33.5303 119.641 33.374C119.377 33.208 119.143 33.0518 118.938 32.9053L119.084 30.1221H119.318C119.416 30.5811 119.562 31.001 119.758 31.3818C119.953 31.7627 120.192 32.0898 120.476 32.3633C120.769 32.627 121.101 32.8369 121.472 32.9932C121.843 33.1396 122.248 33.2129 122.688 33.2129C123.41 33.2129 123.981 33.0127 124.401 32.6123C124.831 32.2119 125.046 31.6895 125.046 31.0449C125.046 30.5273 124.899 30.0537 124.606 29.624C124.323 29.1846 123.962 28.7646 123.522 28.3643C123.083 27.9639 122.609 27.5635 122.102 27.1631C121.604 26.7627 121.135 26.3379 120.695 25.8887C120.256 25.4297 119.89 24.9316 119.597 24.3945C119.313 23.8477 119.172 23.2275 119.172 22.5342C119.172 21.9678 119.274 21.4502 119.479 20.9814C119.694 20.5029 119.987 20.0977 120.358 19.7656C120.739 19.4238 121.188 19.1602 121.706 18.9746C122.224 18.7891 122.79 18.6963 123.405 18.6963C124.216 18.6963 124.89 18.7842 125.427 18.96C125.974 19.126 126.389 19.2871 126.672 19.4434L126.818 21.875ZM130.92 24.6582C130.92 23.8281 130.905 23.1055 130.876 22.4902C130.856 21.8652 130.827 21.3281 130.788 20.8789C130.759 20.4297 130.715 20.0537 130.656 19.751C130.607 19.4482 130.554 19.1943 130.495 18.9893V18.9307H133.879V18.9893C133.82 19.1943 133.767 19.4482 133.718 19.751C133.669 20.0537 133.625 20.4297 133.586 20.8789C133.547 21.3281 133.518 21.8652 133.498 22.4902C133.479 23.1055 133.469 23.8281 133.469 24.6582V28.2031C133.469 29.0332 133.479 29.7607 133.498 30.3857C133.518 31.001 133.547 31.5332 133.586 31.9824C133.625 32.4316 133.669 32.8076 133.718 33.1104C133.767 33.4131 133.82 33.667 133.879 33.8721V33.9307H130.495V33.8721C130.554 33.667 130.607 33.4131 130.656 33.1104C130.715 32.8076 130.759 32.4316 130.788 31.9824C130.827 31.5332 130.856 31.001 130.876 30.3857C130.905 29.7607 130.92 29.0332 130.92 28.2031V24.6582ZM130.612 14.4922C130.612 14.2773 130.651 14.0771 130.729 13.8916C130.817 13.6963 130.93 13.5303 131.066 13.3936C131.203 13.2471 131.364 13.1348 131.55 13.0566C131.745 12.9688 131.955 12.9248 132.18 12.9248C132.404 12.9248 132.609 12.9688 132.795 13.0566C132.99 13.1348 133.156 13.2471 133.293 13.3936C133.439 13.5303 133.552 13.6963 133.63 13.8916C133.718 14.0771 133.762 14.2773 133.762 14.4922C133.762 14.9414 133.61 15.3174 133.308 15.6201C133.005 15.9229 132.629 16.0742 132.18 16.0742C131.955 16.0742 131.745 16.0352 131.55 15.957C131.364 15.8691 131.203 15.7568 131.066 15.6201C130.93 15.4736 130.817 15.3076 130.729 15.1221C130.651 14.9268 130.612 14.7168 130.612 14.4922ZM137.307 32.6416C137.307 32.4268 137.346 32.2266 137.424 32.041C137.512 31.8457 137.624 31.6797 137.761 31.543C137.907 31.3965 138.073 31.2842 138.259 31.2061C138.454 31.1182 138.659 31.0742 138.874 31.0742C139.099 31.0742 139.304 31.1182 139.489 31.2061C139.685 31.2842 139.851 31.3965 139.987 31.543C140.134 31.6797 140.246 31.8457 140.324 32.041C140.412 32.2266 140.456 32.4268 140.456 32.6416C140.456 33.0908 140.305 33.4668 140.002 33.7695C139.699 34.0723 139.323 34.2236 138.874 34.2236C138.659 34.2236 138.454 34.1797 138.259 34.0918C138.073 34.0137 137.907 33.9062 137.761 33.7695C137.624 33.623 137.512 33.457 137.424 33.2715C137.346 33.0762 137.307 32.8662 137.307 32.6416Z" fill="white"/>
</svg>
