<?xml version="1.0" encoding="utf-8"?>
<!-- Generator: Adobe Illustrator 19.2.0, SVG Export Plug-In . SVG Version: 6.00 Build 0)  -->
<!DOCTYPE svg PUBLIC "-//W3C//DTD SVG 1.1//EN" "http://www.w3.org/Graphics/SVG/1.1/DTD/svg11.dtd">
<svg version="1.1"
	 id="Laag_1" inkscape:version="0.91 r13725" sodipodi:docname="logo_zkn.svg" xmlns:cc="http://creativecommons.org/ns#" xmlns:dc="http://purl.org/dc/elements/1.1/" xmlns:inkscape="http://www.inkscape.org/namespaces/inkscape" xmlns:rdf="http://www.w3.org/1999/02/22-rdf-syntax-ns#" xmlns:sodipodi="http://sodipodi.sourceforge.net/DTD/sodipodi-0.dtd" xmlns:svg="http://www.w3.org/2000/svg"
	 xmlns="http://www.w3.org/2000/svg" xmlns:xlink="http://www.w3.org/1999/xlink" x="0px" y="0px" viewBox="0 0 222 70"
	 style="enable-background:new 0 0 222 70;" xml:space="preserve">
<style type="text/css">
	.st0{fill:#F29018;}
	.st1{fill:#110E72;}
</style>
<g>
	<g>
		<path class="st0" d="M31.9,22.5c-0.7,0-1.3-0.6-1.3-1.3c0-0.7,0.6-1.3,1.3-1.3c0.7,0,1.3,0.6,1.3,1.3
			C33.2,21.9,32.6,22.5,31.9,22.5z"/>
	</g>
	<g>
		<path class="st0" d="M35.1,22.5c-0.7,0-1.3-0.6-1.3-1.3c0-0.7,0.6-1.3,1.3-1.3c0.7,0,1.3,0.6,1.3,1.3
			C36.4,21.9,35.8,22.5,35.1,22.5z"/>
	</g>
	<g>
		<path class="st0" d="M38.3,22.5c-0.7,0-1.3-0.6-1.3-1.3c0-0.7,0.6-1.3,1.3-1.3c0.7,0,1.3,0.6,1.3,1.3C39.6,21.9,39,22.5,38.3,22.5
			z"/>
	</g>
	<g>
		<path class="st0" d="M41.5,22.5c-0.7,0-1.3-0.6-1.3-1.3c0-0.7,0.6-1.3,1.3-1.3c0.7,0,1.3,0.6,1.3,1.3
			C42.8,21.9,42.2,22.5,41.5,22.5z"/>
	</g>
	<g>
		<path class="st0" d="M31.9,25.7c-0.7,0-1.3-0.6-1.3-1.3s0.6-1.3,1.3-1.3c0.7,0,1.3,0.6,1.3,1.3S32.6,25.7,31.9,25.7z"/>
	</g>
	<g>
		<path class="st0" d="M35.1,25.7c-0.7,0-1.3-0.6-1.3-1.3s0.6-1.3,1.3-1.3c0.7,0,1.3,0.6,1.3,1.3S35.8,25.7,35.1,25.7z"/>
	</g>
	<g>
		<path class="st0" d="M38.3,25.7c-0.7,0-1.3-0.6-1.3-1.3s0.6-1.3,1.3-1.3c0.7,0,1.3,0.6,1.3,1.3S39,25.7,38.3,25.7z"/>
	</g>
	<g>
		<path class="st0" d="M31.9,28.9c-0.7,0-1.3-0.6-1.3-1.3s0.6-1.3,1.3-1.3c0.7,0,1.3,0.6,1.3,1.3S32.6,28.9,31.9,28.9z"/>
	</g>
	<g>
		<path class="st0" d="M35.1,28.9c-0.7,0-1.3-0.6-1.3-1.3s0.6-1.3,1.3-1.3c0.7,0,1.3,0.6,1.3,1.3S35.8,28.9,35.1,28.9z"/>
	</g>
	<g>
		<path class="st0" d="M38.3,28.9c-0.7,0-1.3-0.6-1.3-1.3s0.6-1.3,1.3-1.3c0.7,0,1.3,0.6,1.3,1.3S39,28.9,38.3,28.9z"/>
	</g>
	<g>
		<path class="st0" d="M31.9,32.1c-0.7,0-1.3-0.6-1.3-1.3c0-0.7,0.6-1.3,1.3-1.3c0.7,0,1.3,0.6,1.3,1.3
			C33.2,31.5,32.6,32.1,31.9,32.1z"/>
	</g>
	<g>
		<path class="st0" d="M35.1,32.1c-0.7,0-1.3-0.6-1.3-1.3c0-0.7,0.6-1.3,1.3-1.3c0.7,0,1.3,0.6,1.3,1.3
			C36.4,31.5,35.8,32.1,35.1,32.1z"/>
	</g>
	<g>
		<path class="st0" d="M38.3,32.1c-0.7,0-1.3-0.6-1.3-1.3c0-0.7,0.6-1.3,1.3-1.3c0.7,0,1.3,0.6,1.3,1.3C39.6,31.5,39,32.1,38.3,32.1
			z"/>
	</g>
	<g>
		<path class="st0" d="M22.3,32.1c-0.7,0-1.3-0.6-1.3-1.3c0-0.7,0.6-1.3,1.3-1.3s1.3,0.6,1.3,1.3C23.6,31.5,23.1,32.1,22.3,32.1z"/>
	</g>
	<g>
		<path class="st0" d="M19.1,32.1c-0.7,0-1.3-0.6-1.3-1.3c0-0.7,0.6-1.3,1.3-1.3s1.3,0.6,1.3,1.3C20.5,31.5,19.9,32.1,19.1,32.1z"/>
	</g>
	<g>
		<path class="st0" d="M22.3,28.9c-0.7,0-1.3-0.6-1.3-1.3s0.6-1.3,1.3-1.3s1.3,0.6,1.3,1.3S23.1,28.9,22.3,28.9z"/>
	</g>
	<g>
		<path class="st0" d="M19.1,28.9c-0.7,0-1.3-0.6-1.3-1.3s0.6-1.3,1.3-1.3s1.3,0.6,1.3,1.3S19.9,28.9,19.1,28.9z"/>
	</g>
	<g>
		<path class="st0" d="M22.3,25.7c-0.7,0-1.3-0.6-1.3-1.3s0.6-1.3,1.3-1.3s1.3,0.6,1.3,1.3S23.1,25.7,22.3,25.7z"/>
	</g>
	<g>
		<path class="st0" d="M19.1,25.7c-0.7,0-1.3-0.6-1.3-1.3s0.6-1.3,1.3-1.3s1.3,0.6,1.3,1.3S19.9,25.7,19.1,25.7z"/>
	</g>
	<g>
		<path class="st0" d="M22.3,22.5c-0.7,0-1.3-0.6-1.3-1.3c0-0.7,0.6-1.3,1.3-1.3s1.3,0.6,1.3,1.3C23.6,21.9,23.1,22.5,22.3,22.5z"/>
	</g>
	<g>
		<path class="st0" d="M19.1,22.5c-0.7,0-1.3-0.6-1.3-1.3c0-0.7,0.6-1.3,1.3-1.3s1.3,0.6,1.3,1.3C20.5,21.9,19.9,22.5,19.1,22.5z"/>
	</g>
	<g>
		<path class="st0" d="M25.5,32.1c-0.7,0-1.3-0.6-1.3-1.3c0-0.7,0.6-1.3,1.3-1.3s1.3,0.6,1.3,1.3C26.8,31.5,26.2,32.1,25.5,32.1z"/>
	</g>
	<g>
		<path class="st0" d="M28.7,32.1c-0.7,0-1.3-0.6-1.3-1.3c0-0.7,0.6-1.3,1.3-1.3S30,30,30,30.7C30,31.5,29.4,32.1,28.7,32.1z"/>
	</g>
	<g>
		<path class="st0" d="M31.9,35.3c-0.7,0-1.3-0.6-1.3-1.3s0.6-1.3,1.3-1.3c0.7,0,1.3,0.6,1.3,1.3S32.6,35.3,31.9,35.3z"/>
	</g>
	<g>
		<path class="st0" d="M35.1,35.3c-0.7,0-1.3-0.6-1.3-1.3s0.6-1.3,1.3-1.3c0.7,0,1.3,0.6,1.3,1.3S35.8,35.3,35.1,35.3z"/>
	</g>
	<g>
		<path class="st0" d="M38.3,35.3c-0.7,0-1.3-0.6-1.3-1.3s0.6-1.3,1.3-1.3c0.7,0,1.3,0.6,1.3,1.3S39,35.3,38.3,35.3z"/>
	</g>
	<g>
		<path class="st0" d="M22.3,35.3c-0.7,0-1.3-0.6-1.3-1.3s0.6-1.3,1.3-1.3s1.3,0.6,1.3,1.3S23.1,35.3,22.3,35.3z"/>
	</g>
	<g>
		<path class="st0" d="M19.1,35.3c-0.7,0-1.3-0.6-1.3-1.3s0.6-1.3,1.3-1.3s1.3,0.6,1.3,1.3S19.9,35.3,19.1,35.3z"/>
	</g>
	<g>
		<path class="st0" d="M15.9,35.3c-0.7,0-1.3-0.6-1.3-1.3s0.6-1.3,1.3-1.3c0.7,0,1.3,0.6,1.3,1.3S16.7,35.3,15.9,35.3z"/>
	</g>
	<g>
		<path class="st0" d="M25.5,35.3c-0.7,0-1.3-0.6-1.3-1.3s0.6-1.3,1.3-1.3s1.3,0.6,1.3,1.3S26.2,35.3,25.5,35.3z"/>
	</g>
	<g>
		<path class="st0" d="M28.7,35.3c-0.7,0-1.3-0.6-1.3-1.3s0.6-1.3,1.3-1.3s1.3,0.6,1.3,1.3S29.4,35.3,28.7,35.3z"/>
	</g>
	<g>
		<path class="st0" d="M31.9,38.4c-0.7,0-1.3-0.6-1.3-1.3s0.6-1.3,1.3-1.3c0.7,0,1.3,0.6,1.3,1.3S32.6,38.4,31.9,38.4z"/>
	</g>
	<g>
		<path class="st0" d="M35.1,38.4c-0.7,0-1.3-0.6-1.3-1.3s0.6-1.3,1.3-1.3c0.7,0,1.3,0.6,1.3,1.3S35.8,38.4,35.1,38.4z"/>
	</g>
	<g>
		<path class="st0" d="M38.3,38.4c-0.7,0-1.3-0.6-1.3-1.3s0.6-1.3,1.3-1.3c0.7,0,1.3,0.6,1.3,1.3S39,38.4,38.3,38.4z"/>
	</g>
	<g>
		<path class="st0" d="M22.3,38.4c-0.7,0-1.3-0.6-1.3-1.3s0.6-1.3,1.3-1.3s1.3,0.6,1.3,1.3S23.1,38.4,22.3,38.4z"/>
	</g>
	<g>
		<path class="st0" d="M19.1,38.4c-0.7,0-1.3-0.6-1.3-1.3s0.6-1.3,1.3-1.3s1.3,0.6,1.3,1.3S19.9,38.4,19.1,38.4z"/>
	</g>
	<g>
		<path class="st0" d="M15.9,38.4c-0.7,0-1.3-0.6-1.3-1.3s0.6-1.3,1.3-1.3c0.7,0,1.3,0.6,1.3,1.3S16.7,38.4,15.9,38.4z"/>
	</g>
	<g>
		<path class="st0" d="M25.5,38.4c-0.7,0-1.3-0.6-1.3-1.3s0.6-1.3,1.3-1.3s1.3,0.6,1.3,1.3S26.2,38.4,25.5,38.4z"/>
	</g>
	<g>
		<path class="st0" d="M28.7,38.4c-0.7,0-1.3-0.6-1.3-1.3s0.6-1.3,1.3-1.3s1.3,0.6,1.3,1.3S29.4,38.4,28.7,38.4z"/>
	</g>
	<g>
		<path class="st0" d="M28.7,41.6c-0.7,0-1.3-0.6-1.3-1.3S28,39,28.7,39s1.3,0.6,1.3,1.3S29.4,41.6,28.7,41.6z"/>
	</g>
	<g>
		<path class="st0" d="M31.9,41.6c-0.7,0-1.3-0.6-1.3-1.3s0.6-1.3,1.3-1.3c0.7,0,1.3,0.6,1.3,1.3S32.6,41.6,31.9,41.6z"/>
	</g>
	<g>
		<path class="st0" d="M35.1,41.6c-0.7,0-1.3-0.6-1.3-1.3s0.6-1.3,1.3-1.3c0.7,0,1.3,0.6,1.3,1.3S35.8,41.6,35.1,41.6z"/>
	</g>
	<g>
		<path class="st0" d="M19.1,41.6c-0.7,0-1.3-0.6-1.3-1.3s0.6-1.3,1.3-1.3s1.3,0.6,1.3,1.3S19.9,41.6,19.1,41.6z"/>
	</g>
	<g>
		<path class="st0" d="M15.9,41.6c-0.7,0-1.3-0.6-1.3-1.3s0.6-1.3,1.3-1.3c0.7,0,1.3,0.6,1.3,1.3S16.7,41.6,15.9,41.6z"/>
	</g>
	<g>
		<path class="st0" d="M12.8,41.6c-0.7,0-1.3-0.6-1.3-1.3S12,39,12.8,39s1.3,0.6,1.3,1.3S13.5,41.6,12.8,41.6z"/>
	</g>
	<g>
		<path class="st0" d="M22.3,41.6c-0.7,0-1.3-0.6-1.3-1.3s0.6-1.3,1.3-1.3s1.3,0.6,1.3,1.3S23.1,41.6,22.3,41.6z"/>
	</g>
	<g>
		<path class="st0" d="M25.5,41.6c-0.7,0-1.3-0.6-1.3-1.3s0.6-1.3,1.3-1.3s1.3,0.6,1.3,1.3S26.2,41.6,25.5,41.6z"/>
	</g>
	<g>
		<path class="st0" d="M28.7,44.8c-0.7,0-1.3-0.6-1.3-1.3s0.6-1.3,1.3-1.3s1.3,0.6,1.3,1.3S29.4,44.8,28.7,44.8z"/>
	</g>
	<g>
		<path class="st0" d="M31.9,44.8c-0.7,0-1.3-0.6-1.3-1.3s0.6-1.3,1.3-1.3c0.7,0,1.3,0.6,1.3,1.3S32.6,44.8,31.9,44.8z"/>
	</g>
	<g>
		<path class="st0" d="M35.1,44.8c-0.7,0-1.3-0.6-1.3-1.3s0.6-1.3,1.3-1.3c0.7,0,1.3,0.6,1.3,1.3S35.8,44.8,35.1,44.8z"/>
	</g>
	<g>
		<path class="st0" d="M19.1,44.8c-0.7,0-1.3-0.6-1.3-1.3s0.6-1.3,1.3-1.3s1.3,0.6,1.3,1.3S19.9,44.8,19.1,44.8z"/>
	</g>
	<g>
		<path class="st0" d="M15.9,44.8c-0.7,0-1.3-0.6-1.3-1.3s0.6-1.3,1.3-1.3c0.7,0,1.3,0.6,1.3,1.3S16.7,44.8,15.9,44.8z"/>
	</g>
	<g>
		<path class="st0" d="M12.8,44.8c-0.7,0-1.3-0.6-1.3-1.3s0.6-1.3,1.3-1.3s1.3,0.6,1.3,1.3S13.5,44.8,12.8,44.8z"/>
	</g>
	<g>
		<path class="st0" d="M22.3,44.8c-0.7,0-1.3-0.6-1.3-1.3s0.6-1.3,1.3-1.3s1.3,0.6,1.3,1.3S23.1,44.8,22.3,44.8z"/>
	</g>
	<g>
		<path class="st0" d="M25.5,44.8c-0.7,0-1.3-0.6-1.3-1.3s0.6-1.3,1.3-1.3s1.3,0.6,1.3,1.3S26.2,44.8,25.5,44.8z"/>
	</g>
	<g>
		<path class="st0" d="M28.7,48c-0.7,0-1.3-0.6-1.3-1.3s0.6-1.3,1.3-1.3S30,46,30,46.7S29.4,48,28.7,48z"/>
	</g>
	<g>
		<path class="st0" d="M31.9,48c-0.7,0-1.3-0.6-1.3-1.3s0.6-1.3,1.3-1.3c0.7,0,1.3,0.6,1.3,1.3S32.6,48,31.9,48z"/>
	</g>
	<g>
		<path class="st0" d="M35.1,48c-0.7,0-1.3-0.6-1.3-1.3s0.6-1.3,1.3-1.3c0.7,0,1.3,0.6,1.3,1.3S35.8,48,35.1,48z"/>
	</g>
	<g>
		<path class="st0" d="M38.3,48c-0.7,0-1.3-0.6-1.3-1.3s0.6-1.3,1.3-1.3c0.7,0,1.3,0.6,1.3,1.3S39,48,38.3,48z"/>
	</g>
	<g>
		<path class="st0" d="M19.1,48c-0.7,0-1.3-0.6-1.3-1.3s0.6-1.3,1.3-1.3s1.3,0.6,1.3,1.3S19.9,48,19.1,48z"/>
	</g>
	<g>
		<path class="st0" d="M15.9,48c-0.7,0-1.3-0.6-1.3-1.3s0.6-1.3,1.3-1.3c0.7,0,1.3,0.6,1.3,1.3S16.7,48,15.9,48z"/>
	</g>
	<g>
		<path class="st0" d="M12.8,48c-0.7,0-1.3-0.6-1.3-1.3s0.6-1.3,1.3-1.3s1.3,0.6,1.3,1.3S13.5,48,12.8,48z"/>
	</g>
	<g>
		<path class="st0" d="M9.6,48c-0.7,0-1.3-0.6-1.3-1.3s0.6-1.3,1.3-1.3s1.3,0.6,1.3,1.3S10.3,48,9.6,48z"/>
	</g>
	<g>
		<path class="st0" d="M22.3,48c-0.7,0-1.3-0.6-1.3-1.3s0.6-1.3,1.3-1.3s1.3,0.6,1.3,1.3S23.1,48,22.3,48z"/>
	</g>
	<g>
		<path class="st0" d="M25.5,48c-0.7,0-1.3-0.6-1.3-1.3s0.6-1.3,1.3-1.3s1.3,0.6,1.3,1.3S26.2,48,25.5,48z"/>
	</g>
	<g>
		<path class="st0" d="M28.7,51.2c-0.7,0-1.3-0.6-1.3-1.3c0-0.7,0.6-1.3,1.3-1.3s1.3,0.6,1.3,1.3C30,50.6,29.4,51.2,28.7,51.2z"/>
	</g>
	<g>
		<path class="st0" d="M31.9,51.2c-0.7,0-1.3-0.6-1.3-1.3c0-0.7,0.6-1.3,1.3-1.3c0.7,0,1.3,0.6,1.3,1.3
			C33.2,50.6,32.6,51.2,31.9,51.2z"/>
	</g>
	<g>
		<path class="st0" d="M35.1,51.2c-0.7,0-1.3-0.6-1.3-1.3c0-0.7,0.6-1.3,1.3-1.3c0.7,0,1.3,0.6,1.3,1.3
			C36.4,50.6,35.8,51.2,35.1,51.2z"/>
	</g>
	<g>
		<path class="st0" d="M38.3,51.2c-0.7,0-1.3-0.6-1.3-1.3c0-0.7,0.6-1.3,1.3-1.3c0.7,0,1.3,0.6,1.3,1.3C39.6,50.6,39,51.2,38.3,51.2
			z"/>
	</g>
	<g>
		<path class="st0" d="M35.1,54.4c-0.7,0-1.3-0.6-1.3-1.3s0.6-1.3,1.3-1.3c0.7,0,1.3,0.6,1.3,1.3S35.8,54.4,35.1,54.4z"/>
	</g>
	<g>
		<path class="st0" d="M38.3,54.4c-0.7,0-1.3-0.6-1.3-1.3s0.6-1.3,1.3-1.3c0.7,0,1.3,0.6,1.3,1.3S39,54.4,38.3,54.4z"/>
	</g>
	<g>
		<path class="st0" d="M35.1,60.8c-0.7,0-1.3-0.6-1.3-1.3c0-0.7,0.6-1.3,1.3-1.3c0.7,0,1.3,0.6,1.3,1.3
			C36.4,60.2,35.8,60.8,35.1,60.8z"/>
	</g>
	<g>
		<path class="st0" d="M38.3,60.8c-0.7,0-1.3-0.6-1.3-1.3c0-0.7,0.6-1.3,1.3-1.3c0.7,0,1.3,0.6,1.3,1.3C39.6,60.2,39,60.8,38.3,60.8
			z"/>
	</g>
	<g>
		<path class="st0" d="M38.3,57.6c-0.7,0-1.3-0.6-1.3-1.3s0.6-1.3,1.3-1.3c0.7,0,1.3,0.6,1.3,1.3S39,57.6,38.3,57.6z"/>
	</g>
	<g>
		<path class="st0" d="M35.1,64c-0.7,0-1.3-0.6-1.3-1.3s0.6-1.3,1.3-1.3c0.7,0,1.3,0.6,1.3,1.3S35.8,64,35.1,64z"/>
	</g>
	<g>
		<path class="st0" d="M38.3,64c-0.7,0-1.3-0.6-1.3-1.3s0.6-1.3,1.3-1.3c0.7,0,1.3,0.6,1.3,1.3S39,64,38.3,64z"/>
	</g>
	<g>
		<path class="st0" d="M19.1,51.2c-0.7,0-1.3-0.6-1.3-1.3c0-0.7,0.6-1.3,1.3-1.3s1.3,0.6,1.3,1.3C20.5,50.6,19.9,51.2,19.1,51.2z"/>
	</g>
	<g>
		<path class="st0" d="M15.9,51.2c-0.7,0-1.3-0.6-1.3-1.3c0-0.7,0.6-1.3,1.3-1.3c0.7,0,1.3,0.6,1.3,1.3
			C17.3,50.6,16.7,51.2,15.9,51.2z"/>
	</g>
	<g>
		<path class="st0" d="M12.8,51.2c-0.7,0-1.3-0.6-1.3-1.3c0-0.7,0.6-1.3,1.3-1.3s1.3,0.6,1.3,1.3C14.1,50.6,13.5,51.2,12.8,51.2z"/>
	</g>
	<g>
		<path class="st0" d="M9.6,51.2c-0.7,0-1.3-0.6-1.3-1.3c0-0.7,0.6-1.3,1.3-1.3s1.3,0.6,1.3,1.3C10.9,50.6,10.3,51.2,9.6,51.2z"/>
	</g>
	<g>
		<path class="st0" d="M6.4,51.2c-0.7,0-1.3-0.6-1.3-1.3c0-0.7,0.6-1.3,1.3-1.3s1.3,0.6,1.3,1.3C7.7,50.6,7.1,51.2,6.4,51.2z"/>
	</g>
	<g>
		<path class="st0" d="M12.8,54.4c-0.7,0-1.3-0.6-1.3-1.3s0.6-1.3,1.3-1.3s1.3,0.6,1.3,1.3S13.5,54.4,12.8,54.4z"/>
	</g>
	<g>
		<path class="st0" d="M9.6,54.4c-0.7,0-1.3-0.6-1.3-1.3s0.6-1.3,1.3-1.3s1.3,0.6,1.3,1.3S10.3,54.4,9.6,54.4z"/>
	</g>
	<g>
		<path class="st0" d="M6.4,54.4c-0.7,0-1.3-0.6-1.3-1.3s0.6-1.3,1.3-1.3s1.3,0.6,1.3,1.3S7.1,54.4,6.4,54.4z"/>
	</g>
	<g>
		<path class="st0" d="M3.2,54.4c-0.7,0-1.3-0.6-1.3-1.3s0.6-1.3,1.3-1.3s1.3,0.6,1.3,1.3S3.9,54.4,3.2,54.4z"/>
	</g>
	<g>
		<path class="st0" d="M22.3,51.2c-0.7,0-1.3-0.6-1.3-1.3c0-0.7,0.6-1.3,1.3-1.3s1.3,0.6,1.3,1.3C23.6,50.6,23.1,51.2,22.3,51.2z"/>
	</g>
	<g>
		<path class="st0" d="M25.5,51.2c-0.7,0-1.3-0.6-1.3-1.3c0-0.7,0.6-1.3,1.3-1.3s1.3,0.6,1.3,1.3C26.8,50.6,26.2,51.2,25.5,51.2z"/>
	</g>
	<g>
		<path class="st0" d="M41.5,25.7c-0.7,0-1.3-0.6-1.3-1.3s0.6-1.3,1.3-1.3c0.7,0,1.3,0.6,1.3,1.3S42.2,25.7,41.5,25.7z"/>
	</g>
	<g>
		<path class="st0" d="M22.3,19.3c-0.7,0-1.3-0.6-1.3-1.3s0.6-1.3,1.3-1.3s1.3,0.6,1.3,1.3S23.1,19.3,22.3,19.3z"/>
	</g>
	<g>
		<path class="st0" d="M31.9,19.3c-0.7,0-1.3-0.6-1.3-1.3s0.6-1.3,1.3-1.3c0.7,0,1.3,0.6,1.3,1.3S32.6,19.3,31.9,19.3z"/>
	</g>
	<g>
		<path class="st0" d="M35.1,19.3c-0.7,0-1.3-0.6-1.3-1.3s0.6-1.3,1.3-1.3c0.7,0,1.3,0.6,1.3,1.3S35.8,19.3,35.1,19.3z"/>
	</g>
	<g>
		<path class="st0" d="M38.3,19.3c-0.7,0-1.3-0.6-1.3-1.3s0.6-1.3,1.3-1.3c0.7,0,1.3,0.6,1.3,1.3S39,19.3,38.3,19.3z"/>
	</g>
	<g>
		<path class="st0" d="M41.5,19.3c-0.7,0-1.3-0.6-1.3-1.3s0.6-1.3,1.3-1.3c0.7,0,1.3,0.6,1.3,1.3S42.2,19.3,41.5,19.3z"/>
	</g>
	<g>
		<path class="st0" d="M31.9,16.1c-0.7,0-1.3-0.6-1.3-1.3c0-0.7,0.6-1.3,1.3-1.3c0.7,0,1.3,0.6,1.3,1.3
			C33.2,15.5,32.6,16.1,31.9,16.1z"/>
	</g>
	<g>
		<path class="st0" d="M28.7,19.3c-0.7,0-1.3-0.6-1.3-1.3s0.6-1.3,1.3-1.3S30,17.3,30,18S29.4,19.3,28.7,19.3z"/>
	</g>
	<g>
		<path class="st0" d="M28.7,16.1c-0.7,0-1.3-0.6-1.3-1.3c0-0.7,0.6-1.3,1.3-1.3s1.3,0.6,1.3,1.3C30,15.5,29.4,16.1,28.7,16.1z"/>
	</g>
	<g>
		<path class="st0" d="M22.3,12.9c-0.7,0-1.3-0.6-1.3-1.3c0-0.7,0.6-1.3,1.3-1.3s1.3,0.6,1.3,1.3C23.6,12.3,23.1,12.9,22.3,12.9z"/>
	</g>
	<g>
		<path class="st0" d="M25.5,9.7c-0.7,0-1.3-0.6-1.3-1.3s0.6-1.3,1.3-1.3c0.7,0,1.3,0.6,1.3,1.3S26.2,9.7,25.5,9.7z"/>
	</g>
	<path class="st0" d="M28.7,6.6c-0.7,0-1.3-0.6-1.3-1.3s0.6-1.3,1.3-1.3S30,4.5,30,5.2S29.4,6.6,28.7,6.6z"/>
	<g>
		<path class="st0" d="M35.1,16.1c-0.7,0-1.3-0.6-1.3-1.3c0-0.7,0.6-1.3,1.3-1.3c0.7,0,1.3,0.6,1.3,1.3
			C36.4,15.5,35.8,16.1,35.1,16.1z"/>
	</g>
	<g>
		<path class="st0" d="M38.3,16.1c-0.7,0-1.3-0.6-1.3-1.3c0-0.7,0.6-1.3,1.3-1.3c0.7,0,1.3,0.6,1.3,1.3C39.6,15.5,39,16.1,38.3,16.1
			z"/>
	</g>
	<g>
		<path class="st0" d="M41.5,16.1c-0.7,0-1.3-0.6-1.3-1.3c0-0.7,0.6-1.3,1.3-1.3c0.7,0,1.3,0.6,1.3,1.3
			C42.8,15.5,42.2,16.1,41.5,16.1z"/>
	</g>
	<g>
		<path class="st0" d="M31.9,12.9c-0.7,0-1.3-0.6-1.3-1.3s0.6-1.3,1.3-1.3c0.7,0,1.3,0.6,1.3,1.3S32.6,12.9,31.9,12.9z"/>
	</g>
	<g>
		<path class="st0" d="M35.1,12.9c-0.7,0-1.3-0.6-1.3-1.3c0-0.7,0.6-1.3,1.3-1.3c0.7,0,1.3,0.6,1.3,1.3
			C36.4,12.3,35.8,12.9,35.1,12.9z"/>
	</g>
	<g>
		<path class="st0" d="M38.3,12.9c-0.7,0-1.3-0.6-1.3-1.3s0.6-1.3,1.3-1.3c0.7,0,1.3,0.6,1.3,1.3S39,12.9,38.3,12.9z"/>
	</g>
	<g>
		<path class="st0" d="M41.5,12.9c-0.7,0-1.3-0.6-1.3-1.3c0-0.7,0.6-1.3,1.3-1.3c0.7,0,1.3,0.6,1.3,1.3
			C42.8,12.3,42.2,12.9,41.5,12.9z"/>
	</g>
	<g>
		<path class="st0" d="M44.6,19.3c-0.7,0-1.3-0.6-1.3-1.3s0.6-1.3,1.3-1.3c0.7,0,1.3,0.6,1.3,1.3S45.4,19.3,44.6,19.3z"/>
	</g>
	<g>
		<path class="st0" d="M44.6,16.1c-0.7,0-1.3-0.6-1.3-1.3c0-0.7,0.6-1.3,1.3-1.3c0.7,0,1.3,0.6,1.3,1.3C46,15.5,45.4,16.1,44.6,16.1
			z"/>
	</g>
	<g>
		<path class="st0" d="M44.6,12.9c-0.7,0-1.3-0.6-1.3-1.3c0-0.7,0.6-1.3,1.3-1.3c0.7,0,1.3,0.6,1.3,1.3C46,12.3,45.4,12.9,44.6,12.9
			z"/>
	</g>
	<g>
		<path class="st0" d="M35.1,9.7c-0.7,0-1.3-0.6-1.3-1.3s0.6-1.3,1.3-1.3c0.7,0,1.3,0.6,1.3,1.3S35.8,9.7,35.1,9.7z"/>
	</g>
	<g>
		<path class="st0" d="M38.3,9.7c-0.7,0-1.3-0.6-1.3-1.3s0.6-1.3,1.3-1.3c0.7,0,1.3,0.6,1.3,1.3S39,9.7,38.3,9.7z"/>
	</g>
	<g>
		<path class="st0" d="M41.5,9.7c-0.7,0-1.3-0.6-1.3-1.3s0.6-1.3,1.3-1.3c0.7,0,1.3,0.6,1.3,1.3S42.2,9.7,41.5,9.7z"/>
	</g>
	<g>
		<path class="st0" d="M44.7,9.7c-0.7,0-1.3-0.6-1.3-1.3s0.6-1.3,1.3-1.3c0.7,0,1.3,0.6,1.3,1.3S45.4,9.7,44.7,9.7z"/>
	</g>
	<g>
		<path class="st0" d="M47.8,16.1c-0.7,0-1.3-0.6-1.3-1.3c0-0.7,0.6-1.3,1.3-1.3c0.7,0,1.3,0.6,1.3,1.3
			C49.2,15.5,48.6,16.1,47.8,16.1z"/>
	</g>
	<g>
		<path class="st0" d="M47.8,12.9c-0.7,0-1.3-0.6-1.3-1.3c0-0.7,0.6-1.3,1.3-1.3c0.7,0,1.3,0.6,1.3,1.3
			C49.2,12.3,48.6,12.9,47.8,12.9z"/>
	</g>
	<path class="st0" d="M67.8,32.5V34c0,0,0,1.5-1.5,1.5h-5.8v5.1c0,0,0,0,0,0v0.8c0,0.1,0,0.1,0,0.1c0,0,0,0.1,0,0.1
		c0,0.3-0.2,0.6-0.3,0.7c0,0,0,0,0,0c0,0-0.1,0.1-0.1,0.1c-0.2,0.1-0.4,0.2-0.6,0.3c-0.2,0-0.3,0-0.3,0h0h-1.5h0c0,0-0.1,0-0.3,0
		c-0.3,0-0.5-0.1-0.6-0.3c0,0-0.1-0.1-0.1-0.1c0,0,0,0,0,0c-0.2-0.2-0.3-0.4-0.3-0.7c0,0,0-0.1,0-0.1c0,0,0-0.1,0-0.1v-0.8
		c0,0,0,0,0,0v-5.1h-5.8c-1.5,0-1.5-1.5-1.5-1.5v-1.5c0-1.5,1.5-1.5,1.5-1.5h5.8v-4.9c0,0,0,0,0,0v-0.9c0,0,0-0.2,0.1-0.4
		c0-0.2,0.1-0.4,0.3-0.6c0,0,0.1-0.1,0.1-0.1c0,0,0,0,0,0c0.2-0.1,0.4-0.3,0.7-0.3c0.1,0,0.3,0,0.3,0h0h0H59h0h0c0,0,0.1,0,0.3,0
		c0.3,0,0.5,0.2,0.7,0.3c0,0,0,0,0,0c0,0,0.1,0.1,0.1,0.1c0.1,0.1,0.2,0.3,0.3,0.6c0,0.2,0.1,0.4,0.1,0.4v0.9c0,0,0,0,0,0V31h5.8
		C66.3,31,67.8,31,67.8,32.5"/>
	<path class="st1" d="M66.3,44.8c-6.3,4.4-15.1,2.8-19.4-3.6s-2.8-15.1,3.6-19.4c6.3-4.4,15.1-2.8,19.4,3.6
		C74.2,31.7,72.6,40.4,66.3,44.8 M74.6,22.1c-6.2-9-18.5-11.2-27.5-5c-9,6.2-11.2,18.5-5,27.5c5.5,8,15.8,10.7,24.4,6.8l7.7,11.1
		l0,0c1.1,1.6,3.3,2,5,0.9c1.6-1.1,2-3.3,0.9-4.9l0,0l-7.7-11.1C79,40.7,80.2,30.1,74.6,22.1"/>
	<g>
		<path class="st1" d="M86,26.5v-2.2l9.2-12.6v0h-8.4V9h12.3v2.2l-9,12.6v0h9.6v2.6H86z"/>
		<path class="st1" d="M108.6,26.9c-4.3,0-6-3.1-6-7.2c0-4.1,2-7.1,6-7.1c4.3,0,6,3,6,7.1C114.6,23.7,112.6,26.9,108.6,26.9z
			 M108.6,15.1c-2,0-3,1.4-3,4.5c0,3.1,1,4.7,3,4.7c2,0,3-1.4,3-4.5C111.6,16.7,110.6,15.1,108.6,15.1z"/>
		<path class="st1" d="M125.8,15.3c-1.6,0-2.8,0.3-3.8,1.4v9.8h-2.9V16.2l-0.4-3.2l2.9-0.4l0.2,1.9h0c0.8-1,2-1.9,4-1.9V15.3z"/>
		<path class="st1" d="M138.4,14.8c0.4,0.7,0.6,1.5,0.6,2.3c0,2.6-1.9,4.7-5,4.7c-0.6,0-1-0.1-1.5-0.2c-0.1,0.1-0.3,0.2-0.4,0.3
			c-0.2,0.2-0.3,0.6-0.3,1c0,0.8,0.6,1,1.4,1h4.1c2.4,0,3.7,0.8,3.7,2.9c0,2.8-2.6,5.9-7.7,5.9c-3.1,0-4.8-1.3-4.8-3.7
			c0-1.1,0.4-1.9,0.9-2.4c0.3-0.3,0.6-0.6,0.9-0.8c-0.6-0.4-1-1-1-2.1c0-0.9,0.4-1.6,0.9-2c0.3-0.3,0.6-0.5,0.9-0.7
			c-1.3-0.8-2-2.2-2-3.9c0-2.7,1.9-4.7,5-4.7c1.1,0,2,0.2,2.8,0.7l4.3-0.6v2.3H138.4z M136.6,26.4h-4.2c-0.2,0-0.4,0-0.6-0.1
			c-0.2,0.1-0.3,0.3-0.4,0.5c-0.2,0.3-0.4,0.8-0.4,1.5c0,1.4,0.9,2.2,2.7,2.2c3,0,4.7-1.7,4.7-3.1C138.4,26.6,137.8,26.4,136.6,26.4
			z M134,14.6c-1.3,0-2.3,0.9-2.3,2.5c0,1.7,0.9,2.5,2.3,2.5c1.3,0,2.3-0.9,2.3-2.5C136.3,15.5,135.4,14.6,134,14.6z"/>
		<path class="st1" d="M145,26.5V10.3l-0.4-3.2l3.4-0.4v19.9H145z M153.8,27l-5.8-7.7l4.8-6.4h3.3l-4.6,6.1l5.4,7.1L153.8,27z"/>
		<path class="st1" d="M167,26.8l-0.2-1.6h0c-0.9,0.8-1.9,1.7-3.6,1.7c-2.2,0-3.6-1.4-3.6-3.6c0-2.6,1.9-3.7,4.7-4l2.2-0.2V18
			c0-1.7-0.6-2.8-2.6-2.8c-1.1,0-1.9,0.3-2.7,0.8l-1.1-2.1c1.3-0.8,2.6-1.3,4.4-1.3c3,0,4.8,1.7,4.8,4.5v6.2l0.5,3.2L167,26.8z
			 M166.5,20.9l-1.7,0.2c-1.5,0.2-2.3,0.7-2.3,1.8c0,1,0.6,1.7,1.6,1.7c1.1,0,1.8-0.5,2.4-1V20.9z"/>
		<path class="st1" d="M181.4,26.8l-0.2-1.6h0c-0.9,0.8-1.9,1.7-3.6,1.7c-2.2,0-3.6-1.4-3.6-3.6c0-2.6,1.9-3.7,4.7-4l2.2-0.2V18
			c0-1.7-0.6-2.8-2.6-2.8c-1.1,0-1.9,0.3-2.7,0.8l-1.1-2.1c1.3-0.8,2.6-1.3,4.4-1.3c3,0,4.8,1.7,4.8,4.5v6.2l0.5,3.2L181.4,26.8z
			 M180.9,20.9l-1.7,0.2c-1.5,0.2-2.3,0.7-2.3,1.8c0,1,0.6,1.7,1.6,1.7c1.1,0,1.8-0.5,2.4-1V20.9z"/>
		<path class="st1" d="M196,15.3c-1.6,0-2.8,0.3-3.8,1.4v9.8h-2.9V16.2l-0.4-3.2l2.9-0.4l0.2,1.9h0c0.8-1,2-1.9,4-1.9V15.3z"/>
		<path class="st1" d="M207.8,25.9c-1,0.6-1.9,0.9-3.5,0.9c-2.4,0-3.7-1.5-3.7-4.1v-7.5h-2.1v-2l2.1-0.4v-2.3l2.9-0.3v2.7h3.8v2.4
			h-3.8v6.7c0,1.8,0.5,2.3,1.7,2.3c0.7,0,1.1-0.2,1.7-0.5L207.8,25.9z"/>
		<path class="st1" d="M97.9,50.3l-8.7-15h0L89.3,50h-1.8V32.5h2.3l8.4,14.5h0l-0.1-14.5h1.8v17.4L97.9,50.3z"/>
		<path class="st1" d="M113.9,49.3c-1.2,0.7-2.6,1-4.2,1c-3.8,0-5.9-2.7-5.9-7.1c0-4.2,2.1-7.1,5.5-7.1c3.1,0,4.4,2,4.4,4.9v1.7
			h-8.1c0,4,1.3,6,4.6,6c1.1,0,2-0.3,3-0.8L113.9,49.3z M112,41.3c0-2.2-0.8-3.6-2.8-3.6c-1.9,0-3.1,1.4-3.4,3.6H112z"/>
		<path class="st1" d="M125.5,50.3l-0.2-1.4h0c-1,0.9-2.2,1.5-3.7,1.5c-2.8,0-5-2.3-5-6.4c0-4.6,2.3-7.6,6.5-7.6
			c0.6,0,1.1,0,1.5,0.1c0.2,0,0.4,0.1,0.6,0.1v-3.1l-0.4-2.9l2.2-0.3v16.9l0.4,2.8L125.5,50.3z M125,38.3l-0.6-0.2
			c-0.4-0.1-1-0.2-1.7-0.2c-2.9,0-4.3,2.5-4.3,5.2c0,3.5,0.9,5.6,3.7,5.6c1.2,0,2.1-0.5,2.9-1.2V38.3z"/>
		<path class="st1" d="M140.8,49.3c-1.2,0.7-2.6,1-4.2,1c-3.8,0-5.9-2.7-5.9-7.1c0-4.2,2.1-7.1,5.5-7.1c3.1,0,4.4,2,4.4,4.9v1.7
			h-8.1c0,4,1.3,6,4.6,6c1.1,0,2-0.3,3-0.8L140.8,49.3z M138.8,41.3c0-2.2-0.8-3.6-2.8-3.6c-1.9,0-3.1,1.4-3.4,3.6H138.8z"/>
		<path class="st1" d="M149.9,38.2c-1.5,0-2.8,0.5-3.8,1.4V50h-1.8V39.5l-0.4-2.9l1.9-0.3l0.2,1.8h0c1-1,2.2-1.9,3.9-1.9V38.2z"/>
		<path class="st1" d="M152.8,50V33.4l-0.4-2.9l2.2-0.3V50H152.8z"/>
		<path class="st1" d="M166,50.3l-0.2-1.6h0c-1,1-2.1,1.7-3.7,1.7c-2.3,0-3.6-1.4-3.6-3.5c0-2.4,1.9-3.5,4.7-3.8l2.6-0.3v-1.3
			c0-2.1-0.6-3.5-3-3.5c-1.2,0-2,0.3-2.9,0.8l-0.7-1.4c1.2-0.7,2.4-1.1,4-1.1c2.5,0,4.4,1.5,4.4,4.2v6.7l0.4,2.9L166,50.3z
			 M165.7,44.2l-2.4,0.3c-2,0.3-3,0.8-3,2.2c0,1.2,0.8,2,2,2c1.5,0,2.5-0.7,3.4-1.5V44.2z"/>
		<path class="st1" d="M180.4,50v-8.9c0-2.2-0.8-3.3-2.8-3.3c-1.4,0-2.4,0.6-3.3,1.4V50h-1.8V39.5l-0.4-2.9l1.9-0.3l0.2,1.6h0
			c1.1-1,2.4-1.7,4-1.7c2.3,0,4.1,1.5,4.1,4.2V50H180.4z"/>
		<path class="st1" d="M195,50.3l-0.2-1.4h0c-1,0.9-2.2,1.5-3.7,1.5c-2.8,0-5-2.3-5-6.4c0-4.6,2.3-7.6,6.5-7.6c0.6,0,1.1,0,1.5,0.1
			c0.2,0,0.4,0.1,0.6,0.1v-3.1l-0.4-2.9l2.2-0.3v16.9l0.4,2.8L195,50.3z M194.5,38.3l-0.6-0.2c-0.4-0.1-1-0.2-1.7-0.2
			c-2.9,0-4.3,2.5-4.3,5.2c0,3.5,0.9,5.6,3.7,5.6c1.2,0,2.1-0.5,2.9-1.2V38.3z"/>
	</g>
	<g>
		<path class="st1" d="M88.5,61.2h-0.2v2.9h-1v-7.3c0.2,0,0.4,0,0.6-0.1c0.4,0,0.8-0.1,1.3-0.1c1.4,0,2.4,0.7,2.4,1.9
			C91.5,60.4,90.1,61.2,88.5,61.2z M89,57.5c-0.2,0-0.4,0-0.5,0c-0.1,0-0.1,0-0.2,0v2.9h0.2c1.1,0,2.1-0.5,2.1-1.6
			C90.5,57.9,89.9,57.5,89,57.5z"/>
		<path class="st1" d="M95.3,64.3l-0.1-0.7h0c-0.4,0.4-0.9,0.7-1.6,0.7c-1,0-1.5-0.6-1.5-1.5c0-1,0.8-1.5,2-1.6l1-0.1v-0.5
			c0-0.8-0.3-1.4-1.2-1.4c-0.5,0-0.8,0.1-1.2,0.3l-0.4-0.7c0.5-0.3,1-0.5,1.8-0.5c1.2,0,1.9,0.7,1.9,1.8v2.7l0.2,1.3L95.3,64.3z
			 M95.1,61.8l-0.9,0.1c-0.7,0.1-1.1,0.3-1.1,0.9c0,0.5,0.3,0.8,0.8,0.8c0.6,0,0.9-0.2,1.2-0.5V61.8z"/>
		<path class="st1" d="M100.8,64c-0.4,0.2-0.7,0.4-1.3,0.4c-0.9,0-1.4-0.6-1.4-1.6v-3.5h-0.8v-0.6l0.8-0.2v-1l1-0.1v1.1h1.6v0.8H99
			v3.2c0,0.8,0.2,1,0.8,1c0.3,0,0.5-0.1,0.7-0.2L100.8,64z"/>
		<path class="st1" d="M102.5,57.7c-0.4,0-0.7-0.3-0.7-0.7c0-0.4,0.3-0.7,0.7-0.7c0.4,0,0.7,0.3,0.7,0.7
			C103.2,57.4,102.9,57.7,102.5,57.7z M102,64.2v-4.4l-0.2-1.3l1.1-0.2v5.8H102z"/>
		<path class="st1" d="M108.8,63.9c-0.5,0.3-1.1,0.4-1.8,0.4c-1.7,0-2.6-1.1-2.6-3c0-1.8,0.9-3,2.4-3c1.4,0,1.9,0.9,1.9,2.2v0.7
			h-3.4c0,1.5,0.6,2.3,1.8,2.3c0.5,0,0.8-0.1,1.3-0.3L108.8,63.9z M105.6,57.7c-0.4,0-0.6-0.3-0.6-0.6c0-0.4,0.3-0.6,0.6-0.6
			c0.4,0,0.6,0.3,0.6,0.6C106.2,57.4,105.9,57.7,105.6,57.7z M107.8,60.5c0-0.9-0.3-1.4-1.1-1.4c-0.7,0-1.2,0.6-1.3,1.4H107.8z
			 M107.6,57.7c-0.4,0-0.6-0.3-0.6-0.6c0-0.4,0.3-0.6,0.6-0.6c0.4,0,0.6,0.3,0.6,0.6C108.2,57.4,107.9,57.7,107.6,57.7z"/>
		<path class="st1" d="M113.5,64.2v-3.7c0-0.8-0.3-1.3-1.1-1.3c-0.5,0-0.9,0.2-1.3,0.6v4.4h-1v-4.4l-0.2-1.3l1-0.2L111,59h0
			c0.4-0.4,1-0.7,1.7-0.7c1,0,1.7,0.6,1.7,1.8v4.1H113.5z"/>
		<path class="st1" d="M119.1,64c-0.4,0.2-0.7,0.4-1.3,0.4c-0.9,0-1.4-0.6-1.4-1.6v-3.5h-0.8v-0.6l0.8-0.2v-1l1-0.1v1.1h1.6v0.8
			h-1.6v3.2c0,0.8,0.2,1,0.8,1c0.3,0,0.5-0.1,0.7-0.2L119.1,64z"/>
		<path class="st1" d="M124.1,63.9c-0.5,0.3-1.1,0.4-1.8,0.4c-1.7,0-2.6-1.1-2.6-3c0-1.8,0.9-3,2.4-3c1.4,0,1.9,0.9,1.9,2.2v0.7
			h-3.4c0,1.5,0.6,2.3,1.8,2.3c0.5,0,0.8-0.1,1.3-0.3L124.1,63.9z M123.1,60.5c0-0.9-0.3-1.4-1.1-1.4c-0.7,0-1.2,0.6-1.3,1.4H123.1z
			"/>
		<path class="st1" d="M128.8,64.2v-3.7c0-0.8-0.3-1.3-1.1-1.3c-0.5,0-0.9,0.2-1.3,0.6v4.4h-1v-4.4l-0.2-1.3l1-0.2l0.1,0.7h0
			c0.4-0.4,1-0.7,1.7-0.7c1,0,1.7,0.6,1.7,1.8v4.1H128.8z"/>
		<path class="st1" d="M134.2,56.8c-0.2-0.1-0.3-0.1-0.6-0.1c-0.6,0-1,0.3-1,1.1v0.7h1.6v0.8h-1.6v4.9h-1v-4.9h-0.8v-0.7l0.8-0.2
			v-0.6c0-1.2,0.8-2,2-2c0.3,0,0.5,0,0.7,0.1L134.2,56.8z"/>
		<path class="st1" d="M139,63.9c-0.5,0.3-1.1,0.4-1.8,0.4c-1.7,0-2.6-1.1-2.6-3c0-1.8,0.9-3,2.4-3c1.4,0,1.9,0.9,1.9,2.2v0.7h-3.4
			c0,1.5,0.6,2.3,1.8,2.3c0.5,0,0.8-0.1,1.3-0.3L139,63.9z M138,60.5c0-0.9-0.3-1.4-1.1-1.4c-0.7,0-1.2,0.6-1.3,1.4H138z"/>
		<path class="st1" d="M143.7,64.3l-0.1-0.6h0c-0.4,0.3-0.9,0.6-1.5,0.6c-1.3,0-2.1-1-2.1-2.7c0-2,1-3.2,2.8-3.2
			c0.3,0,0.6,0,0.8,0.1v-1.2l-0.2-1.3l1.1-0.2v7.1l0.2,1.3L143.7,64.3z M143.5,59.4c-0.2-0.1-0.5-0.2-0.9-0.2c-1.1,0-1.7,1-1.7,2.1
			c0,1.4,0.4,2.2,1.4,2.2c0.5,0,0.8-0.2,1.1-0.4V59.4z"/>
		<path class="st1" d="M150.3,63.9c-0.5,0.3-1.1,0.4-1.8,0.4c-1.7,0-2.6-1.1-2.6-3c0-1.8,0.9-3,2.4-3c1.4,0,1.9,0.9,1.9,2.2v0.7
			h-3.4c0,1.5,0.6,2.3,1.8,2.3c0.5,0,0.8-0.1,1.3-0.3L150.3,63.9z M149.3,60.5c0-0.9-0.3-1.4-1.1-1.4c-0.7,0-1.2,0.6-1.3,1.4H149.3z
			"/>
		<path class="st1" d="M154.2,59.3c-0.7,0-1.1,0.2-1.6,0.6v4.3h-1v-4.4l-0.2-1.3l1-0.2l0.1,0.8h0c0.4-0.4,0.9-0.8,1.7-0.8V59.3z"/>
		<path class="st1" d="M157.8,64.3l-0.1-0.7h0c-0.4,0.4-0.9,0.7-1.6,0.7c-1,0-1.5-0.6-1.5-1.5c0-1,0.8-1.5,2-1.6l1-0.1v-0.5
			c0-0.8-0.3-1.4-1.2-1.4c-0.5,0-0.8,0.1-1.2,0.3l-0.4-0.7c0.5-0.3,1-0.5,1.8-0.5c1.2,0,1.9,0.7,1.9,1.8v2.7l0.2,1.3L157.8,64.3z
			 M157.6,61.8l-0.9,0.1c-0.7,0.1-1.1,0.3-1.1,0.9c0,0.5,0.3,0.8,0.8,0.8c0.6,0,0.9-0.2,1.2-0.5V61.8z"/>
		<path class="st1" d="M163.3,64c-0.4,0.2-0.7,0.4-1.3,0.4c-0.9,0-1.4-0.6-1.4-1.6v-3.5h-0.8v-0.6l0.8-0.2v-1l1-0.1v1.1h1.6v0.8
			h-1.6v3.2c0,0.8,0.2,1,0.8,1c0.3,0,0.5-0.1,0.7-0.2L163.3,64z"/>
		<path class="st1" d="M165,57.7c-0.4,0-0.7-0.3-0.7-0.7c0-0.4,0.3-0.7,0.7-0.7c0.4,0,0.7,0.3,0.7,0.7
			C165.7,57.4,165.4,57.7,165,57.7z M164.5,64.2v-4.4l-0.2-1.3l1.1-0.2v5.8H164.5z"/>
		<path class="st1" d="M171.3,63.9c-0.5,0.3-1.1,0.4-1.8,0.4c-1.7,0-2.6-1.1-2.6-3c0-1.8,0.9-3,2.4-3c1.4,0,1.9,0.9,1.9,2.2v0.7
			h-3.4c0,1.5,0.6,2.3,1.8,2.3c0.5,0,0.8-0.1,1.3-0.3L171.3,63.9z M170.4,60.5c0-0.9-0.3-1.4-1.1-1.4c-0.7,0-1.2,0.6-1.3,1.4H170.4z
			"/>
		<path class="st1" d="M179.5,64.3l-3.5-5.9h0l0.1,5.8h-1v-7.4h1.1l3.4,5.7h0l-0.1-5.7h1v7.3L179.5,64.3z"/>
		<path class="st1" d="M186.3,63.9c-0.5,0.3-1.1,0.4-1.8,0.4c-1.7,0-2.6-1.1-2.6-3c0-1.8,0.9-3,2.4-3c1.4,0,1.9,0.9,1.9,2.2v0.7
			h-3.4c0,1.5,0.6,2.3,1.8,2.3c0.5,0,0.8-0.1,1.3-0.3L186.3,63.9z M185.4,60.5c0-0.9-0.3-1.4-1.1-1.4c-0.7,0-1.2,0.6-1.3,1.4H185.4z
			"/>
		<path class="st1" d="M191,64.3l-0.1-0.6h0c-0.4,0.3-0.9,0.6-1.5,0.6c-1.3,0-2.1-1-2.1-2.7c0-2,1-3.2,2.8-3.2c0.3,0,0.6,0,0.8,0.1
			v-1.2l-0.2-1.3l1.1-0.2v7.1l0.2,1.3L191,64.3z M190.8,59.4c-0.2-0.1-0.5-0.2-0.9-0.2c-1.1,0-1.7,1-1.7,2.1c0,1.4,0.4,2.2,1.4,2.2
			c0.5,0,0.8-0.2,1.1-0.4V59.4z"/>
		<path class="st1" d="M197.6,63.9c-0.5,0.3-1.1,0.4-1.8,0.4c-1.7,0-2.6-1.1-2.6-3c0-1.8,0.9-3,2.4-3c1.4,0,1.9,0.9,1.9,2.2v0.7
			h-3.4c0,1.5,0.6,2.3,1.8,2.3c0.5,0,0.8-0.1,1.3-0.3L197.6,63.9z M196.6,60.5c0-0.9-0.3-1.4-1.1-1.4c-0.7,0-1.2,0.6-1.3,1.4H196.6z
			"/>
		<path class="st1" d="M201.5,59.3c-0.7,0-1.1,0.2-1.6,0.6v4.3h-1v-4.4l-0.2-1.3l1-0.2l0.1,0.8h0c0.4-0.4,0.9-0.8,1.7-0.8V59.3z"/>
		<path class="st1" d="M202.5,64.2v-6.9l-0.2-1.3l1.1-0.2v8.3H202.5z"/>
		<path class="st1" d="M208.1,64.3l-0.1-0.7h0c-0.4,0.4-0.9,0.7-1.6,0.7c-1,0-1.5-0.6-1.5-1.5c0-1,0.8-1.5,2-1.6l1-0.1v-0.5
			c0-0.8-0.3-1.4-1.2-1.4c-0.5,0-0.8,0.1-1.2,0.3l-0.4-0.7c0.5-0.3,1-0.5,1.8-0.5c1.2,0,1.9,0.7,1.9,1.8v2.7l0.2,1.3L208.1,64.3z
			 M207.9,61.8l-0.9,0.1c-0.7,0.1-1.1,0.3-1.1,0.9c0,0.5,0.3,0.8,0.8,0.8c0.6,0,0.9-0.2,1.2-0.5V61.8z"/>
		<path class="st1" d="M214.1,64.2v-3.7c0-0.8-0.3-1.3-1.1-1.3c-0.5,0-0.9,0.2-1.3,0.6v4.4h-1v-4.4l-0.2-1.3l1-0.2l0.1,0.7h0
			c0.4-0.4,1-0.7,1.7-0.7c1,0,1.7,0.6,1.7,1.8v4.1H214.1z"/>
		<path class="st1" d="M220.2,64.3l-0.1-0.6h0c-0.4,0.3-0.9,0.6-1.5,0.6c-1.3,0-2.1-1-2.1-2.7c0-2,1-3.2,2.8-3.2
			c0.3,0,0.6,0,0.8,0.1v-1.2l-0.2-1.3l1.1-0.2v7.1l0.2,1.3L220.2,64.3z M220,59.4c-0.2-0.1-0.5-0.2-0.9-0.2c-1.1,0-1.7,1-1.7,2.1
			c0,1.4,0.4,2.2,1.4,2.2c0.5,0,0.8-0.2,1.1-0.4V59.4z"/>
	</g>
</g>
<sodipodi:namedview  bordercolor="#666666" borderopacity="1" fit-margin-bottom="0" fit-margin-left="0" fit-margin-right="0" fit-margin-top="0" gridtolerance="10" guidetolerance="10" id="namedview563" inkscape:current-layer="Laag_1" inkscape:cx="227" inkscape:cy="58.699999" inkscape:pageopacity="0" inkscape:pageshadow="2" inkscape:window-height="772" inkscape:window-maximized="0" inkscape:window-width="1214" inkscape:window-x="0" inkscape:window-y="0" inkscape:zoom="1" objecttolerance="10" pagecolor="#ffffff" showgrid="false">
	</sodipodi:namedview>
</svg>
