<svg width="40" height="40" viewBox="0 0 40 40" fill="none" xmlns="http://www.w3.org/2000/svg">
<path d="M20 27.1431C23.9449 27.1431 27.1428 23.9452 27.1428 20.0003C27.1428 16.0554 23.9449 12.8574 20 12.8574C16.0551 12.8574 12.8571 16.0554 12.8571 20.0003C12.8571 23.9452 16.0551 27.1431 20 27.1431Z" stroke="white" stroke-width="1.5" stroke-linecap="round" stroke-linejoin="round"/>
<path d="M20 12.8573V1.42871" stroke="white" stroke-width="1.5" stroke-linecap="round" stroke-linejoin="round"/>
<path d="M27.1428 38.5714V34.2857H32.8571C33.6149 34.2857 34.3416 33.9847 34.8774 33.4489C35.4132 32.9131 35.7143 32.1863 35.7143 31.4286V20C35.7148 17.1031 34.9145 14.2624 33.4019 11.7918C31.8893 9.32119 29.7232 7.31677 27.1428 6" stroke="white" stroke-width="1.5" stroke-linecap="round" stroke-linejoin="round"/>
<path d="M12.8571 6C10.2757 7.31599 8.10841 9.32006 6.59474 11.7907C5.08107 14.2614 4.27997 17.1025 4.27997 20C4.27997 22.8975 5.08107 25.7386 6.59474 28.2093C8.10841 30.6799 10.2757 32.684 12.8571 34V38.5714" stroke="white" stroke-width="1.5" stroke-linecap="round" stroke-linejoin="round"/>
</svg>
