<svg width="60" height="60" viewBox="0 0 60 60" fill="none" xmlns="http://www.w3.org/2000/svg">
<path d="M37.757 51.7285C35.8209 53.6646 33.5225 55.2004 30.9929 56.2481C28.4633 57.2959 25.7521 57.8352 23.0141 57.8352C17.4845 57.8352 12.1813 55.6386 8.27124 51.7285C4.36119 47.8185 2.16455 42.5153 2.16455 36.9857C2.16455 31.456 4.36119 26.1529 8.27124 22.2428L28.3712 2.14282L37.757 11.5285L19.3284 30C18.1438 31.4564 17.5414 33.3004 17.6376 35.1753C17.7339 37.0502 18.5219 38.8228 19.8494 40.1503C21.1769 41.4778 22.9496 42.2659 24.8245 42.3622C26.6994 42.4584 28.5434 41.856 29.9998 40.6714L48.4284 22.2428L57.857 31.6285L37.757 51.7285Z" stroke="#5A4A66" stroke-width="1.5" stroke-linecap="round" stroke-linejoin="round"/>
<path d="M39.3857 31.3286L48.7715 40.7143" stroke="#5A4A66" stroke-width="1.5" stroke-linecap="round" stroke-linejoin="round"/>
<path d="M19.2856 11.2285L28.6714 20.6142" stroke="#5A4A66" stroke-width="1.5" stroke-linecap="round" stroke-linejoin="round"/>
</svg>
