<svg width="60" height="61" viewBox="0 0 60 61" fill="none" xmlns="http://www.w3.org/2000/svg">
<path d="M31.2048 10.8451C31.2048 12.4336 31.8359 13.9571 32.9591 15.0803C34.0824 16.2036 35.6059 16.8346 37.1944 16.8346C38.783 16.8346 40.3064 16.2036 41.4297 15.0803C42.553 13.9571 43.184 12.4336 43.184 10.8451C43.184 9.25652 42.553 7.73304 41.4297 6.60978C40.3064 5.48651 38.783 4.85547 37.1944 4.85547C35.6059 4.85547 34.0824 5.48651 32.9591 6.60978C31.8359 7.73304 31.2048 9.25652 31.2048 10.8451Z" stroke="#5A4A66" stroke-width="1.5" stroke-linecap="round" stroke-linejoin="round"/>
<path d="M45.5798 44.3867C45.5798 45.1732 45.7348 45.9521 46.0358 46.6788C46.3368 47.4055 46.778 48.0658 47.3341 48.622C47.8903 49.1781 48.5506 49.6193 49.2773 49.9203C50.004 50.2213 50.7829 50.3763 51.5694 50.3763C52.356 50.3763 53.1348 50.2213 53.8615 49.9203C54.5882 49.6193 55.2485 49.1781 55.8047 48.622C56.3609 48.0658 56.8021 47.4055 57.1031 46.6788C57.4041 45.9521 57.559 45.1732 57.559 44.3867C57.559 43.6001 57.4041 42.8213 57.1031 42.0946C56.8021 41.3679 56.3609 40.7076 55.8047 40.1514C55.2485 39.5952 54.5882 39.154 53.8615 38.853C53.1348 38.552 52.356 38.3971 51.5694 38.3971C50.7829 38.3971 50.004 38.552 49.2773 38.853C48.5506 39.154 47.8903 39.5952 47.3341 40.1514C46.778 40.7076 46.3368 41.3679 46.0358 42.0946C45.7348 42.8213 45.5798 43.6001 45.5798 44.3867Z" stroke="#5A4A66" stroke-width="1.5" stroke-linecap="round" stroke-linejoin="round"/>
<path d="M57.559 55.168H2.45483" stroke="#5A4A66" stroke-width="1.5" stroke-linecap="round" stroke-linejoin="round"/>
<path d="M38.3924 31.2097L33.5361 32.9514C32.6783 33.2374 31.9692 33.8524 31.5648 34.6611C31.1604 35.4699 31.0939 36.4061 31.3798 37.2639C31.6657 38.1218 32.2807 38.8308 33.0895 39.2352C33.8982 39.6396 34.8345 39.7061 35.6923 39.4202L40.6661 37.6401C42.097 37.1629 43.3416 36.2477 44.2235 35.0239C45.1054 33.8002 45.5799 32.33 45.5799 30.8216V28.8138C45.5799 26.9076 44.8227 25.0794 43.4747 23.7315C42.1268 22.3836 40.2987 21.6263 38.3924 21.6263H30.007C28.5192 21.6263 27.0519 21.9727 25.7212 22.6381C24.3905 23.3034 23.233 24.2695 22.3403 25.4597L21.6216 26.418" stroke="#5A4A66" stroke-width="1.5" stroke-linecap="round" stroke-linejoin="round"/>
<path d="M14.434 43.1888H6.04858C5.09546 43.1888 4.18138 43.5675 3.50742 44.2414C2.83346 44.9154 2.45483 45.8295 2.45483 46.7826C2.45483 47.7357 2.83346 48.6498 3.50742 49.3238C4.18138 49.9977 5.09546 50.3763 6.04858 50.3763H26.4132" stroke="#5A4A66" stroke-width="1.5" stroke-linecap="round" stroke-linejoin="round"/>
<path d="M38.3923 50.3763H26.4132C25.7457 50.3765 25.0913 50.1908 24.5234 49.84C23.9555 49.4892 23.4966 48.9872 23.198 48.3902L19.1945 40.3833C18.8979 39.7847 18.4394 39.2813 17.8711 38.9302C17.3027 38.5792 16.6473 38.3945 15.9793 38.3972H6.04858C5.09546 38.3972 4.18138 38.0185 3.50742 37.3446C2.83346 36.6706 2.45483 35.7565 2.45483 34.8034C2.45483 33.8503 2.83346 32.9362 3.50742 32.2623C4.18138 31.5883 5.09546 31.2097 6.04858 31.2097H15.9817C17.9857 31.202 19.9517 31.7565 21.6563 32.8102C23.3609 33.8639 24.7359 35.3745 25.6249 37.1705L28.6341 43.1888H38.3923C39.3455 43.1888 40.2595 43.5675 40.9335 44.2414C41.6075 44.9154 41.9861 45.8295 41.9861 46.7826C41.9861 47.7357 41.6075 48.6498 40.9335 49.3238C40.2595 49.9977 39.3455 50.3763 38.3923 50.3763Z" stroke="#5A4A66" stroke-width="1.5" stroke-linecap="round" stroke-linejoin="round"/>
</svg>
