<svg width="60" height="61" viewBox="0 0 60 61" fill="none" xmlns="http://www.w3.org/2000/svg">
<path d="M19.2854 55.7857C28.7532 55.7857 36.4283 48.1106 36.4283 38.6429C36.4283 29.1751 28.7532 21.5 19.2854 21.5C9.8177 21.5 2.14258 29.1751 2.14258 38.6429C2.14258 48.1106 9.8177 55.7857 19.2854 55.7857Z" stroke="#5A4A66" stroke-width="1.5" stroke-linecap="round" stroke-linejoin="round"/>
<path d="M40.7132 55.7857C50.1809 55.7857 57.856 48.1106 57.856 38.6429C57.856 29.1751 50.1809 21.5 40.7132 21.5C31.2454 21.5 23.5703 29.1751 23.5703 38.6429C23.5703 48.1106 31.2454 55.7857 40.7132 55.7857Z" stroke="#5A4A66" stroke-width="1.5" stroke-linecap="round" stroke-linejoin="round"/>
<path d="M30.0003 38.6429C39.468 38.6429 47.1431 30.9678 47.1431 21.5C47.1431 12.0323 39.468 4.35718 30.0003 4.35718C20.5325 4.35718 12.8574 12.0323 12.8574 21.5C12.8574 30.9678 20.5325 38.6429 30.0003 38.6429Z" stroke="#5A4A66" stroke-width="1.5" stroke-linecap="round" stroke-linejoin="round"/>
</svg>
