<svg width="60" height="60" viewBox="0 0 60 60" fill="none" xmlns="http://www.w3.org/2000/svg">
<path d="M37.5429 55.7144C40.1822 57.417 43.3272 58.159 46.4492 57.8156C49.5712 57.4722 52.4798 56.0643 54.6858 53.8286L56.6144 51.9429C57.4599 51.0781 57.9333 49.9167 57.9333 48.7072C57.9333 47.4977 57.4599 46.3363 56.6144 45.4715L48.4287 37.3715C47.5711 36.5287 46.4168 36.0564 45.2144 36.0564C44.012 36.0564 42.8577 36.5287 42.0001 37.3715V37.3715C41.1353 38.217 39.9738 38.6904 38.7644 38.6904C37.5549 38.6904 36.3935 38.217 35.5287 37.3715L22.6715 24.5144C22.2426 24.0917 21.902 23.588 21.6695 23.0325C21.4371 22.477 21.3173 21.8808 21.3173 21.2786C21.3173 20.6765 21.4371 20.0803 21.6695 19.5248C21.902 18.9693 22.2426 18.4656 22.6715 18.0429V18.0429C23.5143 17.1853 23.9866 16.031 23.9866 14.8286C23.9866 13.6262 23.5143 12.4719 22.6715 11.6144L14.5287 3.4715C13.6638 2.626 12.5024 2.15259 11.2929 2.15259C10.0835 2.15259 8.92206 2.626 8.05723 3.4715L6.17152 5.40007C3.93586 7.60611 2.52795 10.5147 2.18453 13.6366C1.84111 16.7586 2.58312 19.9037 4.2858 22.5429C13.1574 35.6175 24.4455 46.8765 37.5429 55.7144V55.7144Z" stroke="#5A4A66" stroke-width="1.5" stroke-linecap="round" stroke-linejoin="round"/>
</svg>
