<svg width="21" height="20" viewBox="0 0 21 20" fill="none" xmlns="http://www.w3.org/2000/svg">
<g clip-path="url(#clip0_155_711)">
<path d="M10.5035 20.0078C16.0168 20.0078 20.5035 15.5211 20.5035 10.0078C20.5035 4.49449 16.0169 0.0078125 10.5035 0.0078125C4.9901 0.0078125 0.503479 4.49449 0.503479 10.0078C0.503479 15.5211 4.99016 20.0078 10.5035 20.0078ZM10.5035 1.34112C15.2835 1.34112 19.1702 5.22778 19.1702 10.0078C19.1702 14.7878 15.2835 18.6745 10.5035 18.6745C5.72344 18.6745 1.83679 14.7878 1.83679 10.0078C1.83679 5.22778 5.7235 1.34112 10.5035 1.34112Z" fill="#5A4A66"/>
<path d="M13.4188 13.1945C13.5422 13.2945 13.6888 13.3412 13.8355 13.3412C14.0322 13.3412 14.2255 13.2545 14.3555 13.0912C14.5855 12.8045 14.5388 12.3845 14.2522 12.1545L11.1688 9.6878V4.67447C11.1688 4.3078 10.8688 4.00781 10.5022 4.00781C10.1355 4.00781 9.83551 4.3078 9.83551 4.67447V10.0078C9.83551 10.2112 9.92886 10.4012 10.0855 10.5278L13.4188 13.1945Z" fill="#5A4A66"/>
</g>
<defs>
<clipPath id="clip0_155_711">
<rect width="20" height="20" fill="white" transform="translate(0.503479 0.0078125)"/>
</clipPath>
</defs>
</svg>
