<svg width="50" height="50" viewBox="0 0 50 50" fill="none" xmlns="http://www.w3.org/2000/svg">
<path d="M41.0315 27.0461H33.4607V33.4762H27.0309V41.047H33.4607V47.4766H41.0315V41.047H47.4614V33.4762H41.0315V27.0461Z" stroke="#5A4A66" stroke-width="1.5" stroke-linecap="round" stroke-linejoin="round"/>
<path d="M8.94809 14.9004H29.9117" stroke="#5A4A66" stroke-width="1.5" stroke-linecap="round" stroke-linejoin="round"/>
<path d="M8.94809 23.8848H23.9221" stroke="#5A4A66" stroke-width="1.5" stroke-linecap="round" stroke-linejoin="round"/>
<path d="M8.94809 32.8691H16.4351" stroke="#5A4A66" stroke-width="1.5" stroke-linecap="round" stroke-linejoin="round"/>
<path d="M21.8405 41.8534H5.95328C5.15902 41.8534 4.39729 41.538 3.83564 40.9763C3.27402 40.4147 2.9585 39.6528 2.9585 38.8586V5.91594C2.9585 5.12166 3.27402 4.35993 3.83564 3.7983C4.39729 3.23666 5.15902 2.92114 5.95328 2.92114H27.1744C27.968 2.92131 28.7293 3.23656 29.2907 3.79763L35.0248 9.53165C35.5858 10.0931 35.901 10.8543 35.9012 11.648V21.9155" stroke="#5A4A66" stroke-width="1.5" stroke-linecap="round" stroke-linejoin="round"/>
</svg>
