<svg width="60" height="61" viewBox="0 0 60 61" fill="none" xmlns="http://www.w3.org/2000/svg">
<path d="M22.415 9.71436L24.2578 4.95721C24.5686 4.15177 25.1154 3.45897 25.8266 2.96955C26.5378 2.48013 27.3802 2.21691 28.2436 2.21436H31.7578C32.6212 2.21691 33.4636 2.48013 34.1748 2.96955C34.886 3.45897 35.4328 4.15177 35.7436 4.95721L37.5864 9.71436L43.8436 13.3144L48.9007 12.5429C49.7428 12.4286 50.5998 12.5672 51.3629 12.9412C52.126 13.3151 52.7607 13.9074 53.1864 14.6429L54.9007 17.6429C55.34 18.3901 55.5424 19.253 55.4812 20.1176C55.42 20.9822 55.098 21.8079 54.5578 22.4858L51.4293 26.4715V33.6715L54.6436 37.6572C55.1837 38.3351 55.5057 39.1608 55.5669 40.0254C55.6281 40.89 55.4257 41.7529 54.9864 42.5001L53.2721 45.5001C52.8465 46.2356 52.2117 46.8279 51.4486 47.2018C50.6855 47.5758 49.8285 47.7144 48.9864 47.6001L43.9293 46.8286L37.6721 50.4286L35.8293 55.1858C35.5185 55.9912 34.9717 56.684 34.2605 57.1734C33.5493 57.6629 32.7069 57.9261 31.8436 57.9286H28.2436C27.3802 57.9261 26.5378 57.6629 25.8266 57.1734C25.1154 56.684 24.5686 55.9912 24.2578 55.1858L22.415 50.4286L16.1578 46.8286L11.1007 47.6001C10.2586 47.7144 9.40159 47.5758 8.63848 47.2018C7.87538 46.8279 7.24066 46.2356 6.81499 45.5001L5.1007 42.5001C4.66142 41.7529 4.45903 40.89 4.52024 40.0254C4.58146 39.1608 4.90339 38.3351 5.44356 37.6572L8.57213 33.6715V26.4715L5.35785 22.4858C4.81768 21.8079 4.49574 20.9822 4.43453 20.1176C4.37332 19.253 4.57571 18.3901 5.01499 17.6429L6.72927 14.6429C7.15495 13.9074 7.78966 13.3151 8.55277 12.9412C9.31588 12.5672 10.1729 12.4286 11.015 12.5429L16.0721 13.3144L22.415 9.71436ZM21.4293 30.0715C21.4293 31.7668 21.932 33.424 22.8738 34.8335C23.8157 36.2431 25.1543 37.3417 26.7206 37.9905C28.2868 38.6392 30.0102 38.809 31.6729 38.4782C33.3356 38.1475 34.8629 37.3312 36.0616 36.1324C37.2604 34.9337 38.0767 33.4064 38.4074 31.7437C38.7382 30.081 38.5684 28.3576 37.9197 26.7914C37.2709 25.2251 36.1723 23.8865 34.7627 22.9446C33.3532 22.0028 31.696 21.5001 30.0007 21.5001C27.7274 21.5001 25.5472 22.4031 23.9398 24.0106C22.3323 25.618 21.4293 27.7982 21.4293 30.0715Z" stroke="#5A4A66" stroke-width="1.5" stroke-linecap="round" stroke-linejoin="round"/>
</svg>
