<svg width="50" height="50" viewBox="0 0 50 50" fill="none" xmlns="http://www.w3.org/2000/svg">
<g clip-path="url(#clip0_155_489)">
<path d="M36.4583 9.37398C36.4583 8.82145 36.2388 8.29154 35.8481 7.90084C35.4574 7.51014 34.9275 7.29065 34.375 7.29065H30.2083V3.12398C30.2083 2.57145 29.9888 2.04154 29.5981 1.65084C29.2074 1.26014 28.6775 1.04065 28.1249 1.04065H26.0416C25.4891 1.04065 24.9592 1.26014 24.5685 1.65084C24.1778 2.04154 23.9583 2.57145 23.9583 3.12398V7.29065H19.7916C19.2391 7.29065 18.7092 7.51014 18.3185 7.90084C17.9278 8.29154 17.7083 8.82145 17.7083 9.37398V11.4573C17.7083 12.0099 17.9278 12.5398 18.3185 12.9305C18.7092 13.3212 19.2391 13.5407 19.7916 13.5407H23.9583V17.7073C23.9583 18.2599 24.1778 18.7898 24.5685 19.1805C24.9592 19.5712 25.4891 19.7907 26.0416 19.7907H28.1249C28.6775 19.7907 29.2074 19.5712 29.5981 19.1805C29.9888 18.7898 30.2083 18.2599 30.2083 17.7073V13.5407H34.375C34.9275 13.5407 35.4574 13.3212 35.8481 12.9305C36.2388 12.5398 36.4583 12.0099 36.4583 11.4573V9.37398Z" stroke="#5A4A66" stroke-width="1.5" stroke-linecap="round" stroke-linejoin="round"/>
<path d="M5.20834 33.3331C5.20834 34.7144 5.75708 36.0392 6.73383 37.0159C7.71058 37.9927 9.03534 38.5414 10.4167 38.5414C11.798 38.5414 13.1228 37.9927 14.0995 37.0159C15.0763 36.0392 15.625 34.7144 15.625 33.3331C15.625 31.9518 15.0763 30.627 14.0995 29.6502C13.1228 28.6735 11.798 28.1248 10.4167 28.1248C9.03534 28.1248 7.71058 28.6735 6.73383 29.6502C5.75708 30.627 5.20834 31.9518 5.20834 33.3331Z" stroke="#5A4A66" stroke-width="1.5" stroke-linecap="round" stroke-linejoin="round"/>
<path d="M1.0416 28.1248V48.9581" stroke="#5A4A66" stroke-width="1.5" stroke-linecap="round" stroke-linejoin="round"/>
<path d="M48.9583 33.3323V48.9573" stroke="#5A4A66" stroke-width="1.5" stroke-linecap="round" stroke-linejoin="round"/>
<path d="M1.0416 38.541H48.9583V44.791H1.0416V38.541Z" stroke="#5A4A66" stroke-width="1.5" stroke-linecap="round" stroke-linejoin="round"/>
<path d="M19.7917 38.5414H44.7917V32.2914C44.7917 31.1864 44.3527 30.1265 43.5713 29.3451C42.7899 28.5637 41.7301 28.1248 40.625 28.1248H20.8333C20.5571 28.1248 20.2921 28.2345 20.0968 28.4299C19.9014 28.6252 19.7917 28.8902 19.7917 29.1664V38.5414Z" stroke="#5A4A66" stroke-width="1.5" stroke-linecap="round" stroke-linejoin="round"/>
</g>
<defs>
<clipPath id="clip0_155_489">
<rect width="50" height="50" fill="white"/>
</clipPath>
</defs>
</svg>
