<svg width="60" height="60" viewBox="0 0 60 60" fill="none" xmlns="http://www.w3.org/2000/svg">
<path d="M31.1979 10.8333C31.1979 12.4219 31.8289 13.9453 32.9522 15.0686C34.0754 16.1919 35.5989 16.8229 37.1875 16.8229C38.776 16.8229 40.2995 16.1919 41.4227 15.0686C42.546 13.9453 43.177 12.4219 43.177 10.8333C43.177 9.2448 42.546 7.72132 41.4227 6.59806C40.2995 5.47479 38.776 4.84375 37.1875 4.84375C35.5989 4.84375 34.0754 5.47479 32.9522 6.59806C31.8289 7.72132 31.1979 9.2448 31.1979 10.8333Z" stroke="#5A4A66" stroke-width="1.5" stroke-linecap="round" stroke-linejoin="round"/>
<path d="M45.5729 44.375C45.5729 45.1616 45.7278 45.9404 46.0288 46.6671C46.3298 47.3938 46.771 48.0541 47.3272 48.6103C47.8834 49.1665 48.5437 49.6076 49.2703 49.9086C49.997 50.2096 50.7759 50.3646 51.5625 50.3646C52.349 50.3646 53.1279 50.2096 53.8546 49.9086C54.5813 49.6076 55.2416 49.1665 55.7977 48.6103C56.3539 48.0541 56.7951 47.3938 57.0961 46.6671C57.3971 45.9404 57.552 45.1616 57.552 44.375C57.552 43.5884 57.3971 42.8096 57.0961 42.0829C56.7951 41.3562 56.3539 40.6959 55.7977 40.1397C55.2416 39.5835 54.5813 39.1423 53.8546 38.8413C53.1279 38.5403 52.349 38.3854 51.5625 38.3854C50.7759 38.3854 49.997 38.5403 49.2703 38.8413C48.5437 39.1423 47.8834 39.5835 47.3272 40.1397C46.771 40.6959 46.3298 41.3562 46.0288 42.0829C45.7278 42.8096 45.5729 43.5884 45.5729 44.375Z" stroke="#5A4A66" stroke-width="1.5" stroke-linecap="round" stroke-linejoin="round"/>
<path d="M57.552 55.1562H2.44788" stroke="#5A4A66" stroke-width="1.5" stroke-linecap="round" stroke-linejoin="round"/>
<path d="M38.3855 31.1979L33.5291 32.9397C32.6713 33.2256 31.9622 33.8406 31.5578 34.6494C31.1535 35.4581 31.0869 36.3944 31.3729 37.2522C31.6588 38.11 32.2738 38.8191 33.0825 39.2235C33.8913 39.6278 34.8275 39.6944 35.6854 39.4084L40.6591 37.6283C42.0901 37.1512 43.3346 36.2359 44.2165 35.0122C45.0984 33.7884 45.573 32.3182 45.573 30.8098V28.8021C45.573 26.8958 44.8157 25.0677 43.4678 23.7198C42.1199 22.3718 40.2917 21.6146 38.3855 21.6146H30C28.5123 21.6146 27.0449 21.961 25.7142 22.6263C24.3835 23.2917 23.226 24.2577 22.3334 25.4479L21.6146 26.4063" stroke="#5A4A66" stroke-width="1.5" stroke-linecap="round" stroke-linejoin="round"/>
<path d="M14.427 43.1771H6.04163C5.0885 43.1771 4.17442 43.5557 3.50046 44.2297C2.8265 44.9036 2.44788 45.8177 2.44788 46.7708C2.44788 47.724 2.8265 48.638 3.50046 49.312C4.17442 49.986 5.0885 50.3646 6.04163 50.3646H26.4062" stroke="#5A4A66" stroke-width="1.5" stroke-linecap="round" stroke-linejoin="round"/>
<path d="M38.3854 50.3646H26.4062C25.7387 50.3648 25.0843 50.1791 24.5164 49.8283C23.9486 49.4775 23.4896 48.9754 23.191 48.3784L19.1876 40.3716C18.891 39.773 18.4325 39.2696 17.8641 38.9185C17.2958 38.5674 16.6404 38.3827 15.9724 38.3854H6.04163C5.0885 38.3854 4.17442 38.0068 3.50046 37.3328C2.8265 36.6589 2.44788 35.7448 2.44788 34.7917C2.44788 33.8386 2.8265 32.9245 3.50046 32.2505C4.17442 31.5766 5.0885 31.1979 6.04163 31.1979H15.9748C17.9787 31.1902 19.9447 31.7447 21.6493 32.7984C23.354 33.8521 24.7289 35.3628 25.618 37.1588L28.6271 43.1771H38.3854C39.3385 43.1771 40.2526 43.5557 40.9265 44.2297C41.6005 44.9036 41.9791 45.8177 41.9791 46.7708C41.9791 47.724 41.6005 48.638 40.9265 49.312C40.2526 49.986 39.3385 50.3646 38.3854 50.3646Z" stroke="#5A4A66" stroke-width="1.5" stroke-linecap="round" stroke-linejoin="round"/>
</svg>
