<svg width="61" height="60" viewBox="0 0 61 60" fill="none" xmlns="http://www.w3.org/2000/svg">
<g clip-path="url(#clip0_276_73)">
<path d="M44.1615 11.2537C44.1615 10.5906 43.8981 9.95474 43.4293 9.4859C42.9604 9.01705 42.3245 8.75366 41.6615 8.75366H36.6615V3.75366C36.6615 3.09062 36.3981 2.45474 35.9293 1.9859C35.4604 1.51705 34.8245 1.25366 34.1615 1.25366H31.6615C30.9985 1.25366 30.3626 1.51705 29.8937 1.9859C29.4249 2.45474 29.1615 3.09062 29.1615 3.75366V8.75366H24.1615C23.4985 8.75366 22.8626 9.01705 22.3937 9.4859C21.9249 9.95474 21.6615 10.5906 21.6615 11.2537V13.7537C21.6615 14.4167 21.9249 15.0526 22.3937 15.5214C22.8626 15.9903 23.4985 16.2537 24.1615 16.2537H29.1615V21.2537C29.1615 21.9167 29.4249 22.5526 29.8937 23.0214C30.3626 23.4903 30.9985 23.7537 31.6615 23.7537H34.1615C34.8245 23.7537 35.4604 23.4903 35.9293 23.0214C36.3981 22.5526 36.6615 21.9167 36.6615 21.2537V16.2537H41.6615C42.3245 16.2537 42.9604 15.9903 43.4293 15.5214C43.8981 15.0526 44.1615 14.4167 44.1615 13.7537V11.2537Z" stroke="#5A4A66" stroke-width="1.5" stroke-linecap="round" stroke-linejoin="round"/>
<path d="M6.66162 40.0046C6.66162 41.6622 7.3201 43.252 8.4922 44.4241C9.66431 45.5962 11.254 46.2546 12.9116 46.2546C14.5692 46.2546 16.1589 45.5962 17.331 44.4241C18.5031 43.252 19.1616 41.6622 19.1616 40.0046C19.1616 38.347 18.5031 36.7573 17.331 35.5852C16.1589 34.4131 14.5692 33.7546 12.9116 33.7546C11.254 33.7546 9.66431 34.4131 8.4922 35.5852C7.3201 36.7573 6.66162 38.347 6.66162 40.0046Z" stroke="#5A4A66" stroke-width="1.5" stroke-linecap="round" stroke-linejoin="round"/>
<path d="M1.6615 33.7546V58.7546" stroke="#5A4A66" stroke-width="1.5" stroke-linecap="round" stroke-linejoin="round"/>
<path d="M59.1615 40.0037V58.7537" stroke="#5A4A66" stroke-width="1.5" stroke-linecap="round" stroke-linejoin="round"/>
<path d="M1.6615 46.254H59.1615V53.754H1.6615V46.254Z" stroke="#5A4A66" stroke-width="1.5" stroke-linecap="round" stroke-linejoin="round"/>
<path d="M24.1616 46.2546H54.1616V38.7546C54.1616 37.4286 53.6348 36.1568 52.6972 35.2191C51.7595 34.2814 50.4877 33.7546 49.1616 33.7546H25.4116C25.0801 33.7546 24.7622 33.8863 24.5277 34.1208C24.2933 34.3552 24.1616 34.6731 24.1616 35.0046V46.2546Z" stroke="#5A4A66" stroke-width="1.5" stroke-linecap="round" stroke-linejoin="round"/>
</g>
<defs>
<clipPath id="clip0_276_73">
<rect width="60" height="60" fill="white" transform="translate(0.411621 0.00488281)"/>
</clipPath>
</defs>
</svg>
