<svg width="60" height="60" viewBox="0 0 60 60" fill="none" xmlns="http://www.w3.org/2000/svg">
<path d="M19.2859 55.7142C28.7537 55.7142 36.4288 48.0391 36.4288 38.5713C36.4288 29.1036 28.7537 21.4285 19.2859 21.4285C9.81818 21.4285 2.14307 29.1036 2.14307 38.5713C2.14307 48.0391 9.81818 55.7142 19.2859 55.7142Z" stroke="#5A4A66" stroke-width="1.5" stroke-linecap="round" stroke-linejoin="round"/>
<path d="M40.7146 55.7142C50.1824 55.7142 57.8575 48.0391 57.8575 38.5713C57.8575 29.1036 50.1824 21.4285 40.7146 21.4285C31.2469 21.4285 23.5718 29.1036 23.5718 38.5713C23.5718 48.0391 31.2469 55.7142 40.7146 55.7142Z" stroke="#5A4A66" stroke-width="1.5" stroke-linecap="round" stroke-linejoin="round"/>
<path d="M30.0003 38.5714C39.468 38.5714 47.1431 30.8962 47.1431 21.4285C47.1431 11.9608 39.468 4.28564 30.0003 4.28564C20.5325 4.28564 12.8574 11.9608 12.8574 21.4285C12.8574 30.8962 20.5325 38.5714 30.0003 38.5714Z" stroke="#5A4A66" stroke-width="1.5" stroke-linecap="round" stroke-linejoin="round"/>
</svg>
