<svg width="47" height="46" viewBox="0 0 47 46" fill="none" xmlns="http://www.w3.org/2000/svg">
<path d="M23.1006 46C35.8031 46 46.1006 35.7026 46.1006 23C46.1006 10.2975 35.8031 0 23.1006 0C10.398 0 0.100586 10.2975 0.100586 23C0.100586 35.7026 10.398 46 23.1006 46Z" fill="white"/>
<path d="M46.0975 22.9994C46.1919 32.6444 39.9961 41.0157 31.9141 44.2461C30.6769 40.6261 30.0378 36.7318 30.0378 32.6939C30.0378 22.9567 33.9385 14.1339 40.2708 7.70337C43.8282 11.6195 46.1995 16.9757 46.0975 22.9994Z" fill="#5A4A66"/>
<path d="M0.0410252 22.9994C-0.0533943 32.6444 6.16011 40.9962 14.2422 44.2266C15.4793 40.6066 16.1007 36.7318 16.1007 32.6939C16.1007 22.9567 12.2386 14.1532 5.90625 7.72266C2.34885 11.6388 -0.0609131 16.9757 0.0410252 22.9994Z" fill="#5A4A66"/>
<path d="M27.4602 9.06546C27.8528 6.65524 26.2173 4.38305 23.8071 3.99038C21.3968 3.59771 19.1247 5.23326 18.732 7.64348C18.3393 10.0537 19.9749 12.3259 22.3851 12.7186C24.7953 13.1112 27.0675 11.4757 27.4602 9.06546Z" fill="#5A4A66"/>
<path d="M23.0972 24.015C25.0858 24.015 26.6979 22.403 26.6979 20.4144C26.6979 18.4258 25.0858 16.8137 23.0972 16.8137C21.1087 16.8137 19.4966 18.4258 19.4966 20.4144C19.4966 22.403 21.1087 24.015 23.0972 24.015Z" fill="#5A4A66"/>
<path d="M25.034 32.8289C26.1376 31.7616 26.1671 30.0017 25.0998 28.8981C24.0326 27.7944 22.2727 27.7649 21.169 28.8322C20.0653 29.8994 20.0359 31.6593 21.1031 32.763C22.1704 33.8667 23.9303 33.8962 25.034 32.8289Z" fill="#5A4A66"/>
<path d="M23.0973 41.563C24.1789 41.563 25.0558 40.6861 25.0558 39.6045C25.0558 38.5228 24.1789 37.646 23.0973 37.646C22.0156 37.646 21.1388 38.5228 21.1388 39.6045C21.1388 40.6861 22.0156 41.563 23.0973 41.563Z" fill="#5A4A66"/>
</svg>
